<?xml version="1.0" encoding="UTF-8" standalone="no"?>
<!DOCTYPE svg PUBLIC "-//W3C//DTD SVG 1.1//EN"
 "http://www.w3.org/Graphics/SVG/1.1/DTD/svg11.dtd">
<!-- Generated by graphviz version 2.43.0 (0)
 -->
<!-- Title: G Pages: 1 -->
<svg width="337pt" height="329pt"
 viewBox="0.00 0.00 337.00 329.00" xmlns="http://www.w3.org/2000/svg" xmlns:xlink="http://www.w3.org/1999/xlink">
<g id="graph0" class="graph" transform="scale(1 1) rotate(0) translate(4 325)">
<title>G</title>
<polygon fill="white" stroke="transparent" points="-4,4 -4,-325 333,-325 333,4 -4,4"/>
<g id="clust1" class="cluster">
<title>cluster_213154168</title>
<polygon fill="none" stroke="black" points="8,-238 8,-313 134,-313 134,-238 8,-238"/>
<text text-anchor="middle" x="71" y="-297.8" font-family="Times,serif" font-size="14.00">dune&#45;release 2.1.0</text>
</g>
<g id="clust2" class="cluster">
<title>cluster_423149259</title>
<polygon fill="none" stroke="black" points="131,-8 131,-155 217,-155 217,-8 131,-8"/>
<text text-anchor="middle" x="174" y="-139.8" font-family="Times,serif" font-size="14.00">fmt 0.10.0</text>
</g>
<g id="clust3" class="cluster">
<title>cluster_510801370</title>
<polygon fill="none" stroke="black" points="225,-80 225,-155 321,-155 321,-80 225,-80"/>
<text text-anchor="middle" x="273" y="-139.8" font-family="Times,serif" font-size="14.00">logs 0.9.0</text>
</g>
<g id="clust4" class="cluster">
<title>cluster_591990434</title>
<polygon fill="none" stroke="black" points="19,-80 19,-230 123,-230 123,-80 19,-80"/>
<text text-anchor="middle" x="71" y="-214.8" font-family="Times,serif" font-size="14.00">bos 0.2.1</text>
</g>
<!-- bos -->
<g id="node1" class="node">
<title>bos</title>
<ellipse fill="lightgrey" stroke="black" cx="79" cy="-106" rx="27" ry="18"/>
<text text-anchor="middle" x="79" y="-102.3" font-family="Times,serif" font-size="14.00">bos</text>
</g>
<!-- fmt -->
<g id="node4" class="node">
<title>fmt</title>
<ellipse fill="lightgrey" stroke="black" cx="174" cy="-34" rx="27" ry="18"/>
<text text-anchor="middle" x="174" y="-30.3" font-family="Times,serif" font-size="14.00">fmt</text>
</g>
<!-- bos&#45;&gt;fmt -->
<g id="edge1" class="edge">
<title>bos&#45;&gt;fmt</title>
<path fill="none" stroke="black" d="M96.42,-92.16C110.93,-81.47 131.79,-66.1 148.23,-53.99"/>
<polygon fill="black" stroke="black" points="150.39,-56.74 156.36,-47.99 146.24,-51.11 150.39,-56.74"/>
</g>
<!-- bos.setup -->
<g id="node2" class="node">
<title>bos.setup</title>
<ellipse fill="lightgrey" stroke="black" cx="71" cy="-181" rx="44.39" ry="18"/>
<text text-anchor="middle" x="71" y="-177.3" font-family="Times,serif" font-size="14.00">bos.setup</text>
</g>
<!-- bos.setup&#45;&gt;bos -->
<g id="edge2" class="edge">
<title>bos.setup&#45;&gt;bos</title>
<path fill="none" stroke="black" d="M72.9,-162.7C73.82,-154.25 74.96,-143.87 76,-134.37"/>
<polygon fill="black" stroke="black" points="79.51,-134.5 77.12,-124.18 72.55,-133.73 79.51,-134.5"/>
</g>
<!-- fmt.tty -->
<g id="node5" class="node">
<title>fmt.tty</title>
<ellipse fill="lightgrey" stroke="black" cx="174" cy="-106" rx="35.19" ry="18"/>
<text text-anchor="middle" x="174" y="-102.3" font-family="Times,serif" font-size="14.00">fmt.tty</text>
</g>
<!-- bos.setup&#45;&gt;fmt.tty -->
<g id="edge3" class="edge">
<title>bos.setup&#45;&gt;fmt.tty</title>
<path fill="none" stroke="black" d="M102.63,-168.36C110.9,-164.66 119.57,-160.17 127,-155 136.97,-148.06 146.6,-138.83 154.53,-130.31"/>
<polygon fill="black" stroke="black" points="157.21,-132.56 161.28,-122.78 152,-127.89 157.21,-132.56"/>
</g>
<!-- logs.fmt -->
<g id="node6" class="node">
<title>logs.fmt</title>
<ellipse fill="lightgrey" stroke="black" cx="273" cy="-106" rx="40.09" ry="18"/>
<text text-anchor="middle" x="273" y="-102.3" font-family="Times,serif" font-size="14.00">logs.fmt</text>
</g>
<!-- bos.setup&#45;&gt;logs.fmt -->
<g id="edge4" class="edge">
<title>bos.setup&#45;&gt;logs.fmt</title>
<path fill="none" stroke="black" d="M115.04,-179.26C146.06,-177.21 187.8,-171.25 221,-155 232.9,-149.18 244,-139.74 252.86,-130.78"/>
<polygon fill="black" stroke="black" points="255.45,-133.13 259.75,-123.44 250.35,-128.33 255.45,-133.13"/>
</g>
<!-- dune&#45;release -->
<g id="node3" class="node">
<title>dune&#45;release</title>
<ellipse fill="lightgrey" stroke="black" cx="71" cy="-264" rx="55.49" ry="18"/>
<text text-anchor="middle" x="71" y="-260.3" font-family="Times,serif" font-size="14.00">dune&#45;release</text>
</g>
<!-- dune&#45;release&#45;&gt;bos.setup -->
<g id="edge5" class="edge">
<title>dune&#45;release&#45;&gt;bos.setup</title>
<path fill="none" stroke="black" d="M71,-245.82C71,-235.19 71,-221.31 71,-209.2"/>
<polygon fill="black" stroke="black" points="74.5,-209.15 71,-199.15 67.5,-209.15 74.5,-209.15"/>
</g>
<!-- fmt.tty&#45;&gt;fmt -->
<g id="edge6" class="edge">
<title>fmt.tty&#45;&gt;fmt</title>
<path fill="none" stroke="black" d="M174,-87.7C174,-79.98 174,-70.71 174,-62.11"/>
<polygon fill="black" stroke="black" points="177.5,-62.1 174,-52.1 170.5,-62.1 177.5,-62.1"/>
</g>
<!-- logs.fmt&#45;&gt;fmt -->
<g id="edge7" class="edge">
<title>logs.fmt&#45;&gt;fmt</title>
<path fill="none" stroke="black" d="M252.49,-90.5C237.39,-79.82 216.73,-65.21 200.4,-53.66"/>
<polygon fill="black" stroke="black" points="202.02,-50.52 191.83,-47.61 197.98,-56.24 202.02,-50.52"/>
</g>
</g>
</svg>
