<?xml version="1.0" encoding="UTF-8" standalone="no"?>
<!DOCTYPE svg PUBLIC "-//W3C//DTD SVG 1.1//EN"
 "http://www.w3.org/Graphics/SVG/1.1/DTD/svg11.dtd">
<!-- Generated by graphviz version 2.43.0 (0)
 -->
<!-- Title: G Pages: 1 -->
<svg width="806pt" height="412pt"
 viewBox="0.00 0.00 806.00 412.00" xmlns="http://www.w3.org/2000/svg" xmlns:xlink="http://www.w3.org/1999/xlink">
<g id="graph0" class="graph" transform="scale(1 1) rotate(0) translate(4 408)">
<title>G</title>
<polygon fill="white" stroke="transparent" points="-4,4 -4,-408 802,-408 802,4 -4,4"/>
<g id="clust1" class="cluster">
<title>cluster_1022634066</title>
<polygon fill="none" stroke="black" points="652,-80 652,-313 790,-313 790,-80 652,-80"/>
<text text-anchor="middle" x="721" y="-297.8" font-family="Times,serif" font-size="14.00">odoc</text>
</g>
<g id="clust2" class="cluster">
<title>cluster_407490632</title>
<polygon fill="none" stroke="black" points="8,-163 8,-313 152,-313 152,-163 8,-163"/>
<text text-anchor="middle" x="80" y="-297.8" font-family="Times,serif" font-size="14.00">alcotest</text>
</g>
<g id="clust3" class="cluster">
<title>cluster_47602582</title>
<polygon fill="none" stroke="black" points="544,-80 544,-313 644,-313 644,-80 544,-80"/>
<text text-anchor="middle" x="594" y="-297.8" font-family="Times,serif" font-size="14.00">mdx</text>
</g>
<g id="clust4" class="cluster">
<title>cluster_652999151</title>
<polygon fill="none" stroke="black" points="421,-321 421,-396 547,-396 547,-321 421,-321"/>
<text text-anchor="middle" x="484" y="-380.8" font-family="Times,serif" font-size="14.00">dune&#45;release</text>
</g>
<g id="clust5" class="cluster">
<title>cluster_668538665</title>
<polygon fill="none" stroke="black" points="160,-8 160,-238 333,-238 333,-8 160,-8"/>
<text text-anchor="middle" x="246.5" y="-222.8" font-family="Times,serif" font-size="14.00">fmt</text>
</g>
<g id="clust6" class="cluster">
<title>cluster_74961155</title>
<polygon fill="none" stroke="black" points="341,-163 341,-313 536,-313 536,-163 341,-163"/>
<text text-anchor="middle" x="438.5" y="-297.8" font-family="Times,serif" font-size="14.00">bos</text>
</g>
<g id="clust7" class="cluster">
<title>cluster_86790983</title>
<polygon fill="none" stroke="black" points="404,-80 404,-155 500,-155 500,-80 404,-80"/>
<text text-anchor="middle" x="452" y="-139.8" font-family="Times,serif" font-size="14.00">logs</text>
</g>
<!-- alcotest -->
<g id="node1" class="node">
<title>alcotest</title>
<ellipse fill="lightgrey" stroke="black" cx="93" cy="-264" rx="37.89" ry="18"/>
<text text-anchor="middle" x="93" y="-260.3" font-family="Times,serif" font-size="14.00">alcotest</text>
</g>
<!-- alcotest.engine -->
<g id="node2" class="node">
<title>alcotest.engine</title>
<ellipse fill="lightgrey" stroke="black" cx="80" cy="-189" rx="63.89" ry="18"/>
<text text-anchor="middle" x="80" y="-185.3" font-family="Times,serif" font-size="14.00">alcotest.engine</text>
</g>
<!-- alcotest&#45;&gt;alcotest.engine -->
<g id="edge1" class="edge">
<title>alcotest&#45;&gt;alcotest.engine</title>
<path fill="none" stroke="black" d="M89.92,-245.7C88.4,-237.15 86.53,-226.65 84.82,-217.07"/>
<polygon fill="black" stroke="black" points="88.26,-216.41 83.06,-207.18 81.37,-217.63 88.26,-216.41"/>
</g>
<!-- fmt.tty -->
<g id="node10" class="node">
<title>fmt.tty</title>
<ellipse fill="lightgrey" stroke="black" cx="290" cy="-106" rx="35.19" ry="18"/>
<text text-anchor="middle" x="290" y="-102.3" font-family="Times,serif" font-size="14.00">fmt.tty</text>
</g>
<!-- alcotest&#45;&gt;fmt.tty -->
<g id="edge2" class="edge">
<title>alcotest&#45;&gt;fmt.tty</title>
<path fill="none" stroke="black" d="M122.98,-252.82C132.9,-248.86 143.75,-243.86 153,-238 200.58,-207.88 245.76,-159.5 270.49,-130.73"/>
<polygon fill="black" stroke="black" points="273.4,-132.7 277.2,-122.81 268.06,-128.18 273.4,-132.7"/>
</g>
<!-- fmt.cli -->
<g id="node8" class="node">
<title>fmt.cli</title>
<ellipse fill="lightgrey" stroke="black" cx="202" cy="-106" rx="34.39" ry="18"/>
<text text-anchor="middle" x="202" y="-102.3" font-family="Times,serif" font-size="14.00">fmt.cli</text>
</g>
<!-- alcotest.engine&#45;&gt;fmt.cli -->
<g id="edge3" class="edge">
<title>alcotest.engine&#45;&gt;fmt.cli</title>
<path fill="none" stroke="black" d="M103.81,-172.19C123.59,-159.06 151.81,-140.32 172.92,-126.31"/>
<polygon fill="black" stroke="black" points="175.1,-129.06 181.49,-120.62 171.22,-123.23 175.1,-129.06"/>
</g>
<!-- bos -->
<g id="node3" class="node">
<title>bos</title>
<ellipse fill="lightgrey" stroke="black" cx="408" cy="-189" rx="27" ry="18"/>
<text text-anchor="middle" x="408" y="-185.3" font-family="Times,serif" font-size="14.00">bos</text>
</g>
<!-- fmt -->
<g id="node7" class="node">
<title>fmt</title>
<ellipse fill="lightgrey" stroke="black" cx="298" cy="-34" rx="27" ry="18"/>
<text text-anchor="middle" x="298" y="-30.3" font-family="Times,serif" font-size="14.00">fmt</text>
</g>
<!-- bos&#45;&gt;fmt -->
<g id="edge4" class="edge">
<title>bos&#45;&gt;fmt</title>
<path fill="none" stroke="black" d="M397.58,-172C383.57,-150.69 357.68,-111.96 334,-80 328.61,-72.72 322.52,-64.96 316.91,-57.97"/>
<polygon fill="black" stroke="black" points="319.63,-55.76 310.62,-50.19 314.19,-60.17 319.63,-55.76"/>
</g>
<!-- bos.setup -->
<g id="node4" class="node">
<title>bos.setup</title>
<ellipse fill="lightgrey" stroke="black" cx="484" cy="-264" rx="44.39" ry="18"/>
<text text-anchor="middle" x="484" y="-260.3" font-family="Times,serif" font-size="14.00">bos.setup</text>
</g>
<!-- bos.setup&#45;&gt;bos -->
<g id="edge5" class="edge">
<title>bos.setup&#45;&gt;bos</title>
<path fill="none" stroke="black" d="M467.51,-247.16C456.62,-236.7 442.22,-222.87 430.32,-211.44"/>
<polygon fill="black" stroke="black" points="432.55,-208.73 422.91,-204.32 427.7,-213.78 432.55,-208.73"/>
</g>
<!-- bos.setup&#45;&gt;fmt.tty -->
<g id="edge6" class="edge">
<title>bos.setup&#45;&gt;fmt.tty</title>
<path fill="none" stroke="black" d="M451.4,-251.77C444.4,-249.63 437,-247.57 430,-246 404.61,-240.3 393.19,-253.11 372,-238 341.58,-216.3 354.09,-194.51 334,-163 327.01,-152.03 318.34,-140.62 310.54,-130.99"/>
<polygon fill="black" stroke="black" points="313.04,-128.52 303.98,-123.03 307.64,-132.97 313.04,-128.52"/>
</g>
<!-- logs.fmt -->
<g id="node11" class="node">
<title>logs.fmt</title>
<ellipse fill="lightgrey" stroke="black" cx="452" cy="-106" rx="40.09" ry="18"/>
<text text-anchor="middle" x="452" y="-102.3" font-family="Times,serif" font-size="14.00">logs.fmt</text>
</g>
<!-- bos.setup&#45;&gt;logs.fmt -->
<g id="edge7" class="edge">
<title>bos.setup&#45;&gt;logs.fmt</title>
<path fill="none" stroke="black" d="M480.51,-246.01C474.98,-219.05 464.15,-166.23 457.55,-134.03"/>
<polygon fill="black" stroke="black" points="460.92,-133.06 455.48,-123.97 454.06,-134.47 460.92,-133.06"/>
</g>
<!-- bos.top -->
<g id="node5" class="node">
<title>bos.top</title>
<ellipse fill="lightgrey" stroke="black" cx="385" cy="-264" rx="36.29" ry="18"/>
<text text-anchor="middle" x="385" y="-260.3" font-family="Times,serif" font-size="14.00">bos.top</text>
</g>
<!-- bos.top&#45;&gt;bos -->
<g id="edge8" class="edge">
<title>bos.top&#45;&gt;bos</title>
<path fill="none" stroke="black" d="M390.33,-246.07C393.09,-237.32 396.52,-226.43 399.62,-216.59"/>
<polygon fill="black" stroke="black" points="403.03,-217.43 402.69,-206.84 396.35,-215.33 403.03,-217.43"/>
</g>
<!-- fmt.top -->
<g id="node9" class="node">
<title>fmt.top</title>
<ellipse fill="lightgrey" stroke="black" cx="288" cy="-189" rx="37.09" ry="18"/>
<text text-anchor="middle" x="288" y="-185.3" font-family="Times,serif" font-size="14.00">fmt.top</text>
</g>
<!-- bos.top&#45;&gt;fmt.top -->
<g id="edge9" class="edge">
<title>bos.top&#45;&gt;fmt.top</title>
<path fill="none" stroke="black" d="M358.76,-251.1C351.46,-247.33 343.69,-242.86 337,-238 327.11,-230.83 317.28,-221.69 309.05,-213.32"/>
<polygon fill="black" stroke="black" points="311.42,-210.74 301.98,-205.93 306.36,-215.58 311.42,-210.74"/>
</g>
<!-- dune&#45;release -->
<g id="node6" class="node">
<title>dune&#45;release</title>
<ellipse fill="lightgrey" stroke="black" cx="484" cy="-347" rx="55.49" ry="18"/>
<text text-anchor="middle" x="484" y="-343.3" font-family="Times,serif" font-size="14.00">dune&#45;release</text>
</g>
<!-- dune&#45;release&#45;&gt;bos.setup -->
<g id="edge10" class="edge">
<title>dune&#45;release&#45;&gt;bos.setup</title>
<path fill="none" stroke="black" d="M484,-328.82C484,-318.19 484,-304.31 484,-292.2"/>
<polygon fill="black" stroke="black" points="487.5,-292.15 484,-282.15 480.5,-292.15 487.5,-292.15"/>
</g>
<!-- fmt.cli&#45;&gt;fmt -->
<g id="edge11" class="edge">
<title>fmt.cli&#45;&gt;fmt</title>
<path fill="none" stroke="black" d="M221.43,-90.83C236.03,-80.18 256.19,-65.48 272.16,-53.84"/>
<polygon fill="black" stroke="black" points="274.52,-56.45 280.54,-47.73 270.4,-50.8 274.52,-56.45"/>
</g>
<!-- fmt.top&#45;&gt;fmt.tty -->
<g id="edge12" class="edge">
<title>fmt.top&#45;&gt;fmt.tty</title>
<path fill="none" stroke="black" d="M288.42,-170.82C288.69,-160.19 289.03,-146.31 289.33,-134.2"/>
<polygon fill="black" stroke="black" points="292.83,-134.24 289.58,-124.15 285.83,-134.06 292.83,-134.24"/>
</g>
<!-- fmt.tty&#45;&gt;fmt -->
<g id="edge13" class="edge">
<title>fmt.tty&#45;&gt;fmt</title>
<path fill="none" stroke="black" d="M291.98,-87.7C292.86,-79.98 293.92,-70.71 294.9,-62.11"/>
<polygon fill="black" stroke="black" points="298.39,-62.44 296.05,-52.1 291.43,-61.64 298.39,-62.44"/>
</g>
<!-- logs.fmt&#45;&gt;fmt -->
<g id="edge14" class="edge">
<title>logs.fmt&#45;&gt;fmt</title>
<path fill="none" stroke="black" d="M424.82,-92.65C398.1,-80.5 357.34,-61.97 329.28,-49.22"/>
<polygon fill="black" stroke="black" points="330.48,-45.92 319.93,-44.97 327.58,-52.29 330.48,-45.92"/>
</g>
<!-- mdx -->
<g id="node12" class="node">
<title>mdx</title>
<ellipse fill="lightgrey" stroke="black" cx="586" cy="-106" rx="27" ry="18"/>
<text text-anchor="middle" x="586" y="-102.3" font-family="Times,serif" font-size="14.00">mdx</text>
</g>
<!-- mdx&#45;&gt;fmt -->
<g id="edge15" class="edge">
<title>mdx&#45;&gt;fmt</title>
<path fill="none" stroke="black" d="M562.11,-97.16C545.82,-91.95 523.73,-85.15 504,-80 444.57,-64.48 374.56,-49.97 333.36,-41.82"/>
<polygon fill="black" stroke="black" points="334.02,-38.38 323.53,-39.89 332.67,-45.25 334.02,-38.38"/>
</g>
<!-- mdx.test -->
<g id="node13" class="node">
<title>mdx.test</title>
<ellipse fill="lightgrey" stroke="black" cx="594" cy="-264" rx="41.69" ry="18"/>
<text text-anchor="middle" x="594" y="-260.3" font-family="Times,serif" font-size="14.00">mdx.test</text>
</g>
<!-- mdx.top -->
<g id="node14" class="node">
<title>mdx.top</title>
<ellipse fill="lightgrey" stroke="black" cx="593" cy="-189" rx="40.09" ry="18"/>
<text text-anchor="middle" x="593" y="-185.3" font-family="Times,serif" font-size="14.00">mdx.top</text>
</g>
<!-- mdx.test&#45;&gt;mdx.top -->
<g id="edge16" class="edge">
<title>mdx.test&#45;&gt;mdx.top</title>
<path fill="none" stroke="black" d="M593.76,-245.7C593.65,-237.25 593.51,-226.87 593.37,-217.37"/>
<polygon fill="black" stroke="black" points="596.87,-217.13 593.24,-207.18 589.87,-217.22 596.87,-217.13"/>
</g>
<!-- mdx.top&#45;&gt;mdx -->
<g id="edge17" class="edge">
<title>mdx.top&#45;&gt;mdx</title>
<path fill="none" stroke="black" d="M591.52,-170.82C590.6,-160.19 589.4,-146.31 588.35,-134.2"/>
<polygon fill="black" stroke="black" points="591.83,-133.81 587.48,-124.15 584.86,-134.42 591.83,-133.81"/>
</g>
<!-- odoc.latex -->
<g id="node15" class="node">
<title>odoc.latex</title>
<ellipse fill="lightgrey" stroke="black" cx="714" cy="-106" rx="47.39" ry="18"/>
<text text-anchor="middle" x="714" y="-102.3" font-family="Times,serif" font-size="14.00">odoc.latex</text>
</g>
<!-- odoc.latex&#45;&gt;fmt -->
<g id="edge18" class="edge">
<title>odoc.latex&#45;&gt;fmt</title>
<path fill="none" stroke="black" d="M683.92,-91.9C672.81,-87.53 660.01,-83 648,-80 536.24,-52.06 399.84,-40.89 335.28,-36.92"/>
<polygon fill="black" stroke="black" points="335.37,-33.42 325.18,-36.33 334.96,-40.41 335.37,-33.42"/>
</g>
<!-- odoc.odoc -->
<g id="node16" class="node">
<title>odoc.odoc</title>
<ellipse fill="lightgrey" stroke="black" cx="717" cy="-189" rx="47.39" ry="18"/>
<text text-anchor="middle" x="717" y="-185.3" font-family="Times,serif" font-size="14.00">odoc.odoc</text>
</g>
<!-- odoc.odoc&#45;&gt;odoc.latex -->
<g id="edge19" class="edge">
<title>odoc.odoc&#45;&gt;odoc.latex</title>
<path fill="none" stroke="black" d="M716.36,-170.82C715.97,-160.19 715.46,-146.31 715.01,-134.2"/>
<polygon fill="black" stroke="black" points="718.5,-134.02 714.64,-124.15 711.51,-134.28 718.5,-134.02"/>
</g>
<!-- odoc.xref_test -->
<g id="node17" class="node">
<title>odoc.xref_test</title>
<ellipse fill="lightgrey" stroke="black" cx="721" cy="-264" rx="61.19" ry="18"/>
<text text-anchor="middle" x="721" y="-260.3" font-family="Times,serif" font-size="14.00">odoc.xref_test</text>
</g>
<!-- odoc.xref_test&#45;&gt;odoc.odoc -->
<g id="edge20" class="edge">
<title>odoc.xref_test&#45;&gt;odoc.odoc</title>
<path fill="none" stroke="black" d="M720.05,-245.7C719.59,-237.25 719.02,-226.87 718.5,-217.37"/>
<polygon fill="black" stroke="black" points="721.98,-216.97 717.94,-207.18 714.99,-217.35 721.98,-216.97"/>
</g>
</g>
</svg>
