<?xml version="1.0" encoding="UTF-8" standalone="no"?>
<!DOCTYPE svg PUBLIC "-//W3C//DTD SVG 1.1//EN"
 "http://www.w3.org/Graphics/SVG/1.1/DTD/svg11.dtd">
<!-- Generated by graphviz version 2.43.0 (0)
 -->
<!-- Title: G Pages: 1 -->
<svg width="650pt" height="401pt"
 viewBox="0.00 0.00 650.00 401.00" xmlns="http://www.w3.org/2000/svg" xmlns:xlink="http://www.w3.org/1999/xlink">
<g id="graph0" class="graph" transform="scale(1 1) rotate(0) translate(4 397)">
<title>G</title>
<polygon fill="white" stroke="transparent" points="-4,4 -4,-397 646,-397 646,4 -4,4"/>
<g id="clust1" class="cluster">
<title>cluster_213154168</title>
<polygon fill="none" stroke="black" points="88,-310 88,-385 214,-385 214,-310 88,-310"/>
<text text-anchor="middle" x="151" y="-369.8" font-family="Times,serif" font-size="14.00">dune&#45;release 2.1.0</text>
</g>
<g id="clust2" class="cluster">
<title>cluster_340889555</title>
<polygon fill="none" stroke="black" points="496,-80 496,-302 634,-302 634,-80 496,-80"/>
<text text-anchor="middle" x="565" y="-286.8" font-family="Times,serif" font-size="14.00">odoc 3.1.0</text>
</g>
<g id="clust3" class="cluster">
<title>cluster_423149259</title>
<polygon fill="none" stroke="black" points="211,-8 211,-227 384,-227 384,-8 211,-8"/>
<text text-anchor="middle" x="297.5" y="-211.8" font-family="Times,serif" font-size="14.00">fmt 0.10.0</text>
</g>
<g id="clust4" class="cluster">
<title>cluster_510801370</title>
<polygon fill="none" stroke="black" points="392,-152 392,-227 488,-227 488,-152 392,-152"/>
<text text-anchor="middle" x="440" y="-211.8" font-family="Times,serif" font-size="14.00">logs 0.9.0</text>
</g>
<g id="clust5" class="cluster">
<title>cluster_591990434</title>
<polygon fill="none" stroke="black" points="8,-152 8,-302 203,-302 203,-152 8,-152"/>
<text text-anchor="middle" x="105.5" y="-286.8" font-family="Times,serif" font-size="14.00">bos 0.2.1</text>
</g>
<!-- bos -->
<g id="node1" class="node">
<title>bos</title>
<ellipse fill="lightgrey" stroke="black" cx="136" cy="-178" rx="27" ry="18"/>
<text text-anchor="middle" x="136" y="-174.3" font-family="Times,serif" font-size="14.00">bos</text>
</g>
<!-- fmt -->
<g id="node5" class="node">
<title>fmt</title>
<ellipse fill="lightgrey" stroke="black" cx="342" cy="-34" rx="27" ry="18"/>
<text text-anchor="middle" x="342" y="-30.3" font-family="Times,serif" font-size="14.00">fmt</text>
</g>
<!-- bos&#45;&gt;fmt -->
<g id="edge1" class="edge">
<title>bos&#45;&gt;fmt</title>
<path fill="none" stroke="black" d="M144.5,-160.52C156.38,-139.03 179.91,-101.65 210,-80 238.88,-59.22 278.1,-47.47 306.27,-41.23"/>
<polygon fill="black" stroke="black" points="307.04,-44.64 316.11,-39.17 305.61,-37.79 307.04,-44.64"/>
</g>
<!-- bos.setup -->
<g id="node2" class="node">
<title>bos.setup</title>
<ellipse fill="lightgrey" stroke="black" cx="151" cy="-253" rx="44.39" ry="18"/>
<text text-anchor="middle" x="151" y="-249.3" font-family="Times,serif" font-size="14.00">bos.setup</text>
</g>
<!-- bos.setup&#45;&gt;bos -->
<g id="edge2" class="edge">
<title>bos.setup&#45;&gt;bos</title>
<path fill="none" stroke="black" d="M147.45,-234.7C145.68,-226.09 143.5,-215.49 141.52,-205.86"/>
<polygon fill="black" stroke="black" points="144.92,-205.01 139.48,-195.92 138.06,-206.42 144.92,-205.01"/>
</g>
<!-- fmt.tty -->
<g id="node8" class="node">
<title>fmt.tty</title>
<ellipse fill="lightgrey" stroke="black" cx="254" cy="-106" rx="35.19" ry="18"/>
<text text-anchor="middle" x="254" y="-102.3" font-family="Times,serif" font-size="14.00">fmt.tty</text>
</g>
<!-- bos.setup&#45;&gt;fmt.tty -->
<g id="edge3" class="edge">
<title>bos.setup&#45;&gt;fmt.tty</title>
<path fill="none" stroke="black" d="M165.56,-235.74C167.83,-232.91 170.06,-229.93 172,-227 192.6,-195.82 188.24,-182.38 210,-152 215.7,-144.04 222.8,-136.14 229.62,-129.23"/>
<polygon fill="black" stroke="black" points="232.14,-131.67 236.83,-122.17 227.24,-126.67 232.14,-131.67"/>
</g>
<!-- logs.fmt -->
<g id="node9" class="node">
<title>logs.fmt</title>
<ellipse fill="lightgrey" stroke="black" cx="440" cy="-178" rx="40.09" ry="18"/>
<text text-anchor="middle" x="440" y="-174.3" font-family="Times,serif" font-size="14.00">logs.fmt</text>
</g>
<!-- bos.setup&#45;&gt;logs.fmt -->
<g id="edge4" class="edge">
<title>bos.setup&#45;&gt;logs.fmt</title>
<path fill="none" stroke="black" d="M195.25,-250.64C254.12,-248.27 354.65,-242.11 388,-227 400.24,-221.46 411.51,-211.89 420.41,-202.75"/>
<polygon fill="black" stroke="black" points="423.1,-204.99 427.3,-195.26 417.95,-200.25 423.1,-204.99"/>
</g>
<!-- bos.top -->
<g id="node3" class="node">
<title>bos.top</title>
<ellipse fill="lightgrey" stroke="black" cx="52" cy="-253" rx="36.29" ry="18"/>
<text text-anchor="middle" x="52" y="-249.3" font-family="Times,serif" font-size="14.00">bos.top</text>
</g>
<!-- bos.top&#45;&gt;bos -->
<g id="edge5" class="edge">
<title>bos.top&#45;&gt;bos</title>
<path fill="none" stroke="black" d="M69.4,-236.87C81.86,-226.05 98.76,-211.36 112.43,-199.49"/>
<polygon fill="black" stroke="black" points="114.79,-202.07 120.04,-192.87 110.19,-196.79 114.79,-202.07"/>
</g>
<!-- fmt.top -->
<g id="node7" class="node">
<title>fmt.top</title>
<ellipse fill="lightgrey" stroke="black" cx="256" cy="-178" rx="37.09" ry="18"/>
<text text-anchor="middle" x="256" y="-174.3" font-family="Times,serif" font-size="14.00">fmt.top</text>
</g>
<!-- bos.top&#45;&gt;fmt.top -->
<g id="edge6" class="edge">
<title>bos.top&#45;&gt;fmt.top</title>
<path fill="none" stroke="black" d="M78.87,-240.64C85.05,-238.43 91.68,-236.37 98,-235 121.74,-229.85 184.87,-237 207,-227 218.75,-221.69 229.33,-212.29 237.62,-203.2"/>
<polygon fill="black" stroke="black" points="240.45,-205.28 244.29,-195.41 235.13,-200.73 240.45,-205.28"/>
</g>
<!-- dune&#45;release -->
<g id="node4" class="node">
<title>dune&#45;release</title>
<ellipse fill="lightgrey" stroke="black" cx="151" cy="-336" rx="55.49" ry="18"/>
<text text-anchor="middle" x="151" y="-332.3" font-family="Times,serif" font-size="14.00">dune&#45;release</text>
</g>
<!-- dune&#45;release&#45;&gt;bos.setup -->
<g id="edge7" class="edge">
<title>dune&#45;release&#45;&gt;bos.setup</title>
<path fill="none" stroke="black" d="M151,-317.82C151,-307.19 151,-293.31 151,-281.2"/>
<polygon fill="black" stroke="black" points="154.5,-281.15 151,-271.15 147.5,-281.15 154.5,-281.15"/>
</g>
<!-- fmt.cli -->
<g id="node6" class="node">
<title>fmt.cli</title>
<ellipse fill="lightgrey" stroke="black" cx="342" cy="-106" rx="34.39" ry="18"/>
<text text-anchor="middle" x="342" y="-102.3" font-family="Times,serif" font-size="14.00">fmt.cli</text>
</g>
<!-- fmt.cli&#45;&gt;fmt -->
<g id="edge8" class="edge">
<title>fmt.cli&#45;&gt;fmt</title>
<path fill="none" stroke="black" d="M342,-87.7C342,-79.98 342,-70.71 342,-62.11"/>
<polygon fill="black" stroke="black" points="345.5,-62.1 342,-52.1 338.5,-62.1 345.5,-62.1"/>
</g>
<!-- fmt.top&#45;&gt;fmt.tty -->
<g id="edge9" class="edge">
<title>fmt.top&#45;&gt;fmt.tty</title>
<path fill="none" stroke="black" d="M255.51,-159.7C255.29,-151.98 255.02,-142.71 254.77,-134.11"/>
<polygon fill="black" stroke="black" points="258.27,-134 254.49,-124.1 251.28,-134.2 258.27,-134"/>
</g>
<!-- fmt.tty&#45;&gt;fmt -->
<g id="edge10" class="edge">
<title>fmt.tty&#45;&gt;fmt</title>
<path fill="none" stroke="black" d="M272.23,-90.5C285.28,-80.12 302.99,-66.03 317.3,-54.64"/>
<polygon fill="black" stroke="black" points="319.63,-57.27 325.28,-48.3 315.27,-51.79 319.63,-57.27"/>
</g>
<!-- logs.fmt&#45;&gt;fmt -->
<g id="edge11" class="edge">
<title>logs.fmt&#45;&gt;fmt</title>
<path fill="none" stroke="black" d="M432.02,-160.1C422.24,-140.12 404.52,-106.26 385,-80 378.94,-71.85 371.53,-63.62 364.58,-56.46"/>
<polygon fill="black" stroke="black" points="366.85,-53.78 357.31,-49.17 361.9,-58.72 366.85,-53.78"/>
</g>
<!-- odoc.latex -->
<g id="node10" class="node">
<title>odoc.latex</title>
<ellipse fill="lightgrey" stroke="black" cx="558" cy="-106" rx="47.39" ry="18"/>
<text text-anchor="middle" x="558" y="-102.3" font-family="Times,serif" font-size="14.00">odoc.latex</text>
</g>
<!-- odoc.latex&#45;&gt;fmt -->
<g id="edge12" class="edge">
<title>odoc.latex&#45;&gt;fmt</title>
<path fill="none" stroke="black" d="M522.82,-93.6C482.04,-80.38 415.34,-58.77 375.36,-45.81"/>
<polygon fill="black" stroke="black" points="376.4,-42.47 365.8,-42.71 374.24,-49.13 376.4,-42.47"/>
</g>
<!-- odoc.odoc -->
<g id="node11" class="node">
<title>odoc.odoc</title>
<ellipse fill="lightgrey" stroke="black" cx="561" cy="-178" rx="47.39" ry="18"/>
<text text-anchor="middle" x="561" y="-174.3" font-family="Times,serif" font-size="14.00">odoc.odoc</text>
</g>
<!-- odoc.odoc&#45;&gt;odoc.latex -->
<g id="edge13" class="edge">
<title>odoc.odoc&#45;&gt;odoc.latex</title>
<path fill="none" stroke="black" d="M560.26,-159.7C559.93,-151.98 559.53,-142.71 559.16,-134.11"/>
<polygon fill="black" stroke="black" points="562.66,-133.95 558.73,-124.1 555.66,-134.25 562.66,-133.95"/>
</g>
<!-- odoc.xref_test -->
<g id="node12" class="node">
<title>odoc.xref_test</title>
<ellipse fill="lightgrey" stroke="black" cx="565" cy="-253" rx="61.19" ry="18"/>
<text text-anchor="middle" x="565" y="-249.3" font-family="Times,serif" font-size="14.00">odoc.xref_test</text>
</g>
<!-- odoc.xref_test&#45;&gt;odoc.odoc -->
<g id="edge14" class="edge">
<title>odoc.xref_test&#45;&gt;odoc.odoc</title>
<path fill="none" stroke="black" d="M564.05,-234.7C563.59,-226.25 563.02,-215.87 562.5,-206.37"/>
<polygon fill="black" stroke="black" points="565.98,-205.97 561.94,-196.18 558.99,-206.35 565.98,-205.97"/>
</g>
</g>
</svg>
