<?xml version="1.0" encoding="UTF-8" standalone="no"?>
<!DOCTYPE svg PUBLIC "-//W3C//DTD SVG 1.1//EN"
 "http://www.w3.org/Graphics/SVG/1.1/DTD/svg11.dtd">
<!-- Generated by graphviz version 2.43.0 (0)
 -->
<!-- Title: G Pages: 1 -->
<svg width="790pt" height="680pt"
 viewBox="0.00 0.00 790.00 680.00" xmlns="http://www.w3.org/2000/svg" xmlns:xlink="http://www.w3.org/1999/xlink">
<g id="graph0" class="graph" transform="scale(1 1) rotate(0) translate(4 676)">
<title>G</title>
<polygon fill="white" stroke="transparent" points="-4,4 -4,-676 786,-676 786,4 -4,4"/>
<g id="clust1" class="cluster">
<title>cluster_1029800924</title>
<polygon fill="none" stroke="black" points="537,-257 537,-332 697,-332 697,-257 537,-257"/>
<text text-anchor="middle" x="617" y="-316.8" font-family="Times,serif" font-size="14.00">opam&#45;file&#45;format</text>
</g>
<g id="clust2" class="cluster">
<title>cluster_129913994</title>
<polygon fill="none" stroke="black" points="378,-91 378,-249 474,-249 474,-91 378,-91"/>
<text text-anchor="middle" x="426" y="-233.8" font-family="Times,serif" font-size="14.00">(compiler)</text>
</g>
<g id="clust3" class="cluster">
<title>cluster_154672022</title>
<polygon fill="none" stroke="black" points="201,-8 201,-83 285,-83 285,-8 201,-8"/>
<text text-anchor="middle" x="243" y="-67.8" font-family="Times,serif" font-size="14.00">astring</text>
</g>
<g id="clust4" class="cluster">
<title>cluster_160576527</title>
<polygon fill="none" stroke="black" points="321,-506 321,-581 395,-581 395,-506 321,-506"/>
<text text-anchor="middle" x="358" y="-565.8" font-family="Times,serif" font-size="14.00">curly</text>
</g>
<g id="clust5" class="cluster">
<title>cluster_198614204</title>
<polygon fill="none" stroke="black" points="206,-91 206,-166 280,-166 280,-91 206,-91"/>
<text text-anchor="middle" x="243" y="-150.8" font-family="Times,serif" font-size="14.00">fpath</text>
</g>
<g id="clust6" class="cluster">
<title>cluster_225091939</title>
<polygon fill="none" stroke="black" points="482,-91 482,-166 606,-166 606,-91 482,-91"/>
<text text-anchor="middle" x="544" y="-150.8" font-family="Times,serif" font-size="14.00">stdlib&#45;shims</text>
</g>
<g id="clust7" class="cluster">
<title>cluster_284891543</title>
<polygon fill="none" stroke="black" points="260,-423 260,-498 338,-498 338,-423 260,-423"/>
<text text-anchor="middle" x="299" y="-482.8" font-family="Times,serif" font-size="14.00">result</text>
</g>
<g id="clust8" class="cluster">
<title>cluster_305955603</title>
<polygon fill="none" stroke="black" points="391,-423 391,-498 547,-498 547,-423 391,-423"/>
<text text-anchor="middle" x="469" y="-482.8" font-family="Times,serif" font-size="14.00">opam&#45;repository</text>
</g>
<g id="clust9" class="cluster">
<title>cluster_344936565</title>
<polygon fill="none" stroke="black" points="288,-91 288,-166 370,-166 370,-91 288,-91"/>
<text text-anchor="middle" x="329" y="-150.8" font-family="Times,serif" font-size="14.00">rresult</text>
</g>
<g id="clust10" class="cluster">
<title>cluster_50838805</title>
<polygon fill="none" stroke="black" points="612,-174 612,-249 682,-249 682,-174 612,-174"/>
<text text-anchor="middle" x="647" y="-233.8" font-family="Times,serif" font-size="14.00">re</text>
</g>
<g id="clust11" class="cluster">
<title>cluster_652999151</title>
<polygon fill="none" stroke="black" points="349,-589 349,-664 475,-664 475,-589 349,-589"/>
<text text-anchor="middle" x="412" y="-648.8" font-family="Times,serif" font-size="14.00">dune&#45;release</text>
</g>
<g id="clust12" class="cluster">
<title>cluster_668538665</title>
<polygon fill="none" stroke="black" points="8,-91 8,-249 94,-249 94,-91 8,-91"/>
<text text-anchor="middle" x="51" y="-233.8" font-family="Times,serif" font-size="14.00">fmt</text>
</g>
<g id="clust13" class="cluster">
<title>cluster_736354641</title>
<polygon fill="none" stroke="black" points="482,-174 482,-249 604,-249 604,-174 482,-174"/>
<text text-anchor="middle" x="543" y="-233.8" font-family="Times,serif" font-size="14.00">ocamlgraph</text>
</g>
<g id="clust14" class="cluster">
<title>cluster_74961155</title>
<polygon fill="none" stroke="black" points="206,-174 206,-332 310,-332 310,-174 206,-174"/>
<text text-anchor="middle" x="258" y="-316.8" font-family="Times,serif" font-size="14.00">bos</text>
</g>
<g id="clust15" class="cluster">
<title>cluster_771236823</title>
<polygon fill="none" stroke="black" points="655,-91 655,-166 725,-166 725,-91 655,-91"/>
<text text-anchor="middle" x="690" y="-150.8" font-family="Times,serif" font-size="14.00">seq</text>
</g>
<g id="clust16" class="cluster">
<title>cluster_796857884</title>
<polygon fill="none" stroke="black" points="406,-340 406,-415 538,-415 538,-340 406,-340"/>
<text text-anchor="middle" x="472" y="-399.8" font-family="Times,serif" font-size="14.00">opam&#45;format</text>
</g>
<g id="clust17" class="cluster">
<title>cluster_833791778</title>
<polygon fill="none" stroke="black" points="690,-174 690,-249 774,-249 774,-174 690,-174"/>
<text text-anchor="middle" x="732" y="-233.8" font-family="Times,serif" font-size="14.00">yojson</text>
</g>
<g id="clust18" class="cluster">
<title>cluster_86790983</title>
<polygon fill="none" stroke="black" points="102,-91 102,-249 198,-249 198,-91 102,-91"/>
<text text-anchor="middle" x="150" y="-233.8" font-family="Times,serif" font-size="14.00">logs</text>
</g>
<g id="clust19" class="cluster">
<title>cluster_881110897</title>
<polygon fill="none" stroke="black" points="415,-257 415,-332 529,-332 529,-257 415,-257"/>
<text text-anchor="middle" x="472" y="-316.8" font-family="Times,serif" font-size="14.00">opam&#45;core</text>
</g>
<g id="clust20" class="cluster">
<title>cluster_997476828</title>
<polygon fill="none" stroke="black" points="409,-506 409,-581 525,-581 525,-506 409,-506"/>
<text text-anchor="middle" x="467" y="-565.8" font-family="Times,serif" font-size="14.00">opam&#45;state</text>
</g>
<!-- astring -->
<g id="node1" class="node">
<title>astring</title>
<ellipse fill="lightgrey" stroke="black" cx="243" cy="-34" rx="34.39" ry="18"/>
<text text-anchor="middle" x="243" y="-30.3" font-family="Times,serif" font-size="14.00">astring</text>
</g>
<!-- bos -->
<g id="node2" class="node">
<title>bos</title>
<ellipse fill="lightgrey" stroke="black" cx="250" cy="-200" rx="27" ry="18"/>
<text text-anchor="middle" x="250" y="-196.3" font-family="Times,serif" font-size="14.00">bos</text>
</g>
<!-- fmt -->
<g id="node6" class="node">
<title>fmt</title>
<ellipse fill="lightgrey" stroke="black" cx="59" cy="-117" rx="27" ry="18"/>
<text text-anchor="middle" x="59" y="-113.3" font-family="Times,serif" font-size="14.00">fmt</text>
</g>
<!-- bos&#45;&gt;fmt -->
<g id="edge1" class="edge">
<title>bos&#45;&gt;fmt</title>
<path fill="none" stroke="black" d="M231.13,-186.91C222.57,-182.04 212.12,-176.89 202,-174 179.71,-167.63 118.53,-176.76 98,-166 88.01,-160.77 79.66,-151.75 73.28,-142.94"/>
<polygon fill="black" stroke="black" points="76.01,-140.73 67.56,-134.34 70.18,-144.6 76.01,-140.73"/>
</g>
<!-- fpath -->
<g id="node8" class="node">
<title>fpath</title>
<ellipse fill="lightgrey" stroke="black" cx="243" cy="-117" rx="28.7" ry="18"/>
<text text-anchor="middle" x="243" y="-113.3" font-family="Times,serif" font-size="14.00">fpath</text>
</g>
<!-- bos&#45;&gt;fpath -->
<g id="edge2" class="edge">
<title>bos&#45;&gt;fpath</title>
<path fill="none" stroke="black" d="M248.52,-181.82C247.6,-171.19 246.4,-157.31 245.35,-145.2"/>
<polygon fill="black" stroke="black" points="248.83,-144.81 244.48,-135.15 241.86,-145.42 248.83,-144.81"/>
</g>
<!-- logs -->
<g id="node9" class="node">
<title>logs</title>
<ellipse fill="lightgrey" stroke="black" cx="156" cy="-117" rx="27" ry="18"/>
<text text-anchor="middle" x="156" y="-113.3" font-family="Times,serif" font-size="14.00">logs</text>
</g>
<!-- bos&#45;&gt;logs -->
<g id="edge3" class="edge">
<title>bos&#45;&gt;logs</title>
<path fill="none" stroke="black" d="M230.65,-187C221.63,-181.09 210.94,-173.6 202,-166 192.94,-158.3 183.71,-149.02 175.93,-140.68"/>
<polygon fill="black" stroke="black" points="178.29,-138.07 168.96,-133.05 173.13,-142.79 178.29,-138.07"/>
</g>
<!-- rresult -->
<g id="node19" class="node">
<title>rresult</title>
<ellipse fill="lightgrey" stroke="black" cx="329" cy="-117" rx="33.29" ry="18"/>
<text text-anchor="middle" x="329" y="-113.3" font-family="Times,serif" font-size="14.00">rresult</text>
</g>
<!-- bos&#45;&gt;rresult -->
<g id="edge4" class="edge">
<title>bos&#45;&gt;rresult</title>
<path fill="none" stroke="black" d="M265.04,-184.69C271.01,-178.95 277.89,-172.22 284,-166 291.81,-158.06 300.19,-149.2 307.59,-141.28"/>
<polygon fill="black" stroke="black" points="310.35,-143.45 314.59,-133.74 305.22,-138.69 310.35,-143.45"/>
</g>
<!-- unix -->
<g id="node24" class="node">
<title>unix</title>
<ellipse fill="lightgrey" stroke="black" cx="413" cy="-117" rx="27" ry="18"/>
<text text-anchor="middle" x="413" y="-113.3" font-family="Times,serif" font-size="14.00">unix</text>
</g>
<!-- bos&#45;&gt;unix -->
<g id="edge5" class="edge">
<title>bos&#45;&gt;unix</title>
<path fill="none" stroke="black" d="M274.78,-192.41C310.94,-182.8 373.93,-166.04 374,-166 383.33,-159.96 391.49,-150.96 397.9,-142.38"/>
<polygon fill="black" stroke="black" points="400.85,-144.27 403.71,-134.06 395.12,-140.26 400.85,-144.27"/>
</g>
<!-- bos.setup -->
<g id="node3" class="node">
<title>bos.setup</title>
<ellipse fill="lightgrey" stroke="black" cx="258" cy="-283" rx="44.39" ry="18"/>
<text text-anchor="middle" x="258" y="-279.3" font-family="Times,serif" font-size="14.00">bos.setup</text>
</g>
<!-- bos.setup&#45;&gt;bos -->
<g id="edge6" class="edge">
<title>bos.setup&#45;&gt;bos</title>
<path fill="none" stroke="black" d="M256.3,-264.82C255.25,-254.19 253.88,-240.31 252.69,-228.2"/>
<polygon fill="black" stroke="black" points="256.16,-227.76 251.69,-218.15 249.19,-228.45 256.16,-227.76"/>
</g>
<!-- fmt.tty -->
<g id="node7" class="node">
<title>fmt.tty</title>
<ellipse fill="lightgrey" stroke="black" cx="51" cy="-200" rx="35.19" ry="18"/>
<text text-anchor="middle" x="51" y="-196.3" font-family="Times,serif" font-size="14.00">fmt.tty</text>
</g>
<!-- bos.setup&#45;&gt;fmt.tty -->
<g id="edge7" class="edge">
<title>bos.setup&#45;&gt;fmt.tty</title>
<path fill="none" stroke="black" d="M214.2,-279.88C180.63,-276.67 134.1,-268.7 98,-249 87.18,-243.1 77.29,-233.89 69.4,-225.11"/>
<polygon fill="black" stroke="black" points="71.89,-222.63 62.75,-217.28 66.55,-227.17 71.89,-222.63"/>
</g>
<!-- logs.fmt -->
<g id="node10" class="node">
<title>logs.fmt</title>
<ellipse fill="lightgrey" stroke="black" cx="150" cy="-200" rx="40.09" ry="18"/>
<text text-anchor="middle" x="150" y="-196.3" font-family="Times,serif" font-size="14.00">logs.fmt</text>
</g>
<!-- bos.setup&#45;&gt;logs.fmt -->
<g id="edge8" class="edge">
<title>bos.setup&#45;&gt;logs.fmt</title>
<path fill="none" stroke="black" d="M232.18,-268.32C222.43,-262.76 211.42,-256 202,-249 191.93,-241.52 181.62,-232.37 172.87,-224.08"/>
<polygon fill="black" stroke="black" points="175.24,-221.5 165.62,-217.07 170.38,-226.53 175.24,-221.5"/>
</g>
<!-- curly -->
<g id="node4" class="node">
<title>curly</title>
<ellipse fill="lightgrey" stroke="black" cx="358" cy="-532" rx="28.7" ry="18"/>
<text text-anchor="middle" x="358" y="-528.3" font-family="Times,serif" font-size="14.00">curly</text>
</g>
<!-- result -->
<g id="node18" class="node">
<title>result</title>
<ellipse fill="lightgrey" stroke="black" cx="299" cy="-449" rx="30.59" ry="18"/>
<text text-anchor="middle" x="299" y="-445.3" font-family="Times,serif" font-size="14.00">result</text>
</g>
<!-- curly&#45;&gt;result -->
<g id="edge9" class="edge">
<title>curly&#45;&gt;result</title>
<path fill="none" stroke="black" d="M346.62,-515.38C338.11,-503.69 326.3,-487.49 316.58,-474.13"/>
<polygon fill="black" stroke="black" points="319.26,-471.87 310.54,-465.85 313.6,-475.99 319.26,-471.87"/>
</g>
<!-- curly&#45;&gt;unix -->
<g id="edge10" class="edge">
<title>curly&#45;&gt;unix</title>
<path fill="none" stroke="black" d="M358,-513.76C358,-483.88 358,-420.53 358,-367 358,-367 358,-367 358,-282 358,-233.26 359.25,-219.39 377,-174 381.45,-162.63 388.36,-151.1 394.94,-141.49"/>
<polygon fill="black" stroke="black" points="397.85,-143.43 400.81,-133.26 392.15,-139.37 397.85,-143.43"/>
</g>
<!-- dune&#45;release -->
<g id="node5" class="node">
<title>dune&#45;release</title>
<ellipse fill="lightgrey" stroke="black" cx="412" cy="-615" rx="55.49" ry="18"/>
<text text-anchor="middle" x="412" y="-611.3" font-family="Times,serif" font-size="14.00">dune&#45;release</text>
</g>
<!-- dune&#45;release&#45;&gt;bos.setup -->
<g id="edge11" class="edge">
<title>dune&#45;release&#45;&gt;bos.setup</title>
<path fill="none" stroke="black" d="M366.75,-604.32C350.03,-599.25 331.61,-591.78 317,-581 280.16,-553.82 270.27,-541.5 256,-498 234.91,-433.7 244.84,-352.56 252.33,-311.1"/>
<polygon fill="black" stroke="black" points="255.78,-311.69 254.21,-301.21 248.9,-310.38 255.78,-311.69"/>
</g>
<!-- dune&#45;release&#45;&gt;curly -->
<g id="edge12" class="edge">
<title>dune&#45;release&#45;&gt;curly</title>
<path fill="none" stroke="black" d="M400.81,-597.22C393.13,-585.7 382.81,-570.22 374.23,-557.35"/>
<polygon fill="black" stroke="black" points="377.08,-555.31 368.62,-548.94 371.26,-559.2 377.08,-555.31"/>
</g>
<!-- opam&#45;state -->
<g id="node16" class="node">
<title>opam&#45;state</title>
<ellipse fill="lightgrey" stroke="black" cx="467" cy="-532" rx="50.09" ry="18"/>
<text text-anchor="middle" x="467" y="-528.3" font-family="Times,serif" font-size="14.00">opam&#45;state</text>
</g>
<!-- dune&#45;release&#45;&gt;opam&#45;state -->
<g id="edge13" class="edge">
<title>dune&#45;release&#45;&gt;opam&#45;state</title>
<path fill="none" stroke="black" d="M423.4,-597.22C431.07,-585.92 441.32,-570.83 449.95,-558.11"/>
<polygon fill="black" stroke="black" points="452.9,-560 455.62,-549.76 447.11,-556.07 452.9,-560"/>
</g>
<!-- yojson -->
<g id="node22" class="node">
<title>yojson</title>
<ellipse fill="lightgrey" stroke="black" cx="732" cy="-200" rx="34.39" ry="18"/>
<text text-anchor="middle" x="732" y="-196.3" font-family="Times,serif" font-size="14.00">yojson</text>
</g>
<!-- dune&#45;release&#45;&gt;yojson -->
<g id="edge14" class="edge">
<title>dune&#45;release&#45;&gt;yojson</title>
<path fill="none" stroke="black" d="M465.58,-610.34C556.21,-600.93 730,-567.56 730,-450 730,-450 730,-450 730,-365 730,-316.91 730.87,-260.88 731.46,-228.33"/>
<polygon fill="black" stroke="black" points="734.96,-228.3 731.65,-218.24 727.97,-228.17 734.96,-228.3"/>
</g>
<!-- fmt.tty&#45;&gt;fmt -->
<g id="edge15" class="edge">
<title>fmt.tty&#45;&gt;fmt</title>
<path fill="none" stroke="black" d="M52.7,-181.82C53.75,-171.19 55.12,-157.31 56.31,-145.2"/>
<polygon fill="black" stroke="black" points="59.81,-145.45 57.31,-135.15 52.84,-144.76 59.81,-145.45"/>
</g>
<!-- fmt.tty&#45;&gt;unix -->
<g id="edge16" class="edge">
<title>fmt.tty&#45;&gt;unix</title>
<path fill="none" stroke="black" d="M71.67,-185.36C79.57,-180.87 88.89,-176.41 98,-174 127.66,-166.15 346.49,-179.59 374,-166 384.21,-160.96 392.66,-151.85 399.05,-142.91"/>
<polygon fill="black" stroke="black" points="401.99,-144.82 404.54,-134.53 396.13,-140.98 401.99,-144.82"/>
</g>
<!-- fpath&#45;&gt;astring -->
<g id="edge17" class="edge">
<title>fpath&#45;&gt;astring</title>
<path fill="none" stroke="black" d="M243,-98.82C243,-88.19 243,-74.31 243,-62.2"/>
<polygon fill="black" stroke="black" points="246.5,-62.15 243,-52.15 239.5,-62.15 246.5,-62.15"/>
</g>
<!-- logs.fmt&#45;&gt;fmt -->
<g id="edge18" class="edge">
<title>logs.fmt&#45;&gt;fmt</title>
<path fill="none" stroke="black" d="M125.3,-185.57C116.25,-180.09 106.23,-173.32 98,-166 90.02,-158.9 82.36,-150.08 75.96,-141.93"/>
<polygon fill="black" stroke="black" points="78.63,-139.66 69.81,-133.8 73.05,-143.88 78.63,-139.66"/>
</g>
<!-- logs.fmt&#45;&gt;logs -->
<g id="edge19" class="edge">
<title>logs.fmt&#45;&gt;logs</title>
<path fill="none" stroke="black" d="M151.27,-181.82C152.06,-171.19 153.09,-157.31 153.98,-145.2"/>
<polygon fill="black" stroke="black" points="157.48,-145.38 154.73,-135.15 150.5,-144.87 157.48,-145.38"/>
</g>
<!-- ocamlgraph -->
<g id="node11" class="node">
<title>ocamlgraph</title>
<ellipse fill="lightgrey" stroke="black" cx="543" cy="-200" rx="52.79" ry="18"/>
<text text-anchor="middle" x="543" y="-196.3" font-family="Times,serif" font-size="14.00">ocamlgraph</text>
</g>
<!-- stdlib&#45;shims -->
<g id="node21" class="node">
<title>stdlib&#45;shims</title>
<ellipse fill="lightgrey" stroke="black" cx="544" cy="-117" rx="53.89" ry="18"/>
<text text-anchor="middle" x="544" y="-113.3" font-family="Times,serif" font-size="14.00">stdlib&#45;shims</text>
</g>
<!-- ocamlgraph&#45;&gt;stdlib&#45;shims -->
<g id="edge20" class="edge">
<title>ocamlgraph&#45;&gt;stdlib&#45;shims</title>
<path fill="none" stroke="black" d="M543.21,-181.82C543.34,-171.19 543.51,-157.31 543.66,-145.2"/>
<polygon fill="black" stroke="black" points="547.16,-145.2 543.79,-135.15 540.16,-145.11 547.16,-145.2"/>
</g>
<!-- opam&#45;core -->
<g id="node12" class="node">
<title>opam&#45;core</title>
<ellipse fill="lightgrey" stroke="black" cx="472" cy="-283" rx="48.99" ry="18"/>
<text text-anchor="middle" x="472" y="-279.3" font-family="Times,serif" font-size="14.00">opam&#45;core</text>
</g>
<!-- opam&#45;core&#45;&gt;ocamlgraph -->
<g id="edge21" class="edge">
<title>opam&#45;core&#45;&gt;ocamlgraph</title>
<path fill="none" stroke="black" d="M486.37,-265.61C496.57,-253.97 510.43,-238.16 521.89,-225.09"/>
<polygon fill="black" stroke="black" points="524.69,-227.19 528.65,-217.37 519.43,-222.58 524.69,-227.19"/>
</g>
<!-- re -->
<g id="node17" class="node">
<title>re</title>
<ellipse fill="lightgrey" stroke="black" cx="647" cy="-200" rx="27" ry="18"/>
<text text-anchor="middle" x="647" y="-196.3" font-family="Times,serif" font-size="14.00">re</text>
</g>
<!-- opam&#45;core&#45;&gt;re -->
<g id="edge22" class="edge">
<title>opam&#45;core&#45;&gt;re</title>
<path fill="none" stroke="black" d="M500.6,-268.33C510.64,-264.06 522.13,-259.75 533,-257 565.5,-248.78 578.54,-264.99 608,-249 617.91,-243.62 626.25,-234.58 632.64,-225.78"/>
<polygon fill="black" stroke="black" points="635.72,-227.48 638.37,-217.22 629.9,-223.58 635.72,-227.48"/>
</g>
<!-- bigarray -->
<g id="node23" class="node">
<title>bigarray</title>
<ellipse fill="lightgrey" stroke="black" cx="426" cy="-200" rx="40.09" ry="18"/>
<text text-anchor="middle" x="426" y="-196.3" font-family="Times,serif" font-size="14.00">bigarray</text>
</g>
<!-- opam&#45;core&#45;&gt;bigarray -->
<g id="edge23" class="edge">
<title>opam&#45;core&#45;&gt;bigarray</title>
<path fill="none" stroke="black" d="M462.47,-265.22C456.12,-254.03 447.65,-239.12 440.47,-226.48"/>
<polygon fill="black" stroke="black" points="443.5,-224.73 435.52,-217.76 437.41,-228.19 443.5,-224.73"/>
</g>
<!-- opam&#45;file&#45;format -->
<g id="node13" class="node">
<title>opam&#45;file&#45;format</title>
<ellipse fill="lightgrey" stroke="black" cx="617" cy="-283" rx="72.29" ry="18"/>
<text text-anchor="middle" x="617" y="-279.3" font-family="Times,serif" font-size="14.00">opam&#45;file&#45;format</text>
</g>
<!-- opam&#45;format -->
<g id="node14" class="node">
<title>opam&#45;format</title>
<ellipse fill="lightgrey" stroke="black" cx="472" cy="-366" rx="57.69" ry="18"/>
<text text-anchor="middle" x="472" y="-362.3" font-family="Times,serif" font-size="14.00">opam&#45;format</text>
</g>
<!-- opam&#45;format&#45;&gt;opam&#45;core -->
<g id="edge24" class="edge">
<title>opam&#45;format&#45;&gt;opam&#45;core</title>
<path fill="none" stroke="black" d="M472,-347.82C472,-337.19 472,-323.31 472,-311.2"/>
<polygon fill="black" stroke="black" points="475.5,-311.15 472,-301.15 468.5,-311.15 475.5,-311.15"/>
</g>
<!-- opam&#45;format&#45;&gt;opam&#45;file&#45;format -->
<g id="edge25" class="edge">
<title>opam&#45;format&#45;&gt;opam&#45;file&#45;format</title>
<path fill="none" stroke="black" d="M499.71,-350.19C510.17,-344.55 522.16,-338.03 533,-332 548.8,-323.21 566.17,-313.33 580.99,-304.82"/>
<polygon fill="black" stroke="black" points="582.93,-307.74 589.85,-299.73 579.44,-301.68 582.93,-307.74"/>
</g>
<!-- opam&#45;repository -->
<g id="node15" class="node">
<title>opam&#45;repository</title>
<ellipse fill="lightgrey" stroke="black" cx="469" cy="-449" rx="69.59" ry="18"/>
<text text-anchor="middle" x="469" y="-445.3" font-family="Times,serif" font-size="14.00">opam&#45;repository</text>
</g>
<!-- opam&#45;repository&#45;&gt;opam&#45;format -->
<g id="edge26" class="edge">
<title>opam&#45;repository&#45;&gt;opam&#45;format</title>
<path fill="none" stroke="black" d="M469.64,-430.82C470.03,-420.19 470.54,-406.31 470.99,-394.2"/>
<polygon fill="black" stroke="black" points="474.49,-394.28 471.36,-384.15 467.5,-394.02 474.49,-394.28"/>
</g>
<!-- opam&#45;state&#45;&gt;opam&#45;repository -->
<g id="edge27" class="edge">
<title>opam&#45;state&#45;&gt;opam&#45;repository</title>
<path fill="none" stroke="black" d="M467.42,-513.82C467.69,-503.19 468.03,-489.31 468.33,-477.2"/>
<polygon fill="black" stroke="black" points="471.83,-477.24 468.58,-467.15 464.83,-477.06 471.83,-477.24"/>
</g>
<!-- seq -->
<g id="node20" class="node">
<title>seq</title>
<ellipse fill="lightgrey" stroke="black" cx="690" cy="-117" rx="27" ry="18"/>
<text text-anchor="middle" x="690" y="-113.3" font-family="Times,serif" font-size="14.00">seq</text>
</g>
<!-- re&#45;&gt;seq -->
<g id="edge28" class="edge">
<title>re&#45;&gt;seq</title>
<path fill="none" stroke="black" d="M655.7,-182.61C661.74,-171.23 669.91,-155.85 676.75,-142.95"/>
<polygon fill="black" stroke="black" points="679.86,-144.56 681.46,-134.09 673.68,-141.28 679.86,-144.56"/>
</g>
<!-- yojson&#45;&gt;seq -->
<g id="edge29" class="edge">
<title>yojson&#45;&gt;seq</title>
<path fill="none" stroke="black" d="M723.3,-182.22C717.48,-170.99 709.71,-156.01 703.14,-143.34"/>
<polygon fill="black" stroke="black" points="706.12,-141.48 698.4,-134.21 699.9,-144.7 706.12,-141.48"/>
</g>
<!-- bigarray&#45;&gt;unix -->
<g id="edge30" class="edge">
<title>bigarray&#45;&gt;unix</title>
<path fill="none" stroke="black" d="M423.24,-181.82C421.54,-171.19 419.31,-157.31 417.37,-145.2"/>
<polygon fill="black" stroke="black" points="420.79,-144.47 415.75,-135.15 413.88,-145.58 420.79,-144.47"/>
</g>
</g>
</svg>
