<?xml version="1.0" encoding="UTF-8" standalone="no"?>
<!DOCTYPE svg PUBLIC "-//W3C//DTD SVG 1.1//EN"
 "http://www.w3.org/Graphics/SVG/1.1/DTD/svg11.dtd">
<!-- Generated by graphviz version 2.43.0 (0)
 -->
<!-- Title: G Pages: 1 -->
<svg width="793pt" height="680pt"
 viewBox="0.00 0.00 793.00 680.00" xmlns="http://www.w3.org/2000/svg" xmlns:xlink="http://www.w3.org/1999/xlink">
<g id="graph0" class="graph" transform="scale(1 1) rotate(0) translate(4 676)">
<title>G</title>
<polygon fill="white" stroke="transparent" points="-4,4 -4,-676 789,-676 789,4 -4,4"/>
<g id="clust1" class="cluster">
<title>cluster_1009034736</title>
<polygon fill="none" stroke="black" points="8,-91 8,-249 94,-249 94,-91 8,-91"/>
<text text-anchor="middle" x="51" y="-233.8" font-family="Times,serif" font-size="14.00">fmt 0.9.0</text>
</g>
<g id="clust2" class="cluster">
<title>cluster_1020731658</title>
<polygon fill="none" stroke="black" points="615,-174 615,-249 685,-249 685,-174 615,-174"/>
<text text-anchor="middle" x="650" y="-233.8" font-family="Times,serif" font-size="14.00">re 1.10.4</text>
</g>
<g id="clust3" class="cluster">
<title>cluster_129913994</title>
<polygon fill="none" stroke="black" points="381,-91 381,-249 477,-249 477,-91 381,-91"/>
<text text-anchor="middle" x="429" y="-233.8" font-family="Times,serif" font-size="14.00">(compiler)</text>
</g>
<g id="clust4" class="cluster">
<title>cluster_136087330</title>
<polygon fill="none" stroke="black" points="485,-174 485,-249 607,-249 607,-174 485,-174"/>
<text text-anchor="middle" x="546" y="-233.8" font-family="Times,serif" font-size="14.00">ocamlgraph 2.0.0</text>
</g>
<g id="clust5" class="cluster">
<title>cluster_154256618</title>
<polygon fill="none" stroke="black" points="323,-506 323,-581 399,-581 399,-506 323,-506"/>
<text text-anchor="middle" x="361" y="-565.8" font-family="Times,serif" font-size="14.00">curly 0.2.0</text>
</g>
<g id="clust6" class="cluster">
<title>cluster_267253855</title>
<polygon fill="none" stroke="black" points="409,-340 409,-415 541,-415 541,-340 409,-340"/>
<text text-anchor="middle" x="475" y="-399.8" font-family="Times,serif" font-size="14.00">opam&#45;format 2.1.4</text>
</g>
<g id="clust7" class="cluster">
<title>cluster_292359173</title>
<polygon fill="none" stroke="black" points="203,-8 203,-83 288,-83 288,-8 203,-8"/>
<text text-anchor="middle" x="245.5" y="-67.8" font-family="Times,serif" font-size="14.00">astring 0.8.5</text>
</g>
<g id="clust8" class="cluster">
<title>cluster_356529016</title>
<polygon fill="none" stroke="black" points="540,-257 540,-332 700,-332 700,-257 540,-257"/>
<text text-anchor="middle" x="620" y="-316.8" font-family="Times,serif" font-size="14.00">opam&#45;file&#45;format 2.1.5</text>
</g>
<g id="clust9" class="cluster">
<title>cluster_389527603</title>
<polygon fill="none" stroke="black" points="263,-423 263,-498 341,-498 341,-423 263,-423"/>
<text text-anchor="middle" x="302" y="-482.8" font-family="Times,serif" font-size="14.00">result 1.5</text>
</g>
<g id="clust10" class="cluster">
<title>cluster_414421865</title>
<polygon fill="none" stroke="black" points="394,-423 394,-498 550,-498 550,-423 394,-423"/>
<text text-anchor="middle" x="472" y="-482.8" font-family="Times,serif" font-size="14.00">opam&#45;repository 2.1.4</text>
</g>
<g id="clust11" class="cluster">
<title>cluster_438175530</title>
<polygon fill="none" stroke="black" points="206,-91 206,-166 282,-166 282,-91 206,-91"/>
<text text-anchor="middle" x="244" y="-150.8" font-family="Times,serif" font-size="14.00">fpath 0.7.3</text>
</g>
<g id="clust12" class="cluster">
<title>cluster_458205106</title>
<polygon fill="none" stroke="black" points="658,-91 658,-166 728,-166 728,-91 658,-91"/>
<text text-anchor="middle" x="693" y="-150.8" font-family="Times,serif" font-size="14.00">seq base</text>
</g>
<g id="clust13" class="cluster">
<title>cluster_56628632</title>
<polygon fill="none" stroke="black" points="693,-174 693,-249 777,-249 777,-174 693,-174"/>
<text text-anchor="middle" x="735" y="-233.8" font-family="Times,serif" font-size="14.00">yojson 2.0.2</text>
</g>
<g id="clust14" class="cluster">
<title>cluster_591990434</title>
<polygon fill="none" stroke="black" points="206,-174 206,-332 310,-332 310,-174 206,-174"/>
<text text-anchor="middle" x="258" y="-316.8" font-family="Times,serif" font-size="14.00">bos 0.2.1</text>
</g>
<g id="clust15" class="cluster">
<title>cluster_6178814</title>
<polygon fill="none" stroke="black" points="408,-506 408,-581 524,-581 524,-506 408,-506"/>
<text text-anchor="middle" x="466" y="-565.8" font-family="Times,serif" font-size="14.00">opam&#45;state 2.1.4</text>
</g>
<g id="clust16" class="cluster">
<title>cluster_747883779</title>
<polygon fill="none" stroke="black" points="485,-91 485,-166 609,-166 609,-91 485,-91"/>
<text text-anchor="middle" x="547" y="-150.8" font-family="Times,serif" font-size="14.00">stdlib&#45;shims 0.3.0</text>
</g>
<g id="clust17" class="cluster">
<title>cluster_766362805</title>
<polygon fill="none" stroke="black" points="290,-91 290,-166 373,-166 373,-91 290,-91"/>
<text text-anchor="middle" x="331.5" y="-150.8" font-family="Times,serif" font-size="14.00">rresult 0.7.0</text>
</g>
<g id="clust18" class="cluster">
<title>cluster_786384498</title>
<polygon fill="none" stroke="black" points="418,-257 418,-332 532,-332 532,-257 418,-257"/>
<text text-anchor="middle" x="475" y="-316.8" font-family="Times,serif" font-size="14.00">opam&#45;core 2.1.4</text>
</g>
<g id="clust19" class="cluster">
<title>cluster_903389259</title>
<polygon fill="none" stroke="black" points="102,-91 102,-249 198,-249 198,-91 102,-91"/>
<text text-anchor="middle" x="150" y="-233.8" font-family="Times,serif" font-size="14.00">logs 0.7.0</text>
</g>
<g id="clust20" class="cluster">
<title>cluster_956174373</title>
<polygon fill="none" stroke="black" points="350,-589 350,-664 476,-664 476,-589 350,-589"/>
<text text-anchor="middle" x="413" y="-648.8" font-family="Times,serif" font-size="14.00">dune&#45;release 1.6.2</text>
</g>
<!-- astring -->
<g id="node1" class="node">
<title>astring</title>
<ellipse fill="lightgrey" stroke="black" cx="245" cy="-34" rx="34.39" ry="18"/>
<text text-anchor="middle" x="245" y="-30.3" font-family="Times,serif" font-size="14.00">astring</text>
</g>
<!-- bos -->
<g id="node2" class="node">
<title>bos</title>
<ellipse fill="lightgrey" stroke="black" cx="251" cy="-200" rx="27" ry="18"/>
<text text-anchor="middle" x="251" y="-196.3" font-family="Times,serif" font-size="14.00">bos</text>
</g>
<!-- fmt -->
<g id="node6" class="node">
<title>fmt</title>
<ellipse fill="lightgrey" stroke="black" cx="59" cy="-117" rx="27" ry="18"/>
<text text-anchor="middle" x="59" y="-113.3" font-family="Times,serif" font-size="14.00">fmt</text>
</g>
<!-- bos&#45;&gt;fmt -->
<g id="edge1" class="edge">
<title>bos&#45;&gt;fmt</title>
<path fill="none" stroke="black" d="M231.7,-186.92C222.96,-182.04 212.3,-176.9 202,-174 179.69,-167.72 118.53,-176.76 98,-166 88.01,-160.77 79.66,-151.75 73.28,-142.94"/>
<polygon fill="black" stroke="black" points="76.01,-140.73 67.56,-134.34 70.18,-144.6 76.01,-140.73"/>
</g>
<!-- fpath -->
<g id="node8" class="node">
<title>fpath</title>
<ellipse fill="lightgrey" stroke="black" cx="245" cy="-117" rx="28.7" ry="18"/>
<text text-anchor="middle" x="245" y="-113.3" font-family="Times,serif" font-size="14.00">fpath</text>
</g>
<!-- bos&#45;&gt;fpath -->
<g id="edge2" class="edge">
<title>bos&#45;&gt;fpath</title>
<path fill="none" stroke="black" d="M249.73,-181.82C248.94,-171.19 247.91,-157.31 247.02,-145.2"/>
<polygon fill="black" stroke="black" points="250.5,-144.87 246.27,-135.15 243.52,-145.38 250.5,-144.87"/>
</g>
<!-- logs -->
<g id="node9" class="node">
<title>logs</title>
<ellipse fill="lightgrey" stroke="black" cx="156" cy="-117" rx="27" ry="18"/>
<text text-anchor="middle" x="156" y="-113.3" font-family="Times,serif" font-size="14.00">logs</text>
</g>
<!-- bos&#45;&gt;logs -->
<g id="edge3" class="edge">
<title>bos&#45;&gt;logs</title>
<path fill="none" stroke="black" d="M231.71,-187.36C222.39,-181.41 211.26,-173.79 202,-166 192.9,-158.34 183.67,-149.07 175.89,-140.72"/>
<polygon fill="black" stroke="black" points="178.25,-138.12 168.93,-133.09 173.08,-142.84 178.25,-138.12"/>
</g>
<!-- rresult -->
<g id="node19" class="node">
<title>rresult</title>
<ellipse fill="lightgrey" stroke="black" cx="331" cy="-117" rx="33.29" ry="18"/>
<text text-anchor="middle" x="331" y="-113.3" font-family="Times,serif" font-size="14.00">rresult</text>
</g>
<!-- bos&#45;&gt;rresult -->
<g id="edge4" class="edge">
<title>bos&#45;&gt;rresult</title>
<path fill="none" stroke="black" d="M266.18,-185.07C272.41,-179.26 279.63,-172.39 286,-166 293.98,-157.99 302.52,-149 309.99,-140.98"/>
<polygon fill="black" stroke="black" points="312.82,-143.08 317.05,-133.36 307.69,-138.32 312.82,-143.08"/>
</g>
<!-- unix -->
<g id="node24" class="node">
<title>unix</title>
<ellipse fill="lightgrey" stroke="black" cx="416" cy="-117" rx="27" ry="18"/>
<text text-anchor="middle" x="416" y="-113.3" font-family="Times,serif" font-size="14.00">unix</text>
</g>
<!-- bos&#45;&gt;unix -->
<g id="edge5" class="edge">
<title>bos&#45;&gt;unix</title>
<path fill="none" stroke="black" d="M275.76,-192.57C312.3,-183.06 376.46,-166.35 377,-166 386.34,-159.98 394.51,-150.98 400.92,-142.4"/>
<polygon fill="black" stroke="black" points="403.87,-144.28 406.72,-134.08 398.13,-140.28 403.87,-144.28"/>
</g>
<!-- bos.setup -->
<g id="node3" class="node">
<title>bos.setup</title>
<ellipse fill="lightgrey" stroke="black" cx="258" cy="-283" rx="44.39" ry="18"/>
<text text-anchor="middle" x="258" y="-279.3" font-family="Times,serif" font-size="14.00">bos.setup</text>
</g>
<!-- bos.setup&#45;&gt;bos -->
<g id="edge6" class="edge">
<title>bos.setup&#45;&gt;bos</title>
<path fill="none" stroke="black" d="M256.52,-264.82C255.6,-254.19 254.4,-240.31 253.35,-228.2"/>
<polygon fill="black" stroke="black" points="256.83,-227.81 252.48,-218.15 249.86,-228.42 256.83,-227.81"/>
</g>
<!-- fmt.tty -->
<g id="node7" class="node">
<title>fmt.tty</title>
<ellipse fill="lightgrey" stroke="black" cx="51" cy="-200" rx="35.19" ry="18"/>
<text text-anchor="middle" x="51" y="-196.3" font-family="Times,serif" font-size="14.00">fmt.tty</text>
</g>
<!-- bos.setup&#45;&gt;fmt.tty -->
<g id="edge7" class="edge">
<title>bos.setup&#45;&gt;fmt.tty</title>
<path fill="none" stroke="black" d="M214.2,-279.88C180.63,-276.67 134.1,-268.7 98,-249 87.18,-243.1 77.29,-233.89 69.4,-225.11"/>
<polygon fill="black" stroke="black" points="71.89,-222.63 62.75,-217.28 66.55,-227.17 71.89,-222.63"/>
</g>
<!-- logs.fmt -->
<g id="node10" class="node">
<title>logs.fmt</title>
<ellipse fill="lightgrey" stroke="black" cx="150" cy="-200" rx="40.09" ry="18"/>
<text text-anchor="middle" x="150" y="-196.3" font-family="Times,serif" font-size="14.00">logs.fmt</text>
</g>
<!-- bos.setup&#45;&gt;logs.fmt -->
<g id="edge8" class="edge">
<title>bos.setup&#45;&gt;logs.fmt</title>
<path fill="none" stroke="black" d="M232.18,-268.32C222.43,-262.76 211.42,-256 202,-249 191.93,-241.52 181.62,-232.37 172.87,-224.08"/>
<polygon fill="black" stroke="black" points="175.24,-221.5 165.62,-217.07 170.38,-226.53 175.24,-221.5"/>
</g>
<!-- curly -->
<g id="node4" class="node">
<title>curly</title>
<ellipse fill="lightgrey" stroke="black" cx="361" cy="-532" rx="28.7" ry="18"/>
<text text-anchor="middle" x="361" y="-528.3" font-family="Times,serif" font-size="14.00">curly</text>
</g>
<!-- result -->
<g id="node18" class="node">
<title>result</title>
<ellipse fill="lightgrey" stroke="black" cx="302" cy="-449" rx="30.59" ry="18"/>
<text text-anchor="middle" x="302" y="-445.3" font-family="Times,serif" font-size="14.00">result</text>
</g>
<!-- curly&#45;&gt;result -->
<g id="edge9" class="edge">
<title>curly&#45;&gt;result</title>
<path fill="none" stroke="black" d="M349.62,-515.38C341.11,-503.69 329.3,-487.49 319.58,-474.13"/>
<polygon fill="black" stroke="black" points="322.26,-471.87 313.54,-465.85 316.6,-475.99 322.26,-471.87"/>
</g>
<!-- curly&#45;&gt;unix -->
<g id="edge10" class="edge">
<title>curly&#45;&gt;unix</title>
<path fill="none" stroke="black" d="M361,-513.76C361,-483.88 361,-420.53 361,-367 361,-367 361,-367 361,-282 361,-233.26 362.25,-219.39 380,-174 384.45,-162.63 391.36,-151.1 397.94,-141.49"/>
<polygon fill="black" stroke="black" points="400.85,-143.43 403.81,-133.26 395.15,-139.37 400.85,-143.43"/>
</g>
<!-- dune&#45;release -->
<g id="node5" class="node">
<title>dune&#45;release</title>
<ellipse fill="lightgrey" stroke="black" cx="413" cy="-615" rx="55.49" ry="18"/>
<text text-anchor="middle" x="413" y="-611.3" font-family="Times,serif" font-size="14.00">dune&#45;release</text>
</g>
<!-- dune&#45;release&#45;&gt;bos.setup -->
<g id="edge11" class="edge">
<title>dune&#45;release&#45;&gt;bos.setup</title>
<path fill="none" stroke="black" d="M368.18,-604.29C351.63,-599.22 333.41,-591.76 319,-581 282.52,-553.77 273.12,-541.27 259,-498 238.01,-433.66 246.39,-352.54 252.96,-311.09"/>
<polygon fill="black" stroke="black" points="256.42,-311.65 254.62,-301.21 249.51,-310.49 256.42,-311.65"/>
</g>
<!-- dune&#45;release&#45;&gt;curly -->
<g id="edge12" class="edge">
<title>dune&#45;release&#45;&gt;curly</title>
<path fill="none" stroke="black" d="M402.23,-597.22C394.9,-585.81 385.09,-570.52 376.87,-557.72"/>
<polygon fill="black" stroke="black" points="379.58,-555.46 371.23,-548.94 373.69,-559.24 379.58,-555.46"/>
</g>
<!-- opam&#45;state -->
<g id="node16" class="node">
<title>opam&#45;state</title>
<ellipse fill="lightgrey" stroke="black" cx="466" cy="-532" rx="50.09" ry="18"/>
<text text-anchor="middle" x="466" y="-528.3" font-family="Times,serif" font-size="14.00">opam&#45;state</text>
</g>
<!-- dune&#45;release&#45;&gt;opam&#45;state -->
<g id="edge13" class="edge">
<title>dune&#45;release&#45;&gt;opam&#45;state</title>
<path fill="none" stroke="black" d="M423.98,-597.22C431.3,-586.03 441.06,-571.12 449.33,-558.48"/>
<polygon fill="black" stroke="black" points="452.49,-560.05 455.03,-549.76 446.63,-556.21 452.49,-560.05"/>
</g>
<!-- yojson -->
<g id="node22" class="node">
<title>yojson</title>
<ellipse fill="lightgrey" stroke="black" cx="735" cy="-200" rx="34.39" ry="18"/>
<text text-anchor="middle" x="735" y="-196.3" font-family="Times,serif" font-size="14.00">yojson</text>
</g>
<!-- dune&#45;release&#45;&gt;yojson -->
<g id="edge14" class="edge">
<title>dune&#45;release&#45;&gt;yojson</title>
<path fill="none" stroke="black" d="M466.56,-610.5C557.66,-601.32 733,-568.3 733,-450 733,-450 733,-450 733,-365 733,-316.91 733.87,-260.88 734.46,-228.33"/>
<polygon fill="black" stroke="black" points="737.96,-228.3 734.65,-218.24 730.97,-228.17 737.96,-228.3"/>
</g>
<!-- fmt.tty&#45;&gt;fmt -->
<g id="edge15" class="edge">
<title>fmt.tty&#45;&gt;fmt</title>
<path fill="none" stroke="black" d="M52.7,-181.82C53.75,-171.19 55.12,-157.31 56.31,-145.2"/>
<polygon fill="black" stroke="black" points="59.81,-145.45 57.31,-135.15 52.84,-144.76 59.81,-145.45"/>
</g>
<!-- fmt.tty&#45;&gt;unix -->
<g id="edge16" class="edge">
<title>fmt.tty&#45;&gt;unix</title>
<path fill="none" stroke="black" d="M71.67,-185.36C79.57,-180.87 88.89,-176.41 98,-174 127.98,-166.06 349.19,-179.73 377,-166 387.21,-160.96 395.66,-151.85 402.05,-142.91"/>
<polygon fill="black" stroke="black" points="404.99,-144.82 407.54,-134.54 399.13,-140.98 404.99,-144.82"/>
</g>
<!-- fpath&#45;&gt;astring -->
<g id="edge17" class="edge">
<title>fpath&#45;&gt;astring</title>
<path fill="none" stroke="black" d="M245,-98.82C245,-88.19 245,-74.31 245,-62.2"/>
<polygon fill="black" stroke="black" points="248.5,-62.15 245,-52.15 241.5,-62.15 248.5,-62.15"/>
</g>
<!-- logs.fmt&#45;&gt;fmt -->
<g id="edge18" class="edge">
<title>logs.fmt&#45;&gt;fmt</title>
<path fill="none" stroke="black" d="M125.3,-185.57C116.25,-180.09 106.23,-173.32 98,-166 90.02,-158.9 82.36,-150.08 75.96,-141.93"/>
<polygon fill="black" stroke="black" points="78.63,-139.66 69.81,-133.8 73.05,-143.88 78.63,-139.66"/>
</g>
<!-- logs.fmt&#45;&gt;logs -->
<g id="edge19" class="edge">
<title>logs.fmt&#45;&gt;logs</title>
<path fill="none" stroke="black" d="M151.27,-181.82C152.06,-171.19 153.09,-157.31 153.98,-145.2"/>
<polygon fill="black" stroke="black" points="157.48,-145.38 154.73,-135.15 150.5,-144.87 157.48,-145.38"/>
</g>
<!-- ocamlgraph -->
<g id="node11" class="node">
<title>ocamlgraph</title>
<ellipse fill="lightgrey" stroke="black" cx="546" cy="-200" rx="52.79" ry="18"/>
<text text-anchor="middle" x="546" y="-196.3" font-family="Times,serif" font-size="14.00">ocamlgraph</text>
</g>
<!-- stdlib&#45;shims -->
<g id="node21" class="node">
<title>stdlib&#45;shims</title>
<ellipse fill="lightgrey" stroke="black" cx="547" cy="-117" rx="53.89" ry="18"/>
<text text-anchor="middle" x="547" y="-113.3" font-family="Times,serif" font-size="14.00">stdlib&#45;shims</text>
</g>
<!-- ocamlgraph&#45;&gt;stdlib&#45;shims -->
<g id="edge20" class="edge">
<title>ocamlgraph&#45;&gt;stdlib&#45;shims</title>
<path fill="none" stroke="black" d="M546.21,-181.82C546.34,-171.19 546.51,-157.31 546.66,-145.2"/>
<polygon fill="black" stroke="black" points="550.16,-145.2 546.79,-135.15 543.16,-145.11 550.16,-145.2"/>
</g>
<!-- opam&#45;core -->
<g id="node12" class="node">
<title>opam&#45;core</title>
<ellipse fill="lightgrey" stroke="black" cx="475" cy="-283" rx="48.99" ry="18"/>
<text text-anchor="middle" x="475" y="-279.3" font-family="Times,serif" font-size="14.00">opam&#45;core</text>
</g>
<!-- opam&#45;core&#45;&gt;ocamlgraph -->
<g id="edge21" class="edge">
<title>opam&#45;core&#45;&gt;ocamlgraph</title>
<path fill="none" stroke="black" d="M489.37,-265.61C499.57,-253.97 513.43,-238.16 524.89,-225.09"/>
<polygon fill="black" stroke="black" points="527.69,-227.19 531.65,-217.37 522.43,-222.58 527.69,-227.19"/>
</g>
<!-- re -->
<g id="node17" class="node">
<title>re</title>
<ellipse fill="lightgrey" stroke="black" cx="650" cy="-200" rx="27" ry="18"/>
<text text-anchor="middle" x="650" y="-196.3" font-family="Times,serif" font-size="14.00">re</text>
</g>
<!-- opam&#45;core&#45;&gt;re -->
<g id="edge22" class="edge">
<title>opam&#45;core&#45;&gt;re</title>
<path fill="none" stroke="black" d="M503.6,-268.33C513.64,-264.06 525.13,-259.75 536,-257 568.5,-248.78 581.54,-264.99 611,-249 620.91,-243.62 629.25,-234.58 635.64,-225.78"/>
<polygon fill="black" stroke="black" points="638.72,-227.48 641.37,-217.22 632.9,-223.58 638.72,-227.48"/>
</g>
<!-- bigarray -->
<g id="node23" class="node">
<title>bigarray</title>
<ellipse fill="lightgrey" stroke="black" cx="429" cy="-200" rx="40.09" ry="18"/>
<text text-anchor="middle" x="429" y="-196.3" font-family="Times,serif" font-size="14.00">bigarray</text>
</g>
<!-- opam&#45;core&#45;&gt;bigarray -->
<g id="edge23" class="edge">
<title>opam&#45;core&#45;&gt;bigarray</title>
<path fill="none" stroke="black" d="M465.47,-265.22C459.12,-254.03 450.65,-239.12 443.47,-226.48"/>
<polygon fill="black" stroke="black" points="446.5,-224.73 438.52,-217.76 440.41,-228.19 446.5,-224.73"/>
</g>
<!-- opam&#45;file&#45;format -->
<g id="node13" class="node">
<title>opam&#45;file&#45;format</title>
<ellipse fill="lightgrey" stroke="black" cx="620" cy="-283" rx="72.29" ry="18"/>
<text text-anchor="middle" x="620" y="-279.3" font-family="Times,serif" font-size="14.00">opam&#45;file&#45;format</text>
</g>
<!-- opam&#45;format -->
<g id="node14" class="node">
<title>opam&#45;format</title>
<ellipse fill="lightgrey" stroke="black" cx="475" cy="-366" rx="57.69" ry="18"/>
<text text-anchor="middle" x="475" y="-362.3" font-family="Times,serif" font-size="14.00">opam&#45;format</text>
</g>
<!-- opam&#45;format&#45;&gt;opam&#45;core -->
<g id="edge24" class="edge">
<title>opam&#45;format&#45;&gt;opam&#45;core</title>
<path fill="none" stroke="black" d="M475,-347.82C475,-337.19 475,-323.31 475,-311.2"/>
<polygon fill="black" stroke="black" points="478.5,-311.15 475,-301.15 471.5,-311.15 478.5,-311.15"/>
</g>
<!-- opam&#45;format&#45;&gt;opam&#45;file&#45;format -->
<g id="edge25" class="edge">
<title>opam&#45;format&#45;&gt;opam&#45;file&#45;format</title>
<path fill="none" stroke="black" d="M502.71,-350.19C513.17,-344.55 525.16,-338.03 536,-332 551.8,-323.21 569.17,-313.33 583.99,-304.82"/>
<polygon fill="black" stroke="black" points="585.93,-307.74 592.85,-299.73 582.44,-301.68 585.93,-307.74"/>
</g>
<!-- opam&#45;repository -->
<g id="node15" class="node">
<title>opam&#45;repository</title>
<ellipse fill="lightgrey" stroke="black" cx="472" cy="-449" rx="69.59" ry="18"/>
<text text-anchor="middle" x="472" y="-445.3" font-family="Times,serif" font-size="14.00">opam&#45;repository</text>
</g>
<!-- opam&#45;repository&#45;&gt;opam&#45;format -->
<g id="edge26" class="edge">
<title>opam&#45;repository&#45;&gt;opam&#45;format</title>
<path fill="none" stroke="black" d="M472.64,-430.82C473.03,-420.19 473.54,-406.31 473.99,-394.2"/>
<polygon fill="black" stroke="black" points="477.49,-394.28 474.36,-384.15 470.5,-394.02 477.49,-394.28"/>
</g>
<!-- opam&#45;state&#45;&gt;opam&#45;repository -->
<g id="edge27" class="edge">
<title>opam&#45;state&#45;&gt;opam&#45;repository</title>
<path fill="none" stroke="black" d="M467.27,-513.82C468.06,-503.19 469.09,-489.31 469.98,-477.2"/>
<polygon fill="black" stroke="black" points="473.48,-477.38 470.73,-467.15 466.5,-476.87 473.48,-477.38"/>
</g>
<!-- seq -->
<g id="node20" class="node">
<title>seq</title>
<ellipse fill="lightgrey" stroke="black" cx="693" cy="-117" rx="27" ry="18"/>
<text text-anchor="middle" x="693" y="-113.3" font-family="Times,serif" font-size="14.00">seq</text>
</g>
<!-- re&#45;&gt;seq -->
<g id="edge28" class="edge">
<title>re&#45;&gt;seq</title>
<path fill="none" stroke="black" d="M658.7,-182.61C664.74,-171.23 672.91,-155.85 679.75,-142.95"/>
<polygon fill="black" stroke="black" points="682.86,-144.56 684.46,-134.09 676.68,-141.28 682.86,-144.56"/>
</g>
<!-- yojson&#45;&gt;seq -->
<g id="edge29" class="edge">
<title>yojson&#45;&gt;seq</title>
<path fill="none" stroke="black" d="M726.3,-182.22C720.48,-170.99 712.71,-156.01 706.14,-143.34"/>
<polygon fill="black" stroke="black" points="709.12,-141.48 701.4,-134.21 702.9,-144.7 709.12,-141.48"/>
</g>
<!-- bigarray&#45;&gt;unix -->
<g id="edge30" class="edge">
<title>bigarray&#45;&gt;unix</title>
<path fill="none" stroke="black" d="M426.24,-181.82C424.54,-171.19 422.31,-157.31 420.37,-145.2"/>
<polygon fill="black" stroke="black" points="423.79,-144.47 418.75,-135.15 416.88,-145.58 423.79,-144.47"/>
</g>
</g>
</svg>
