<?xml version="1.0" encoding="UTF-8" standalone="no"?>
<!DOCTYPE svg PUBLIC "-//W3C//DTD SVG 1.1//EN"
 "http://www.w3.org/Graphics/SVG/1.1/DTD/svg11.dtd">
<!-- Generated by graphviz version 2.43.0 (0)
 -->
<!-- Title: G Pages: 1 -->
<svg width="1153pt" height="597pt"
 viewBox="0.00 0.00 1153.00 597.00" xmlns="http://www.w3.org/2000/svg" xmlns:xlink="http://www.w3.org/1999/xlink">
<g id="graph0" class="graph" transform="scale(1 1) rotate(0) translate(4 593)">
<title>G</title>
<polygon fill="white" stroke="transparent" points="-4,4 -4,-593 1149,-593 1149,4 -4,4"/>
<g id="clust1" class="cluster">
<title>cluster_1013117970</title>
<polygon fill="none" stroke="black" points="439,-423 439,-498 515,-498 515,-423 439,-423"/>
<text text-anchor="middle" x="477" y="-482.8" font-family="Times,serif" font-size="14.00">curly 0.3.0</text>
</g>
<g id="clust2" class="cluster">
<title>cluster_102480166</title>
<polygon fill="none" stroke="black" points="539,-257 539,-332 671,-332 671,-257 539,-257"/>
<text text-anchor="middle" x="605" y="-316.8" font-family="Times,serif" font-size="14.00">opam&#45;format 2.4.0</text>
</g>
<g id="clust3" class="cluster">
<title>cluster_129913994</title>
<polygon fill="none" stroke="black" points="381,-91 381,-166 455,-166 455,-91 381,-91"/>
<text text-anchor="middle" x="418" y="-150.8" font-family="Times,serif" font-size="14.00">(compiler)</text>
</g>
<g id="clust4" class="cluster">
<title>cluster_131039579</title>
<polygon fill="none" stroke="black" points="799,-8 799,-83 869,-83 869,-8 799,-8"/>
<text text-anchor="middle" x="834" y="-67.8" font-family="Times,serif" font-size="14.00">uutf 1.0.4</text>
</g>
<g id="clust5" class="cluster">
<title>cluster_213154168</title>
<polygon fill="none" stroke="black" points="476,-506 476,-581 602,-581 602,-506 476,-506"/>
<text text-anchor="middle" x="539" y="-565.8" font-family="Times,serif" font-size="14.00">dune&#45;release 2.1.0</text>
</g>
<g id="clust6" class="cluster">
<title>cluster_247067125</title>
<polygon fill="none" stroke="black" points="699,-174 699,-249 813,-249 813,-174 699,-174"/>
<text text-anchor="middle" x="756" y="-233.8" font-family="Times,serif" font-size="14.00">opam&#45;core 2.4.0</text>
</g>
<g id="clust7" class="cluster">
<title>cluster_292359173</title>
<polygon fill="none" stroke="black" points="292,-8 292,-83 377,-83 377,-8 292,-8"/>
<text text-anchor="middle" x="334.5" y="-67.8" font-family="Times,serif" font-size="14.00">astring 0.8.5</text>
</g>
<g id="clust8" class="cluster">
<title>cluster_349241649</title>
<polygon fill="none" stroke="black" points="804,-91 804,-166 886,-166 886,-91 804,-91"/>
<text text-anchor="middle" x="845" y="-150.8" font-family="Times,serif" font-size="14.00">jsonm 1.0.2</text>
</g>
<g id="clust9" class="cluster">
<title>cluster_381082807</title>
<polygon fill="none" stroke="black" points="525,-174 525,-249 685,-249 685,-174 525,-174"/>
<text text-anchor="middle" x="605" y="-233.8" font-family="Times,serif" font-size="14.00">opam&#45;file&#45;format 2.2.0</text>
</g>
<g id="clust10" class="cluster">
<title>cluster_389527603</title>
<polygon fill="none" stroke="black" points="438,-340 438,-415 516,-415 516,-340 438,-340"/>
<text text-anchor="middle" x="477" y="-399.8" font-family="Times,serif" font-size="14.00">result 1.5</text>
</g>
<g id="clust11" class="cluster">
<title>cluster_423149259</title>
<polygon fill="none" stroke="black" points="112,-91 112,-249 198,-249 198,-91 112,-91"/>
<text text-anchor="middle" x="155" y="-233.8" font-family="Times,serif" font-size="14.00">fmt 0.10.0</text>
</g>
<g id="clust12" class="cluster">
<title>cluster_431295198</title>
<polygon fill="none" stroke="black" points="894,-91 894,-166 967,-166 967,-91 894,-91"/>
<text text-anchor="middle" x="930.5" y="-150.8" font-family="Times,serif" font-size="14.00">sha 1.15.4</text>
</g>
<g id="clust13" class="cluster">
<title>cluster_438175530</title>
<polygon fill="none" stroke="black" points="297,-91 297,-166 373,-166 373,-91 297,-91"/>
<text text-anchor="middle" x="335" y="-150.8" font-family="Times,serif" font-size="14.00">fpath 0.7.3</text>
</g>
<g id="clust14" class="cluster">
<title>cluster_458205106</title>
<polygon fill="none" stroke="black" points="1039,-8 1039,-83 1109,-83 1109,-8 1039,-8"/>
<text text-anchor="middle" x="1074" y="-67.8" font-family="Times,serif" font-size="14.00">seq base</text>
</g>
<g id="clust15" class="cluster">
<title>cluster_497614195</title>
<polygon fill="none" stroke="black" points="524,-340 524,-415 680,-415 680,-340 524,-340"/>
<text text-anchor="middle" x="602" y="-399.8" font-family="Times,serif" font-size="14.00">opam&#45;repository 2.4.0</text>
</g>
<g id="clust16" class="cluster">
<title>cluster_510801370</title>
<polygon fill="none" stroke="black" points="8,-91 8,-249 104,-249 104,-91 8,-91"/>
<text text-anchor="middle" x="56" y="-233.8" font-family="Times,serif" font-size="14.00">logs 0.9.0</text>
</g>
<g id="clust17" class="cluster">
<title>cluster_515813516</title>
<polygon fill="none" stroke="black" points="589,-91 589,-166 711,-166 711,-91 589,-91"/>
<text text-anchor="middle" x="650" y="-150.8" font-family="Times,serif" font-size="14.00">ocamlgraph 2.2.0</text>
</g>
<g id="clust18" class="cluster">
<title>cluster_591990434</title>
<polygon fill="none" stroke="black" points="206,-174 206,-332 310,-332 310,-174 206,-174"/>
<text text-anchor="middle" x="258" y="-316.8" font-family="Times,serif" font-size="14.00">bos 0.2.1</text>
</g>
<g id="clust19" class="cluster">
<title>cluster_690569475</title>
<polygon fill="none" stroke="black" points="1053,-91 1053,-166 1137,-166 1137,-91 1053,-91"/>
<text text-anchor="middle" x="1095" y="-150.8" font-family="Times,serif" font-size="14.00">yojson 2.2.2</text>
</g>
<g id="clust20" class="cluster">
<title>cluster_747883779</title>
<polygon fill="none" stroke="black" points="877,-8 877,-83 1001,-83 1001,-8 877,-8"/>
<text text-anchor="middle" x="939" y="-67.8" font-family="Times,serif" font-size="14.00">stdlib&#45;shims 0.3.0</text>
</g>
<g id="clust21" class="cluster">
<title>cluster_765420893</title>
<polygon fill="none" stroke="black" points="719,-91 719,-166 796,-166 796,-91 719,-91"/>
<text text-anchor="middle" x="757.5" y="-150.8" font-family="Times,serif" font-size="14.00">patch 3.0.0</text>
</g>
<g id="clust22" class="cluster">
<title>cluster_766362805</title>
<polygon fill="none" stroke="black" points="206,-91 206,-166 289,-166 289,-91 206,-91"/>
<text text-anchor="middle" x="247.5" y="-150.8" font-family="Times,serif" font-size="14.00">rresult 0.7.0</text>
</g>
<g id="clust23" class="cluster">
<title>cluster_784829750</title>
<polygon fill="none" stroke="black" points="975,-91 975,-166 1045,-166 1045,-91 975,-91"/>
<text text-anchor="middle" x="1010" y="-150.8" font-family="Times,serif" font-size="14.00">re 1.13.2</text>
</g>
<g id="clust24" class="cluster">
<title>cluster_878175101</title>
<polygon fill="none" stroke="black" points="688,-340 688,-415 824,-415 824,-340 688,-340"/>
<text text-anchor="middle" x="756" y="-399.8" font-family="Times,serif" font-size="14.00">spdx_licenses 1.4.0</text>
</g>
<g id="clust25" class="cluster">
<title>cluster_8846408</title>
<polygon fill="none" stroke="black" points="544,-423 544,-498 660,-498 660,-423 544,-423"/>
<text text-anchor="middle" x="602" y="-482.8" font-family="Times,serif" font-size="14.00">opam&#45;state 2.4.0</text>
</g>
<g id="clust26" class="cluster">
<title>cluster_967655810</title>
<polygon fill="none" stroke="black" points="463,-91 463,-166 581,-166 581,-91 463,-91"/>
<text text-anchor="middle" x="522" y="-150.8" font-family="Times,serif" font-size="14.00">swhid_core 0.1</text>
</g>
<!-- astring -->
<g id="node1" class="node">
<title>astring</title>
<ellipse fill="lightgrey" stroke="black" cx="334" cy="-34" rx="34.39" ry="18"/>
<text text-anchor="middle" x="334" y="-30.3" font-family="Times,serif" font-size="14.00">astring</text>
</g>
<!-- bos -->
<g id="node2" class="node">
<title>bos</title>
<ellipse fill="lightgrey" stroke="black" cx="253" cy="-200" rx="27" ry="18"/>
<text text-anchor="middle" x="253" y="-196.3" font-family="Times,serif" font-size="14.00">bos</text>
</g>
<!-- fmt -->
<g id="node6" class="node">
<title>fmt</title>
<ellipse fill="lightgrey" stroke="black" cx="155" cy="-117" rx="27" ry="18"/>
<text text-anchor="middle" x="155" y="-113.3" font-family="Times,serif" font-size="14.00">fmt</text>
</g>
<!-- bos&#45;&gt;fmt -->
<g id="edge1" class="edge">
<title>bos&#45;&gt;fmt</title>
<path fill="none" stroke="black" d="M232.92,-187.43C223.22,-181.5 211.64,-173.87 202,-166 192.6,-158.32 183.07,-148.94 175.07,-140.52"/>
<polygon fill="black" stroke="black" points="177.58,-138.08 168.2,-133.14 172.45,-142.84 177.58,-138.08"/>
</g>
<!-- fpath -->
<g id="node8" class="node">
<title>fpath</title>
<ellipse fill="lightgrey" stroke="black" cx="334" cy="-117" rx="28.7" ry="18"/>
<text text-anchor="middle" x="334" y="-113.3" font-family="Times,serif" font-size="14.00">fpath</text>
</g>
<!-- bos&#45;&gt;fpath -->
<g id="edge2" class="edge">
<title>bos&#45;&gt;fpath</title>
<path fill="none" stroke="black" d="M270.3,-185.82C277.56,-180.01 285.94,-172.94 293,-166 300.66,-158.47 308.46,-149.68 315.17,-141.69"/>
<polygon fill="black" stroke="black" points="318.06,-143.68 321.72,-133.74 312.66,-139.23 318.06,-143.68"/>
</g>
<!-- logs -->
<g id="node10" class="node">
<title>logs</title>
<ellipse fill="lightgrey" stroke="black" cx="62" cy="-117" rx="27" ry="18"/>
<text text-anchor="middle" x="62" y="-113.3" font-family="Times,serif" font-size="14.00">logs</text>
</g>
<!-- bos&#45;&gt;logs -->
<g id="edge3" class="edge">
<title>bos&#45;&gt;logs</title>
<path fill="none" stroke="black" d="M233.33,-187.23C224.13,-182.29 212.83,-177 202,-174 161.59,-162.8 145.83,-184.08 108,-166 96.56,-160.53 86.47,-150.92 78.68,-141.73"/>
<polygon fill="black" stroke="black" points="81.4,-139.53 72.44,-133.87 75.92,-143.88 81.4,-139.53"/>
</g>
<!-- rresult -->
<g id="node21" class="node">
<title>rresult</title>
<ellipse fill="lightgrey" stroke="black" cx="248" cy="-117" rx="33.29" ry="18"/>
<text text-anchor="middle" x="248" y="-113.3" font-family="Times,serif" font-size="14.00">rresult</text>
</g>
<!-- bos&#45;&gt;rresult -->
<g id="edge4" class="edge">
<title>bos&#45;&gt;rresult</title>
<path fill="none" stroke="black" d="M251.94,-181.82C251.28,-171.19 250.43,-157.31 249.68,-145.2"/>
<polygon fill="black" stroke="black" points="253.17,-144.92 249.06,-135.15 246.18,-145.35 253.17,-144.92"/>
</g>
<!-- unix -->
<g id="node29" class="node">
<title>unix</title>
<ellipse fill="lightgrey" stroke="black" cx="417" cy="-117" rx="27" ry="18"/>
<text text-anchor="middle" x="417" y="-113.3" font-family="Times,serif" font-size="14.00">unix</text>
</g>
<!-- bos&#45;&gt;unix -->
<g id="edge5" class="edge">
<title>bos&#45;&gt;unix</title>
<path fill="none" stroke="black" d="M279.56,-196.65C306.03,-193.27 346.95,-185.18 377,-166 386.46,-159.96 394.81,-150.96 401.4,-142.38"/>
<polygon fill="black" stroke="black" points="404.39,-144.22 407.38,-134.06 398.7,-140.14 404.39,-144.22"/>
</g>
<!-- bos.setup -->
<g id="node3" class="node">
<title>bos.setup</title>
<ellipse fill="lightgrey" stroke="black" cx="258" cy="-283" rx="44.39" ry="18"/>
<text text-anchor="middle" x="258" y="-279.3" font-family="Times,serif" font-size="14.00">bos.setup</text>
</g>
<!-- bos.setup&#45;&gt;bos -->
<g id="edge6" class="edge">
<title>bos.setup&#45;&gt;bos</title>
<path fill="none" stroke="black" d="M256.94,-264.82C256.28,-254.19 255.43,-240.31 254.68,-228.2"/>
<polygon fill="black" stroke="black" points="258.17,-227.92 254.06,-218.15 251.18,-228.35 258.17,-227.92"/>
</g>
<!-- fmt.tty -->
<g id="node7" class="node">
<title>fmt.tty</title>
<ellipse fill="lightgrey" stroke="black" cx="155" cy="-200" rx="35.19" ry="18"/>
<text text-anchor="middle" x="155" y="-196.3" font-family="Times,serif" font-size="14.00">fmt.tty</text>
</g>
<!-- bos.setup&#45;&gt;fmt.tty -->
<g id="edge7" class="edge">
<title>bos.setup&#45;&gt;fmt.tty</title>
<path fill="none" stroke="black" d="M231.71,-268.41C222.01,-262.91 211.15,-256.17 202,-249 192.58,-241.62 183.16,-232.45 175.26,-224.11"/>
<polygon fill="black" stroke="black" points="177.82,-221.72 168.46,-216.75 172.68,-226.47 177.82,-221.72"/>
</g>
<!-- logs.fmt -->
<g id="node11" class="node">
<title>logs.fmt</title>
<ellipse fill="lightgrey" stroke="black" cx="56" cy="-200" rx="40.09" ry="18"/>
<text text-anchor="middle" x="56" y="-196.3" font-family="Times,serif" font-size="14.00">logs.fmt</text>
</g>
<!-- bos.setup&#45;&gt;logs.fmt -->
<g id="edge8" class="edge">
<title>bos.setup&#45;&gt;logs.fmt</title>
<path fill="none" stroke="black" d="M214.9,-278.58C183.75,-274.7 141.45,-266.46 108,-249 96.26,-242.87 85.18,-233.39 76.3,-224.47"/>
<polygon fill="black" stroke="black" points="78.81,-222.03 69.38,-217.19 73.73,-226.85 78.81,-222.03"/>
</g>
<!-- curly -->
<g id="node4" class="node">
<title>curly</title>
<ellipse fill="lightgrey" stroke="black" cx="477" cy="-449" rx="28.7" ry="18"/>
<text text-anchor="middle" x="477" y="-445.3" font-family="Times,serif" font-size="14.00">curly</text>
</g>
<!-- result -->
<g id="node20" class="node">
<title>result</title>
<ellipse fill="lightgrey" stroke="black" cx="477" cy="-366" rx="30.59" ry="18"/>
<text text-anchor="middle" x="477" y="-362.3" font-family="Times,serif" font-size="14.00">result</text>
</g>
<!-- curly&#45;&gt;result -->
<g id="edge9" class="edge">
<title>curly&#45;&gt;result</title>
<path fill="none" stroke="black" d="M477,-430.82C477,-420.19 477,-406.31 477,-394.2"/>
<polygon fill="black" stroke="black" points="480.5,-394.15 477,-384.15 473.5,-394.15 480.5,-394.15"/>
</g>
<!-- curly&#45;&gt;unix -->
<g id="edge10" class="edge">
<title>curly&#45;&gt;unix</title>
<path fill="none" stroke="black" d="M455.72,-436.97C447.46,-431.53 438.84,-424.15 434,-415 386.78,-325.77 401.76,-199.65 411.48,-145"/>
<polygon fill="black" stroke="black" points="414.94,-145.52 413.34,-135.05 408.06,-144.24 414.94,-145.52"/>
</g>
<!-- dune&#45;release -->
<g id="node5" class="node">
<title>dune&#45;release</title>
<ellipse fill="lightgrey" stroke="black" cx="539" cy="-532" rx="55.49" ry="18"/>
<text text-anchor="middle" x="539" y="-528.3" font-family="Times,serif" font-size="14.00">dune&#45;release</text>
</g>
<!-- dune&#45;release&#45;&gt;bos.setup -->
<g id="edge11" class="edge">
<title>dune&#45;release&#45;&gt;bos.setup</title>
<path fill="none" stroke="black" d="M492.44,-522.28C473.51,-517.24 452.12,-509.55 435,-498 359.25,-446.9 298.65,-354.17 272.29,-309.46"/>
<polygon fill="black" stroke="black" points="275.23,-307.57 267.19,-300.68 269.18,-311.09 275.23,-307.57"/>
</g>
<!-- dune&#45;release&#45;&gt;curly -->
<g id="edge12" class="edge">
<title>dune&#45;release&#45;&gt;curly</title>
<path fill="none" stroke="black" d="M526.15,-514.22C517.19,-502.51 505.11,-486.72 495.16,-473.73"/>
<polygon fill="black" stroke="black" points="497.85,-471.48 488.99,-465.66 492.29,-475.73 497.85,-471.48"/>
</g>
<!-- opam&#45;state -->
<g id="node17" class="node">
<title>opam&#45;state</title>
<ellipse fill="lightgrey" stroke="black" cx="602" cy="-449" rx="50.09" ry="18"/>
<text text-anchor="middle" x="602" y="-445.3" font-family="Times,serif" font-size="14.00">opam&#45;state</text>
</g>
<!-- dune&#45;release&#45;&gt;opam&#45;state -->
<g id="edge13" class="edge">
<title>dune&#45;release&#45;&gt;opam&#45;state</title>
<path fill="none" stroke="black" d="M552.05,-514.22C560.98,-502.74 572.96,-487.33 582.95,-474.49"/>
<polygon fill="black" stroke="black" points="585.8,-476.53 589.18,-466.48 580.28,-472.23 585.8,-476.53"/>
</g>
<!-- yojson -->
<g id="node28" class="node">
<title>yojson</title>
<ellipse fill="lightgrey" stroke="black" cx="1095" cy="-117" rx="34.39" ry="18"/>
<text text-anchor="middle" x="1095" y="-113.3" font-family="Times,serif" font-size="14.00">yojson</text>
</g>
<!-- dune&#45;release&#45;&gt;yojson -->
<g id="edge14" class="edge">
<title>dune&#45;release&#45;&gt;yojson</title>
<path fill="none" stroke="black" d="M587.49,-523.11C699.95,-503.43 969,-447.9 969,-367 969,-367 969,-367 969,-282 969,-264.87 1038.98,-182.19 1074.63,-141.17"/>
<polygon fill="black" stroke="black" points="1077.34,-143.4 1081.28,-133.56 1072.07,-138.79 1077.34,-143.4"/>
</g>
<!-- fmt.tty&#45;&gt;fmt -->
<g id="edge15" class="edge">
<title>fmt.tty&#45;&gt;fmt</title>
<path fill="none" stroke="black" d="M155,-181.82C155,-171.19 155,-157.31 155,-145.2"/>
<polygon fill="black" stroke="black" points="158.5,-145.15 155,-135.15 151.5,-145.15 158.5,-145.15"/>
</g>
<!-- fmt.tty&#45;&gt;unix -->
<g id="edge16" class="edge">
<title>fmt.tty&#45;&gt;unix</title>
<path fill="none" stroke="black" d="M175.69,-185.45C183.6,-180.96 192.91,-176.49 202,-174 239.55,-163.72 342.13,-183.31 377,-166 387.31,-160.88 395.94,-151.76 402.52,-142.84"/>
<polygon fill="black" stroke="black" points="405.47,-144.72 408.18,-134.47 399.68,-140.79 405.47,-144.72"/>
</g>
<!-- fpath&#45;&gt;astring -->
<g id="edge17" class="edge">
<title>fpath&#45;&gt;astring</title>
<path fill="none" stroke="black" d="M334,-98.82C334,-88.19 334,-74.31 334,-62.2"/>
<polygon fill="black" stroke="black" points="337.5,-62.15 334,-52.15 330.5,-62.15 337.5,-62.15"/>
</g>
<!-- jsonm -->
<g id="node9" class="node">
<title>jsonm</title>
<ellipse fill="lightgrey" stroke="black" cx="844" cy="-117" rx="32.49" ry="18"/>
<text text-anchor="middle" x="844" y="-113.3" font-family="Times,serif" font-size="14.00">jsonm</text>
</g>
<!-- uutf -->
<g id="node27" class="node">
<title>uutf</title>
<ellipse fill="lightgrey" stroke="black" cx="834" cy="-34" rx="27" ry="18"/>
<text text-anchor="middle" x="834" y="-30.3" font-family="Times,serif" font-size="14.00">uutf</text>
</g>
<!-- jsonm&#45;&gt;uutf -->
<g id="edge18" class="edge">
<title>jsonm&#45;&gt;uutf</title>
<path fill="none" stroke="black" d="M841.88,-98.82C840.57,-88.19 838.85,-74.31 837.36,-62.2"/>
<polygon fill="black" stroke="black" points="840.82,-61.65 836.12,-52.15 833.87,-62.51 840.82,-61.65"/>
</g>
<!-- logs.fmt&#45;&gt;fmt -->
<g id="edge19" class="edge">
<title>logs.fmt&#45;&gt;fmt</title>
<path fill="none" stroke="black" d="M79.83,-185.48C88.96,-179.89 99.28,-173.07 108,-166 117.44,-158.36 126.97,-148.99 134.97,-140.57"/>
<polygon fill="black" stroke="black" points="137.59,-142.88 141.83,-133.17 132.46,-138.12 137.59,-142.88"/>
</g>
<!-- logs.fmt&#45;&gt;logs -->
<g id="edge20" class="edge">
<title>logs.fmt&#45;&gt;logs</title>
<path fill="none" stroke="black" d="M57.27,-181.82C58.06,-171.19 59.09,-157.31 59.98,-145.2"/>
<polygon fill="black" stroke="black" points="63.48,-145.38 60.73,-135.15 56.5,-144.87 63.48,-145.38"/>
</g>
<!-- ocamlgraph -->
<g id="node12" class="node">
<title>ocamlgraph</title>
<ellipse fill="lightgrey" stroke="black" cx="650" cy="-117" rx="52.79" ry="18"/>
<text text-anchor="middle" x="650" y="-113.3" font-family="Times,serif" font-size="14.00">ocamlgraph</text>
</g>
<!-- opam&#45;core -->
<g id="node13" class="node">
<title>opam&#45;core</title>
<ellipse fill="lightgrey" stroke="black" cx="756" cy="-200" rx="48.99" ry="18"/>
<text text-anchor="middle" x="756" y="-196.3" font-family="Times,serif" font-size="14.00">opam&#45;core</text>
</g>
<!-- opam&#45;core&#45;&gt;jsonm -->
<g id="edge21" class="edge">
<title>opam&#45;core&#45;&gt;jsonm</title>
<path fill="none" stroke="black" d="M778.12,-183.65C785.32,-178.33 793.21,-172.16 800,-166 808.29,-158.49 816.75,-149.6 824.01,-141.54"/>
<polygon fill="black" stroke="black" points="826.82,-143.64 830.81,-133.82 821.57,-139.01 826.82,-143.64"/>
</g>
<!-- opam&#45;core&#45;&gt;ocamlgraph -->
<g id="edge22" class="edge">
<title>opam&#45;core&#45;&gt;ocamlgraph</title>
<path fill="none" stroke="black" d="M735.56,-183.38C719.53,-171.14 697.02,-153.93 679.11,-140.25"/>
<polygon fill="black" stroke="black" points="680.81,-137.14 670.74,-133.85 676.56,-142.7 680.81,-137.14"/>
</g>
<!-- patch -->
<g id="node18" class="node">
<title>patch</title>
<ellipse fill="lightgrey" stroke="black" cx="757" cy="-117" rx="29.8" ry="18"/>
<text text-anchor="middle" x="757" y="-113.3" font-family="Times,serif" font-size="14.00">patch</text>
</g>
<!-- opam&#45;core&#45;&gt;patch -->
<g id="edge23" class="edge">
<title>opam&#45;core&#45;&gt;patch</title>
<path fill="none" stroke="black" d="M756.21,-181.82C756.34,-171.19 756.51,-157.31 756.66,-145.2"/>
<polygon fill="black" stroke="black" points="760.16,-145.2 756.79,-135.15 753.16,-145.11 760.16,-145.2"/>
</g>
<!-- re -->
<g id="node19" class="node">
<title>re</title>
<ellipse fill="lightgrey" stroke="black" cx="1010" cy="-117" rx="27" ry="18"/>
<text text-anchor="middle" x="1010" y="-113.3" font-family="Times,serif" font-size="14.00">re</text>
</g>
<!-- opam&#45;core&#45;&gt;re -->
<g id="edge24" class="edge">
<title>opam&#45;core&#45;&gt;re</title>
<path fill="none" stroke="black" d="M803.54,-195.69C857.98,-191.22 943.23,-181.91 971,-166 980.64,-160.47 988.86,-151.57 995.23,-142.92"/>
<polygon fill="black" stroke="black" points="998.24,-144.73 1000.97,-134.5 992.45,-140.79 998.24,-144.73"/>
</g>
<!-- sha -->
<g id="node23" class="node">
<title>sha</title>
<ellipse fill="lightgrey" stroke="black" cx="930" cy="-117" rx="27" ry="18"/>
<text text-anchor="middle" x="930" y="-113.3" font-family="Times,serif" font-size="14.00">sha</text>
</g>
<!-- opam&#45;core&#45;&gt;sha -->
<g id="edge25" class="edge">
<title>opam&#45;core&#45;&gt;sha</title>
<path fill="none" stroke="black" d="M802.87,-194.79C829.97,-190.64 863.79,-182.38 890,-166 899.52,-160.05 907.88,-151.06 914.46,-142.47"/>
<polygon fill="black" stroke="black" points="917.45,-144.3 920.43,-134.13 911.76,-140.23 917.45,-144.3"/>
</g>
<!-- swhid_core -->
<g id="node26" class="node">
<title>swhid_core</title>
<ellipse fill="lightgrey" stroke="black" cx="522" cy="-117" rx="51.19" ry="18"/>
<text text-anchor="middle" x="522" y="-113.3" font-family="Times,serif" font-size="14.00">swhid_core</text>
</g>
<!-- opam&#45;core&#45;&gt;swhid_core -->
<g id="edge26" class="edge">
<title>opam&#45;core&#45;&gt;swhid_core</title>
<path fill="none" stroke="black" d="M725.86,-185.7C714.52,-181.25 701.37,-176.73 689,-174 643.73,-164.02 628.32,-182.5 585,-166 570.42,-160.45 556.39,-150.39 545.28,-140.91"/>
<polygon fill="black" stroke="black" points="547.54,-138.23 537.75,-134.18 542.88,-143.45 547.54,-138.23"/>
</g>
<!-- opam&#45;core&#45;&gt;unix -->
<g id="edge27" class="edge">
<title>opam&#45;core&#45;&gt;unix</title>
<path fill="none" stroke="black" d="M726.25,-185.55C714.84,-181.02 701.54,-176.49 689,-174 663.92,-169.02 482.1,-176.97 459,-166 448.13,-160.84 438.91,-151.4 431.91,-142.25"/>
<polygon fill="black" stroke="black" points="434.75,-140.21 426.12,-134.07 429.04,-144.25 434.75,-140.21"/>
</g>
<!-- opam&#45;file&#45;format -->
<g id="node14" class="node">
<title>opam&#45;file&#45;format</title>
<ellipse fill="lightgrey" stroke="black" cx="605" cy="-200" rx="72.29" ry="18"/>
<text text-anchor="middle" x="605" y="-196.3" font-family="Times,serif" font-size="14.00">opam&#45;file&#45;format</text>
</g>
<!-- opam&#45;format -->
<g id="node15" class="node">
<title>opam&#45;format</title>
<ellipse fill="lightgrey" stroke="black" cx="605" cy="-283" rx="57.69" ry="18"/>
<text text-anchor="middle" x="605" y="-279.3" font-family="Times,serif" font-size="14.00">opam&#45;format</text>
</g>
<!-- opam&#45;format&#45;&gt;opam&#45;core -->
<g id="edge28" class="edge">
<title>opam&#45;format&#45;&gt;opam&#45;core</title>
<path fill="none" stroke="black" d="M643.11,-269.3C657.82,-263.82 674.55,-256.86 689,-249 702.76,-241.52 717,-231.66 728.79,-222.83"/>
<polygon fill="black" stroke="black" points="731.09,-225.48 736.91,-216.63 726.84,-219.92 731.09,-225.48"/>
</g>
<!-- opam&#45;format&#45;&gt;opam&#45;file&#45;format -->
<g id="edge29" class="edge">
<title>opam&#45;format&#45;&gt;opam&#45;file&#45;format</title>
<path fill="none" stroke="black" d="M605,-264.82C605,-254.19 605,-240.31 605,-228.2"/>
<polygon fill="black" stroke="black" points="608.5,-228.15 605,-218.15 601.5,-228.15 608.5,-228.15"/>
</g>
<!-- opam&#45;repository -->
<g id="node16" class="node">
<title>opam&#45;repository</title>
<ellipse fill="lightgrey" stroke="black" cx="602" cy="-366" rx="69.59" ry="18"/>
<text text-anchor="middle" x="602" y="-362.3" font-family="Times,serif" font-size="14.00">opam&#45;repository</text>
</g>
<!-- opam&#45;repository&#45;&gt;opam&#45;format -->
<g id="edge30" class="edge">
<title>opam&#45;repository&#45;&gt;opam&#45;format</title>
<path fill="none" stroke="black" d="M602.64,-347.82C603.03,-337.19 603.54,-323.31 603.99,-311.2"/>
<polygon fill="black" stroke="black" points="607.49,-311.28 604.36,-301.15 600.5,-311.02 607.49,-311.28"/>
</g>
<!-- opam&#45;state&#45;&gt;opam&#45;repository -->
<g id="edge31" class="edge">
<title>opam&#45;state&#45;&gt;opam&#45;repository</title>
<path fill="none" stroke="black" d="M602,-430.82C602,-420.19 602,-406.31 602,-394.2"/>
<polygon fill="black" stroke="black" points="605.5,-394.15 602,-384.15 598.5,-394.15 605.5,-394.15"/>
</g>
<!-- spdx_licenses -->
<g id="node24" class="node">
<title>spdx_licenses</title>
<ellipse fill="lightgrey" stroke="black" cx="756" cy="-366" rx="59.59" ry="18"/>
<text text-anchor="middle" x="756" y="-362.3" font-family="Times,serif" font-size="14.00">spdx_licenses</text>
</g>
<!-- opam&#45;state&#45;&gt;spdx_licenses -->
<g id="edge32" class="edge">
<title>opam&#45;state&#45;&gt;spdx_licenses</title>
<path fill="none" stroke="black" d="M636.62,-435.88C651.52,-430.21 668.93,-422.95 684,-415 698.47,-407.37 713.65,-397.55 726.33,-388.78"/>
<polygon fill="black" stroke="black" points="728.5,-391.53 734.66,-382.92 724.47,-385.81 728.5,-391.53"/>
</g>
<!-- seq -->
<g id="node22" class="node">
<title>seq</title>
<ellipse fill="lightgrey" stroke="black" cx="1074" cy="-34" rx="27" ry="18"/>
<text text-anchor="middle" x="1074" y="-30.3" font-family="Times,serif" font-size="14.00">seq</text>
</g>
<!-- re&#45;&gt;seq -->
<g id="edge33" class="edge">
<title>re&#45;&gt;seq</title>
<path fill="none" stroke="black" d="M1022.04,-100.76C1031.51,-88.77 1044.88,-71.86 1055.68,-58.19"/>
<polygon fill="black" stroke="black" points="1058.56,-60.18 1062.02,-50.17 1053.07,-55.84 1058.56,-60.18"/>
</g>
<!-- stdlib&#45;shims -->
<g id="node25" class="node">
<title>stdlib&#45;shims</title>
<ellipse fill="lightgrey" stroke="black" cx="939" cy="-34" rx="53.89" ry="18"/>
<text text-anchor="middle" x="939" y="-30.3" font-family="Times,serif" font-size="14.00">stdlib&#45;shims</text>
</g>
<!-- sha&#45;&gt;stdlib&#45;shims -->
<g id="edge34" class="edge">
<title>sha&#45;&gt;stdlib&#45;shims</title>
<path fill="none" stroke="black" d="M931.91,-98.82C933.09,-88.19 934.63,-74.31 935.98,-62.2"/>
<polygon fill="black" stroke="black" points="939.47,-62.48 937.09,-52.15 932.51,-61.71 939.47,-62.48"/>
</g>
<!-- yojson&#45;&gt;seq -->
<g id="edge35" class="edge">
<title>yojson&#45;&gt;seq</title>
<path fill="none" stroke="black" d="M1090.55,-98.82C1087.74,-88.01 1084.07,-73.84 1080.89,-61.59"/>
<polygon fill="black" stroke="black" points="1084.27,-60.68 1078.38,-51.88 1077.5,-62.43 1084.27,-60.68"/>
</g>
</g>
</svg>
