<?xml version="1.0" encoding="UTF-8" standalone="no"?>
<!DOCTYPE svg PUBLIC "-//W3C//DTD SVG 1.1//EN"
 "http://www.w3.org/Graphics/SVG/1.1/DTD/svg11.dtd">
<!-- Generated by graphviz version 2.43.0 (0)
 -->
<!-- Title: G Pages: 1 -->
<svg width="1350pt" height="628pt"
 viewBox="0.00 0.00 1350.00 628.00" xmlns="http://www.w3.org/2000/svg" xmlns:xlink="http://www.w3.org/1999/xlink">
<g id="graph0" class="graph" transform="scale(1 1) rotate(0) translate(4 624)">
<title>G</title>
<polygon fill="white" stroke="transparent" points="-4,4 -4,-624 1346,-624 1346,4 -4,4"/>
<g id="clust1" class="cluster">
<title>cluster_1034807265</title>
<polygon fill="none" stroke="black" points="608,-431 608,-506 840,-506 840,-431 608,-431"/>
<text text-anchor="middle" x="724" y="-490.8" font-family="Times,serif" font-size="14.00">ppx_sexp_conv</text>
</g>
<g id="clust2" class="cluster">
<title>cluster_112751164</title>
<polygon fill="none" stroke="black" points="809,-182 809,-257 905,-257 905,-182 809,-182"/>
<text text-anchor="middle" x="857" y="-241.8" font-family="Times,serif" font-size="14.00">sexplib0</text>
</g>
<g id="clust3" class="cluster">
<title>cluster_134267935</title>
<polygon fill="none" stroke="black" points="1028,-348 1028,-423 1106,-423 1106,-348 1028,-348"/>
<text text-anchor="middle" x="1067" y="-407.8" font-family="Times,serif" font-size="14.00">result</text>
</g>
<g id="clust4" class="cluster">
<title>cluster_19025522</title>
<polygon fill="none" stroke="black" points="445,-431 445,-506 561,-506 561,-431 445,-431"/>
<text text-anchor="middle" x="503" y="-490.8" font-family="Times,serif" font-size="14.00">opam&#45;state</text>
</g>
<g id="clust5" class="cluster">
<title>cluster_276548391</title>
<polygon fill="none" stroke="black" points="937,-348 937,-423 1009,-423 1009,-348 937,-348"/>
<text text-anchor="middle" x="973" y="-407.8" font-family="Times,serif" font-size="14.00">stdio</text>
</g>
<g id="clust6" class="cluster">
<title>cluster_278217164</title>
<polygon fill="none" stroke="black" points="849,-431 849,-506 963,-506 963,-431 849,-431"/>
<text text-anchor="middle" x="906" y="-490.8" font-family="Times,serif" font-size="14.00">parsexp_io</text>
</g>
<g id="clust7" class="cluster">
<title>cluster_311326139</title>
<polygon fill="none" stroke="black" points="757,-265 757,-340 849,-340 849,-265 757,-265"/>
<text text-anchor="middle" x="803" y="-324.8" font-family="Times,serif" font-size="14.00">parsexp</text>
</g>
<g id="clust8" class="cluster">
<title>cluster_367495476</title>
<polygon fill="none" stroke="black" points="436,-182 436,-257 550,-257 550,-182 436,-182"/>
<text text-anchor="middle" x="493" y="-241.8" font-family="Times,serif" font-size="14.00">opam&#45;core</text>
</g>
<g id="clust9" class="cluster">
<title>cluster_404884661</title>
<polygon fill="none" stroke="black" points="266,-91 266,-166 388,-166 388,-91 266,-91"/>
<text text-anchor="middle" x="327" y="-150.8" font-family="Times,serif" font-size="14.00">ocamlgraph</text>
</g>
<g id="clust10" class="cluster">
<title>cluster_527026861</title>
<polygon fill="none" stroke="black" points="613,-8 613,-166 709,-166 709,-8 613,-8"/>
<text text-anchor="middle" x="661" y="-150.8" font-family="Times,serif" font-size="14.00">(compiler)</text>
</g>
<g id="clust11" class="cluster">
<title>cluster_569010170</title>
<polygon fill="none" stroke="black" points="971,-431 971,-506 1163,-506 1163,-431 971,-431"/>
<text text-anchor="middle" x="1067" y="-490.8" font-family="Times,serif" font-size="14.00">ppx_deriving</text>
</g>
<g id="clust12" class="cluster">
<title>cluster_586469389</title>
<polygon fill="none" stroke="black" points="458,-8 458,-83 528,-83 528,-8 458,-8"/>
<text text-anchor="middle" x="493" y="-67.8" font-family="Times,serif" font-size="14.00">seq</text>
</g>
<g id="clust13" class="cluster">
<title>cluster_63636880</title>
<polygon fill="none" stroke="black" points="913,-91 913,-340 1334,-340 1334,-91 913,-91"/>
<text text-anchor="middle" x="1123.5" y="-324.8" font-family="Times,serif" font-size="14.00">base</text>
</g>
<g id="clust14" class="cluster">
<title>cluster_69806535</title>
<polygon fill="none" stroke="black" points="458,-91 458,-166 528,-166 528,-91 458,-91"/>
<text text-anchor="middle" x="493" y="-150.8" font-family="Times,serif" font-size="14.00">re</text>
</g>
<g id="clust15" class="cluster">
<title>cluster_763794292</title>
<polygon fill="none" stroke="black" points="558,-182 558,-257 718,-257 718,-182 558,-182"/>
<text text-anchor="middle" x="638" y="-241.8" font-family="Times,serif" font-size="14.00">opam&#45;file&#45;format</text>
</g>
<g id="clust16" class="cluster">
<title>cluster_771805234</title>
<polygon fill="none" stroke="black" points="448,-265 448,-340 580,-340 580,-265 448,-265"/>
<text text-anchor="middle" x="514" y="-324.8" font-family="Times,serif" font-size="14.00">opam&#45;format</text>
</g>
<g id="clust17" class="cluster">
<title>cluster_862767176</title>
<polygon fill="none" stroke="black" points="436,-348 436,-423 592,-423 592,-348 436,-348"/>
<text text-anchor="middle" x="514" y="-407.8" font-family="Times,serif" font-size="14.00">opam&#45;repository</text>
</g>
<g id="clust18" class="cluster">
<title>cluster_869606110</title>
<polygon fill="none" stroke="black" points="265,-8 265,-83 389,-83 389,-8 265,-8"/>
<text text-anchor="middle" x="327" y="-67.8" font-family="Times,serif" font-size="14.00">stdlib&#45;shims</text>
</g>
<g id="clust19" class="cluster">
<title>cluster_930138589</title>
<polygon fill="none" stroke="black" points="693,-348 693,-423 781,-423 781,-348 693,-348"/>
<text text-anchor="middle" x="737" y="-407.8" font-family="Times,serif" font-size="14.00">sexplib</text>
</g>
<g id="clust20" class="cluster">
<title>cluster_local_package__</title>
<polygon fill="none" stroke="black" points="8,-174 8,-612 428,-612 428,-174 8,-174"/>
<text text-anchor="middle" x="218" y="-596.8" font-family="Times,serif" font-size="14.00">(local)</text>
</g>
<g id="clust21" class="cluster">
<title>cluster_132987195</title>
<polygon fill="none" stroke="black" points="26,-348 26,-581 246,-581 246,-348 26,-348"/>
<text text-anchor="middle" x="136" y="-565.8" font-family="Times,serif" font-size="14.00">depgraph</text>
</g>
<g id="clust22" class="cluster">
<title>cluster_651970772</title>
<polygon fill="none" stroke="black" points="254,-182 254,-423 420,-423 420,-182 254,-182"/>
<text text-anchor="middle" x="337" y="-407.8" font-family="Times,serif" font-size="14.00">ocamlgraph_extra</text>
</g>
<!-- depgraph -->
<g id="node1" class="node">
<title>depgraph</title>
<polygon fill="none" stroke="black" points="176,-550 114.33,-532 176,-514 237.67,-532 176,-550"/>
<text text-anchor="middle" x="176" y="-528.3" font-family="Times,serif" font-size="14.00">depgraph</text>
</g>
<!-- ocamlgraph_extra -->
<g id="node8" class="node">
<title>ocamlgraph_extra</title>
<ellipse fill="none" stroke="black" cx="337" cy="-374" rx="74.99" ry="18"/>
<text text-anchor="middle" x="337" y="-370.3" font-family="Times,serif" font-size="14.00">ocamlgraph_extra</text>
</g>
<!-- depgraph&#45;&gt;ocamlgraph_extra -->
<g id="edge1" class="edge">
<title>depgraph&#45;&gt;ocamlgraph_extra</title>
<path fill="none" stroke="black" d="M246,-482.93C263.56,-466.01 280.04,-447.63 294.02,-430.9"/>
<polygon fill="black" stroke="black" points="296.88,-432.94 300.55,-423 291.49,-428.48 296.88,-432.94"/>
</g>
<!-- opam&#45;state -->
<g id="node13" class="node">
<title>opam&#45;state</title>
<ellipse fill="lightgrey" stroke="black" cx="503" cy="-457" rx="50.09" ry="18"/>
<text text-anchor="middle" x="503" y="-453.3" font-family="Times,serif" font-size="14.00">opam&#45;state</text>
</g>
<!-- depgraph&#45;&gt;opam&#45;state -->
<g id="edge2" class="edge">
<title>depgraph&#45;&gt;opam&#45;state</title>
<path fill="none" stroke="black" d="M246,-515.37C307.7,-501.6 396.16,-481.85 451.55,-469.49"/>
<polygon fill="black" stroke="black" points="452.6,-472.84 461.59,-467.24 451.07,-466.01 452.6,-472.84"/>
</g>
<!-- parsexp_io -->
<g id="node15" class="node">
<title>parsexp_io</title>
<ellipse fill="lightgrey" stroke="black" cx="906" cy="-457" rx="49.29" ry="18"/>
<text text-anchor="middle" x="906" y="-453.3" font-family="Times,serif" font-size="14.00">parsexp_io</text>
</g>
<!-- depgraph&#45;&gt;parsexp_io -->
<g id="edge3" class="edge">
<title>depgraph&#45;&gt;parsexp_io</title>
<path fill="none" stroke="black" d="M246,-530.8C406.01,-529.99 788.99,-525.96 844,-506 858.62,-500.69 872.54,-490.56 883.48,-480.97"/>
<polygon fill="black" stroke="black" points="885.89,-483.5 890.88,-474.16 881.15,-478.35 885.89,-483.5"/>
</g>
<!-- ppx_deriving.runtime -->
<g id="node16" class="node">
<title>ppx_deriving.runtime</title>
<ellipse fill="lightgrey" stroke="black" cx="1067" cy="-457" rx="87.99" ry="18"/>
<text text-anchor="middle" x="1067" y="-453.3" font-family="Times,serif" font-size="14.00">ppx_deriving.runtime</text>
</g>
<!-- depgraph&#45;&gt;ppx_deriving.runtime -->
<g id="edge4" class="edge">
<title>depgraph&#45;&gt;ppx_deriving.runtime</title>
<path fill="none" stroke="black" d="M246,-530.44C426.44,-528.77 898.15,-522.82 967,-506 989.73,-500.45 1013.4,-489.36 1032.01,-479.24"/>
<polygon fill="black" stroke="black" points="1033.96,-482.16 1040.97,-474.22 1030.54,-476.05 1033.96,-482.16"/>
</g>
<!-- ppx_sexp_conv.runtime&#45;lib -->
<g id="node17" class="node">
<title>ppx_sexp_conv.runtime&#45;lib</title>
<ellipse fill="lightgrey" stroke="black" cx="724" cy="-457" rx="107.78" ry="18"/>
<text text-anchor="middle" x="724" y="-453.3" font-family="Times,serif" font-size="14.00">ppx_sexp_conv.runtime&#45;lib</text>
</g>
<!-- depgraph&#45;&gt;ppx_sexp_conv.runtime&#45;lib -->
<g id="edge5" class="edge">
<title>depgraph&#45;&gt;ppx_sexp_conv.runtime&#45;lib</title>
<path fill="none" stroke="black" d="M246,-529.5C348.56,-526.85 534.56,-520.23 600,-506 627.95,-499.92 657.9,-488.48 681.36,-478.29"/>
<polygon fill="black" stroke="black" points="682.94,-481.42 690.67,-474.17 680.11,-475.02 682.94,-481.42"/>
</g>
<!-- sexplib -->
<g id="node21" class="node">
<title>sexplib</title>
<ellipse fill="lightgrey" stroke="black" cx="737" cy="-374" rx="36.29" ry="18"/>
<text text-anchor="middle" x="737" y="-370.3" font-family="Times,serif" font-size="14.00">sexplib</text>
</g>
<!-- depgraph&#45;&gt;sexplib -->
<g id="edge6" class="edge">
<title>depgraph&#45;&gt;sexplib</title>
<path fill="none" stroke="black" d="M246,-530.19C350.79,-528.44 539.02,-522.94 565,-506 596.47,-485.48 576.38,-456.47 604,-431 629.46,-407.53 666.19,-393.08 694.6,-384.75"/>
<polygon fill="black" stroke="black" points="695.58,-388.11 704.28,-382.05 693.7,-381.37 695.58,-388.11"/>
</g>
<!-- Depgraph -->
<g id="node26" class="node">
<title>Depgraph</title>
<polygon fill="none" stroke="black" points="211,-475 141,-475 141,-439 211,-439 211,-475"/>
<text text-anchor="middle" x="176" y="-453.3" font-family="Times,serif" font-size="14.00">Depgraph</text>
</g>
<!-- depgraph&#45;&gt;Depgraph -->
<g id="edge7" class="edge">
<title>depgraph&#45;&gt;Depgraph</title>
<path fill="none" stroke="black" d="M176,-513.7C176,-505.25 176,-494.87 176,-485.37"/>
<polygon fill="black" stroke="black" points="179.5,-485.18 176,-475.18 172.5,-485.18 179.5,-485.18"/>
</g>
<!-- base -->
<g id="node2" class="node">
<title>base</title>
<ellipse fill="lightgrey" stroke="black" cx="1010" cy="-291" rx="27" ry="18"/>
<text text-anchor="middle" x="1010" y="-287.3" font-family="Times,serif" font-size="14.00">base</text>
</g>
<!-- base.base_internalhash_types -->
<g id="node3" class="node">
<title>base.base_internalhash_types</title>
<ellipse fill="lightgrey" stroke="black" cx="1035" cy="-208" rx="114.28" ry="18"/>
<text text-anchor="middle" x="1035" y="-204.3" font-family="Times,serif" font-size="14.00">base.base_internalhash_types</text>
</g>
<!-- base&#45;&gt;base.base_internalhash_types -->
<g id="edge8" class="edge">
<title>base&#45;&gt;base.base_internalhash_types</title>
<path fill="none" stroke="black" d="M1015.18,-273.22C1018.51,-262.43 1022.91,-248.17 1026.72,-235.84"/>
<polygon fill="black" stroke="black" points="1030.14,-236.63 1029.74,-226.04 1023.45,-234.56 1030.14,-236.63"/>
</g>
<!-- base.shadow_stdlib -->
<g id="node5" class="node">
<title>base.shadow_stdlib</title>
<ellipse fill="lightgrey" stroke="black" cx="1247" cy="-208" rx="79.09" ry="18"/>
<text text-anchor="middle" x="1247" y="-204.3" font-family="Times,serif" font-size="14.00">base.shadow_stdlib</text>
</g>
<!-- base&#45;&gt;base.shadow_stdlib -->
<g id="edge9" class="edge">
<title>base&#45;&gt;base.shadow_stdlib</title>
<path fill="none" stroke="black" d="M1036.29,-286.38C1066.38,-281.73 1116.81,-272.36 1158,-257 1176.7,-250.03 1196.34,-239.78 1212.4,-230.54"/>
<polygon fill="black" stroke="black" points="1214.56,-233.33 1221.41,-225.25 1211.02,-227.3 1214.56,-233.33"/>
</g>
<!-- sexplib0 -->
<g id="node22" class="node">
<title>sexplib0</title>
<ellipse fill="lightgrey" stroke="black" cx="857" cy="-208" rx="40.09" ry="18"/>
<text text-anchor="middle" x="857" y="-204.3" font-family="Times,serif" font-size="14.00">sexplib0</text>
</g>
<!-- base&#45;&gt;sexplib0 -->
<g id="edge10" class="edge">
<title>base&#45;&gt;sexplib0</title>
<path fill="none" stroke="black" d="M984.24,-284.81C963.03,-279.81 932.71,-270.91 909,-257 897.85,-250.46 887.09,-241.19 878.27,-232.54"/>
<polygon fill="black" stroke="black" points="880.56,-229.88 871.07,-225.18 875.56,-234.77 880.56,-229.88"/>
</g>
<!-- base.caml -->
<g id="node4" class="node">
<title>base.caml</title>
<ellipse fill="lightgrey" stroke="black" cx="1107" cy="-117" rx="46.29" ry="18"/>
<text text-anchor="middle" x="1107" y="-113.3" font-family="Times,serif" font-size="14.00">base.caml</text>
</g>
<!-- base.shadow_stdlib&#45;&gt;base.caml -->
<g id="edge11" class="edge">
<title>base.shadow_stdlib&#45;&gt;base.caml</title>
<path fill="none" stroke="black" d="M1221.65,-190.88C1198.39,-176.1 1163.84,-154.13 1138.75,-138.18"/>
<polygon fill="black" stroke="black" points="1140.62,-135.23 1130.3,-132.81 1136.86,-141.13 1140.62,-135.23"/>
</g>
<!-- bigarray -->
<g id="node6" class="node">
<title>bigarray</title>
<ellipse fill="lightgrey" stroke="black" cx="661" cy="-117" rx="40.09" ry="18"/>
<text text-anchor="middle" x="661" y="-113.3" font-family="Times,serif" font-size="14.00">bigarray</text>
</g>
<!-- unix -->
<g id="node25" class="node">
<title>unix</title>
<ellipse fill="lightgrey" stroke="black" cx="661" cy="-34" rx="27" ry="18"/>
<text text-anchor="middle" x="661" y="-30.3" font-family="Times,serif" font-size="14.00">unix</text>
</g>
<!-- bigarray&#45;&gt;unix -->
<g id="edge12" class="edge">
<title>bigarray&#45;&gt;unix</title>
<path fill="none" stroke="black" d="M661,-98.82C661,-88.19 661,-74.31 661,-62.2"/>
<polygon fill="black" stroke="black" points="664.5,-62.15 661,-52.15 657.5,-62.15 664.5,-62.15"/>
</g>
<!-- ocamlgraph -->
<g id="node7" class="node">
<title>ocamlgraph</title>
<ellipse fill="lightgrey" stroke="black" cx="327" cy="-117" rx="52.79" ry="18"/>
<text text-anchor="middle" x="327" y="-113.3" font-family="Times,serif" font-size="14.00">ocamlgraph</text>
</g>
<!-- stdlib&#45;shims -->
<g id="node24" class="node">
<title>stdlib&#45;shims</title>
<ellipse fill="lightgrey" stroke="black" cx="327" cy="-34" rx="53.89" ry="18"/>
<text text-anchor="middle" x="327" y="-30.3" font-family="Times,serif" font-size="14.00">stdlib&#45;shims</text>
</g>
<!-- ocamlgraph&#45;&gt;stdlib&#45;shims -->
<g id="edge13" class="edge">
<title>ocamlgraph&#45;&gt;stdlib&#45;shims</title>
<path fill="none" stroke="black" d="M327,-98.82C327,-88.19 327,-74.31 327,-62.2"/>
<polygon fill="black" stroke="black" points="330.5,-62.15 327,-52.15 323.5,-62.15 330.5,-62.15"/>
</g>
<!-- ocamlgraph_extra&#45;&gt;ocamlgraph -->
<g id="edge14" class="edge">
<title>ocamlgraph_extra&#45;&gt;ocamlgraph</title>
<path fill="none" stroke="black" d="M293.39,-182C299.56,-167.27 306.09,-154.2 311.74,-143.77"/>
<polygon fill="black" stroke="black" points="314.95,-145.21 316.76,-134.77 308.83,-141.8 314.95,-145.21"/>
</g>
<!-- Ocamlgraph_extra -->
<g id="node30" class="node">
<title>Ocamlgraph_extra</title>
<polygon fill="none" stroke="black" points="412,-309 294,-309 294,-273 412,-273 412,-309"/>
<text text-anchor="middle" x="353" y="-287.3" font-family="Times,serif" font-size="14.00">Ocamlgraph_extra</text>
</g>
<!-- ocamlgraph_extra&#45;&gt;Ocamlgraph_extra -->
<g id="edge15" class="edge">
<title>ocamlgraph_extra&#45;&gt;Ocamlgraph_extra</title>
<path fill="none" stroke="black" d="M340.39,-355.82C342.49,-345.19 345.24,-331.31 347.63,-319.2"/>
<polygon fill="black" stroke="black" points="351.11,-319.64 349.61,-309.15 344.24,-318.29 351.11,-319.64"/>
</g>
<!-- opam&#45;core -->
<g id="node9" class="node">
<title>opam&#45;core</title>
<ellipse fill="lightgrey" stroke="black" cx="493" cy="-208" rx="48.99" ry="18"/>
<text text-anchor="middle" x="493" y="-204.3" font-family="Times,serif" font-size="14.00">opam&#45;core</text>
</g>
<!-- opam&#45;core&#45;&gt;bigarray -->
<g id="edge16" class="edge">
<title>opam&#45;core&#45;&gt;bigarray</title>
<path fill="none" stroke="black" d="M519.08,-192.79C529.87,-186.94 542.52,-180.11 554,-174 578.18,-161.13 605.56,-146.81 626.56,-135.87"/>
<polygon fill="black" stroke="black" points="628.18,-138.97 635.44,-131.25 624.95,-132.76 628.18,-138.97"/>
</g>
<!-- opam&#45;core&#45;&gt;ocamlgraph -->
<g id="edge17" class="edge">
<title>opam&#45;core&#45;&gt;ocamlgraph</title>
<path fill="none" stroke="black" d="M466.33,-192.7C438.42,-177.74 394.43,-154.15 363.35,-137.49"/>
<polygon fill="black" stroke="black" points="364.62,-134.2 354.16,-132.56 361.32,-140.37 364.62,-134.2"/>
</g>
<!-- re -->
<g id="node18" class="node">
<title>re</title>
<ellipse fill="lightgrey" stroke="black" cx="493" cy="-117" rx="27" ry="18"/>
<text text-anchor="middle" x="493" y="-113.3" font-family="Times,serif" font-size="14.00">re</text>
</g>
<!-- opam&#45;core&#45;&gt;re -->
<g id="edge18" class="edge">
<title>opam&#45;core&#45;&gt;re</title>
<path fill="none" stroke="black" d="M493,-189.84C493,-177.28 493,-159.98 493,-145.5"/>
<polygon fill="black" stroke="black" points="496.5,-145.11 493,-135.11 489.5,-145.11 496.5,-145.11"/>
</g>
<!-- opam&#45;file&#45;format -->
<g id="node10" class="node">
<title>opam&#45;file&#45;format</title>
<ellipse fill="lightgrey" stroke="black" cx="638" cy="-208" rx="72.29" ry="18"/>
<text text-anchor="middle" x="638" y="-204.3" font-family="Times,serif" font-size="14.00">opam&#45;file&#45;format</text>
</g>
<!-- opam&#45;format -->
<g id="node11" class="node">
<title>opam&#45;format</title>
<ellipse fill="lightgrey" stroke="black" cx="514" cy="-291" rx="57.69" ry="18"/>
<text text-anchor="middle" x="514" y="-287.3" font-family="Times,serif" font-size="14.00">opam&#45;format</text>
</g>
<!-- opam&#45;format&#45;&gt;opam&#45;core -->
<g id="edge19" class="edge">
<title>opam&#45;format&#45;&gt;opam&#45;core</title>
<path fill="none" stroke="black" d="M509.55,-272.82C506.76,-262.08 503.12,-248.03 499.96,-235.84"/>
<polygon fill="black" stroke="black" points="503.34,-234.95 497.45,-226.15 496.57,-236.71 503.34,-234.95"/>
</g>
<!-- opam&#45;format&#45;&gt;opam&#45;file&#45;format -->
<g id="edge20" class="edge">
<title>opam&#45;format&#45;&gt;opam&#45;file&#45;format</title>
<path fill="none" stroke="black" d="M537.91,-274.38C556.88,-261.99 583.61,-244.53 604.67,-230.77"/>
<polygon fill="black" stroke="black" points="606.86,-233.52 613.32,-225.12 603.03,-227.66 606.86,-233.52"/>
</g>
<!-- opam&#45;repository -->
<g id="node12" class="node">
<title>opam&#45;repository</title>
<ellipse fill="lightgrey" stroke="black" cx="514" cy="-374" rx="69.59" ry="18"/>
<text text-anchor="middle" x="514" y="-370.3" font-family="Times,serif" font-size="14.00">opam&#45;repository</text>
</g>
<!-- opam&#45;repository&#45;&gt;opam&#45;format -->
<g id="edge21" class="edge">
<title>opam&#45;repository&#45;&gt;opam&#45;format</title>
<path fill="none" stroke="black" d="M514,-355.82C514,-345.19 514,-331.31 514,-319.2"/>
<polygon fill="black" stroke="black" points="517.5,-319.15 514,-309.15 510.5,-319.15 517.5,-319.15"/>
</g>
<!-- opam&#45;state&#45;&gt;opam&#45;repository -->
<g id="edge22" class="edge">
<title>opam&#45;state&#45;&gt;opam&#45;repository</title>
<path fill="none" stroke="black" d="M505.33,-438.82C506.78,-428.19 508.66,-414.31 510.31,-402.2"/>
<polygon fill="black" stroke="black" points="513.79,-402.53 511.67,-392.15 506.86,-401.59 513.79,-402.53"/>
</g>
<!-- parsexp -->
<g id="node14" class="node">
<title>parsexp</title>
<ellipse fill="lightgrey" stroke="black" cx="803" cy="-291" rx="38.19" ry="18"/>
<text text-anchor="middle" x="803" y="-287.3" font-family="Times,serif" font-size="14.00">parsexp</text>
</g>
<!-- parsexp&#45;&gt;base.caml -->
<g id="edge23" class="edge">
<title>parsexp&#45;&gt;base.caml</title>
<path fill="none" stroke="black" d="M797.35,-273.13C790.2,-248.29 781.45,-201.83 805,-174 835.99,-137.38 972.59,-124.57 1051.05,-120.2"/>
<polygon fill="black" stroke="black" points="1051.45,-123.68 1061.25,-119.66 1051.08,-116.69 1051.45,-123.68"/>
</g>
<!-- parsexp&#45;&gt;sexplib0 -->
<g id="edge24" class="edge">
<title>parsexp&#45;&gt;sexplib0</title>
<path fill="none" stroke="black" d="M813.93,-273.61C821.54,-262.19 831.83,-246.75 840.45,-233.83"/>
<polygon fill="black" stroke="black" points="843.45,-235.63 846.09,-225.37 837.63,-231.75 843.45,-235.63"/>
</g>
<!-- parsexp_io&#45;&gt;parsexp -->
<g id="edge25" class="edge">
<title>parsexp_io&#45;&gt;parsexp</title>
<path fill="none" stroke="black" d="M895.56,-439.37C877.51,-410.64 840.38,-351.52 819.04,-317.54"/>
<polygon fill="black" stroke="black" points="821.75,-315.28 813.47,-308.67 815.83,-319 821.75,-315.28"/>
</g>
<!-- stdio -->
<g id="node23" class="node">
<title>stdio</title>
<ellipse fill="lightgrey" stroke="black" cx="973" cy="-374" rx="27.9" ry="18"/>
<text text-anchor="middle" x="973" y="-370.3" font-family="Times,serif" font-size="14.00">stdio</text>
</g>
<!-- parsexp_io&#45;&gt;stdio -->
<g id="edge26" class="edge">
<title>parsexp_io&#45;&gt;stdio</title>
<path fill="none" stroke="black" d="M919.56,-439.61C929.44,-427.66 942.96,-411.32 953.92,-398.06"/>
<polygon fill="black" stroke="black" points="956.69,-400.21 960.37,-390.27 951.3,-395.75 956.69,-400.21"/>
</g>
<!-- result -->
<g id="node19" class="node">
<title>result</title>
<ellipse fill="lightgrey" stroke="black" cx="1067" cy="-374" rx="30.59" ry="18"/>
<text text-anchor="middle" x="1067" y="-370.3" font-family="Times,serif" font-size="14.00">result</text>
</g>
<!-- ppx_deriving.runtime&#45;&gt;result -->
<g id="edge27" class="edge">
<title>ppx_deriving.runtime&#45;&gt;result</title>
<path fill="none" stroke="black" d="M1067,-438.82C1067,-428.19 1067,-414.31 1067,-402.2"/>
<polygon fill="black" stroke="black" points="1070.5,-402.15 1067,-392.15 1063.5,-402.15 1070.5,-402.15"/>
</g>
<!-- ppx_sexp_conv.runtime&#45;lib&#45;&gt;sexplib0 -->
<g id="edge28" class="edge">
<title>ppx_sexp_conv.runtime&#45;lib&#45;&gt;sexplib0</title>
<path fill="none" stroke="black" d="M759.36,-439.87C768.17,-435.07 777.29,-429.36 785,-423 821.77,-392.64 836.27,-384.66 853,-340 865.76,-305.95 864.15,-263.37 861.13,-236.17"/>
<polygon fill="black" stroke="black" points="864.6,-235.7 859.89,-226.21 857.66,-236.57 864.6,-235.7"/>
</g>
<!-- seq -->
<g id="node20" class="node">
<title>seq</title>
<ellipse fill="lightgrey" stroke="black" cx="493" cy="-34" rx="27" ry="18"/>
<text text-anchor="middle" x="493" y="-30.3" font-family="Times,serif" font-size="14.00">seq</text>
</g>
<!-- re&#45;&gt;seq -->
<g id="edge29" class="edge">
<title>re&#45;&gt;seq</title>
<path fill="none" stroke="black" d="M493,-98.82C493,-88.19 493,-74.31 493,-62.2"/>
<polygon fill="black" stroke="black" points="496.5,-62.15 493,-52.15 489.5,-62.15 496.5,-62.15"/>
</g>
<!-- sexplib&#45;&gt;bigarray -->
<g id="edge30" class="edge">
<title>sexplib&#45;&gt;bigarray</title>
<path fill="none" stroke="black" d="M739.72,-355.95C744.61,-320.15 751.79,-235.41 722,-174 715.18,-159.95 703.17,-147.74 691.59,-138.34"/>
<polygon fill="black" stroke="black" points="693.39,-135.31 683.32,-132 689.13,-140.86 693.39,-135.31"/>
</g>
<!-- sexplib&#45;&gt;parsexp -->
<g id="edge31" class="edge">
<title>sexplib&#45;&gt;parsexp</title>
<path fill="none" stroke="black" d="M750.04,-357C759.62,-345.24 772.8,-329.06 783.61,-315.79"/>
<polygon fill="black" stroke="black" points="786.38,-317.93 789.99,-307.97 780.96,-313.51 786.38,-317.93"/>
</g>
<!-- stdio&#45;&gt;base -->
<g id="edge32" class="edge">
<title>stdio&#45;&gt;base</title>
<path fill="none" stroke="black" d="M980.49,-356.61C985.6,-345.41 992.48,-330.34 998.32,-317.58"/>
<polygon fill="black" stroke="black" points="1001.55,-318.92 1002.52,-308.37 995.19,-316.01 1001.55,-318.92"/>
</g>
<!-- Dune_describe -->
<g id="node27" class="node">
<title>Dune_describe</title>
<polygon fill="none" stroke="black" points="132,-392 34,-392 34,-356 132,-356 132,-392"/>
<text text-anchor="middle" x="83" y="-370.3" font-family="Times,serif" font-size="14.00">Dune_describe</text>
</g>
<!-- Depgraph&#45;&gt;Dune_describe -->
<g id="edge33" class="edge">
<title>Depgraph&#45;&gt;Dune_describe</title>
<path fill="none" stroke="black" d="M156.28,-438.82C142.96,-427.22 125.2,-411.75 110.5,-398.95"/>
<polygon fill="black" stroke="black" points="112.53,-396.08 102.69,-392.15 107.94,-401.36 112.53,-396.08"/>
</g>
<!-- Opam_index -->
<g id="node28" class="node">
<title>Opam_index</title>
<polygon fill="none" stroke="black" points="237.5,-392 150.5,-392 150.5,-356 237.5,-356 237.5,-392"/>
<text text-anchor="middle" x="194" y="-370.3" font-family="Times,serif" font-size="14.00">Opam_index</text>
</g>
<!-- Depgraph&#45;&gt;Opam_index -->
<g id="edge34" class="edge">
<title>Depgraph&#45;&gt;Opam_index</title>
<path fill="none" stroke="black" d="M179.82,-438.82C182.18,-428.19 185.27,-414.31 187.95,-402.2"/>
<polygon fill="black" stroke="black" points="191.44,-402.67 190.19,-392.15 184.6,-401.16 191.44,-402.67"/>
</g>
<!-- Graphviz -->
<g id="node29" class="node">
<title>Graphviz</title>
<polygon fill="none" stroke="black" points="386.5,-226 319.5,-226 319.5,-190 386.5,-190 386.5,-226"/>
<text text-anchor="middle" x="353" y="-204.3" font-family="Times,serif" font-size="14.00">Graphviz</text>
</g>
<!-- Ocamlgraph_extra&#45;&gt;Graphviz -->
<g id="edge35" class="edge">
<title>Ocamlgraph_extra&#45;&gt;Graphviz</title>
<path fill="none" stroke="black" d="M353,-272.82C353,-262.19 353,-248.31 353,-236.2"/>
<polygon fill="black" stroke="black" points="356.5,-236.15 353,-226.15 349.5,-236.15 356.5,-236.15"/>
</g>
<!-- local_package__ -->
</g>
</svg>
