<?xml version="1.0" encoding="UTF-8" standalone="no"?>
<!DOCTYPE svg PUBLIC "-//W3C//DTD SVG 1.1//EN"
 "http://www.w3.org/Graphics/SVG/1.1/DTD/svg11.dtd">
<!-- Generated by graphviz version 2.43.0 (0)
 -->
<!-- Title: G Pages: 1 -->
<svg width="1537pt" height="628pt"
 viewBox="0.00 0.00 1537.00 628.00" xmlns="http://www.w3.org/2000/svg" xmlns:xlink="http://www.w3.org/1999/xlink">
<g id="graph0" class="graph" transform="scale(1 1) rotate(0) translate(4 624)">
<title>G</title>
<polygon fill="white" stroke="transparent" points="-4,4 -4,-624 1533,-624 1533,4 -4,4"/>
<g id="clust1" class="cluster">
<title>cluster_1034807265</title>
<polygon fill="none" stroke="black" points="1203,-348 1203,-423 1435,-423 1435,-348 1203,-348"/>
<text text-anchor="middle" x="1319" y="-407.8" font-family="Times,serif" font-size="14.00">ppx_sexp_conv</text>
</g>
<g id="clust2" class="cluster">
<title>cluster_112751164</title>
<polygon fill="none" stroke="black" points="1245,-265 1245,-340 1341,-340 1341,-265 1245,-265"/>
<text text-anchor="middle" x="1293" y="-324.8" font-family="Times,serif" font-size="14.00">sexplib0</text>
</g>
<g id="clust3" class="cluster">
<title>cluster_134267935</title>
<polygon fill="none" stroke="black" points="1443,-348 1443,-423 1521,-423 1521,-348 1443,-348"/>
<text text-anchor="middle" x="1482" y="-407.8" font-family="Times,serif" font-size="14.00">result</text>
</g>
<g id="clust4" class="cluster">
<title>cluster_19025522</title>
<polygon fill="none" stroke="black" points="557,-431 557,-506 673,-506 673,-431 557,-431"/>
<text text-anchor="middle" x="615" y="-490.8" font-family="Times,serif" font-size="14.00">opam&#45;state</text>
</g>
<g id="clust5" class="cluster">
<title>cluster_284650407</title>
<polygon fill="none" stroke="black" points="1120,-431 1120,-506 1220,-506 1220,-431 1120,-431"/>
<text text-anchor="middle" x="1170" y="-490.8" font-family="Times,serif" font-size="14.00">cmdliner</text>
</g>
<g id="clust6" class="cluster">
<title>cluster_311326139</title>
<polygon fill="none" stroke="black" points="1103,-348 1103,-423 1195,-423 1195,-348 1103,-348"/>
<text text-anchor="middle" x="1149" y="-407.8" font-family="Times,serif" font-size="14.00">parsexp</text>
</g>
<g id="clust7" class="cluster">
<title>cluster_339874473</title>
<polygon fill="none" stroke="black" points="711,-348 711,-423 793,-423 793,-348 711,-348"/>
<text text-anchor="middle" x="752" y="-407.8" font-family="Times,serif" font-size="14.00">rresult</text>
</g>
<g id="clust8" class="cluster">
<title>cluster_367495476</title>
<polygon fill="none" stroke="black" points="611,-182 611,-257 725,-257 725,-182 611,-182"/>
<text text-anchor="middle" x="668" y="-241.8" font-family="Times,serif" font-size="14.00">opam&#45;core</text>
</g>
<g id="clust9" class="cluster">
<title>cluster_404884661</title>
<polygon fill="none" stroke="black" points="547,-99 547,-174 669,-174 669,-99 547,-99"/>
<text text-anchor="middle" x="608" y="-158.8" font-family="Times,serif" font-size="14.00">ocamlgraph</text>
</g>
<g id="clust10" class="cluster">
<title>cluster_527026861</title>
<polygon fill="none" stroke="black" points="857,-8 857,-174 953,-174 953,-8 857,-8"/>
<text text-anchor="middle" x="905" y="-158.8" font-family="Times,serif" font-size="14.00">(compiler)</text>
</g>
<g id="clust11" class="cluster">
<title>cluster_532407225</title>
<polygon fill="none" stroke="black" points="993,-348 993,-423 1063,-423 1063,-348 993,-348"/>
<text text-anchor="middle" x="1028" y="-407.8" font-family="Times,serif" font-size="14.00">logs</text>
</g>
<g id="clust12" class="cluster">
<title>cluster_569010170</title>
<polygon fill="none" stroke="black" points="1295,-431 1295,-506 1487,-506 1487,-431 1295,-431"/>
<text text-anchor="middle" x="1391" y="-490.8" font-family="Times,serif" font-size="14.00">ppx_deriving</text>
</g>
<g id="clust13" class="cluster">
<title>cluster_586469389</title>
<polygon fill="none" stroke="black" points="677,-8 677,-83 747,-83 747,-8 677,-8"/>
<text text-anchor="middle" x="712" y="-67.8" font-family="Times,serif" font-size="14.00">seq</text>
</g>
<g id="clust14" class="cluster">
<title>cluster_604328246</title>
<polygon fill="none" stroke="black" points="879,-348 879,-423 953,-423 953,-348 879,-348"/>
<text text-anchor="middle" x="916" y="-407.8" font-family="Times,serif" font-size="14.00">fpath</text>
</g>
<g id="clust15" class="cluster">
<title>cluster_63636880</title>
<polygon fill="none" stroke="black" points="1103,-265 1103,-340 1211,-340 1211,-265 1103,-265"/>
<text text-anchor="middle" x="1157" y="-324.8" font-family="Times,serif" font-size="14.00">base</text>
</g>
<g id="clust16" class="cluster">
<title>cluster_69806535</title>
<polygon fill="none" stroke="black" points="677,-99 677,-174 747,-174 747,-99 677,-99"/>
<text text-anchor="middle" x="712" y="-158.8" font-family="Times,serif" font-size="14.00">re</text>
</g>
<g id="clust17" class="cluster">
<title>cluster_763794292</title>
<polygon fill="none" stroke="black" points="733,-182 733,-257 893,-257 893,-182 733,-182"/>
<text text-anchor="middle" x="813" y="-241.8" font-family="Times,serif" font-size="14.00">opam&#45;file&#45;format</text>
</g>
<g id="clust18" class="cluster">
<title>cluster_771805234</title>
<polygon fill="none" stroke="black" points="602,-265 602,-340 734,-340 734,-265 602,-265"/>
<text text-anchor="middle" x="668" y="-324.8" font-family="Times,serif" font-size="14.00">opam&#45;format</text>
</g>
<g id="clust19" class="cluster">
<title>cluster_781095796</title>
<polygon fill="none" stroke="black" points="869,-265 869,-340 953,-340 953,-265 869,-265"/>
<text text-anchor="middle" x="911" y="-324.8" font-family="Times,serif" font-size="14.00">astring</text>
</g>
<g id="clust20" class="cluster">
<title>cluster_785389636</title>
<polygon fill="none" stroke="black" points="834,-431 834,-506 904,-506 904,-431 834,-431"/>
<text text-anchor="middle" x="869" y="-490.8" font-family="Times,serif" font-size="14.00">bos</text>
</g>
<g id="clust21" class="cluster">
<title>cluster_862767176</title>
<polygon fill="none" stroke="black" points="547,-348 547,-423 703,-423 703,-348 547,-348"/>
<text text-anchor="middle" x="625" y="-407.8" font-family="Times,serif" font-size="14.00">opam&#45;repository</text>
</g>
<g id="clust22" class="cluster">
<title>cluster_869606110</title>
<polygon fill="none" stroke="black" points="545,-8 545,-83 669,-83 669,-8 545,-8"/>
<text text-anchor="middle" x="607" y="-67.8" font-family="Times,serif" font-size="14.00">stdlib&#45;shims</text>
</g>
<g id="clust23" class="cluster">
<title>cluster_911361604</title>
<polygon fill="none" stroke="black" points="801,-348 801,-423 871,-423 871,-348 801,-348"/>
<text text-anchor="middle" x="836" y="-407.8" font-family="Times,serif" font-size="14.00">fmt</text>
</g>
<g id="clust24" class="cluster">
<title>cluster_930138589</title>
<polygon fill="none" stroke="black" points="992,-431 992,-506 1080,-506 1080,-431 992,-431"/>
<text text-anchor="middle" x="1036" y="-490.8" font-family="Times,serif" font-size="14.00">sexplib</text>
</g>
<g id="clust25" class="cluster">
<title>cluster_local_package__</title>
<polygon fill="none" stroke="black" points="8,-91 8,-612 539,-612 539,-91 8,-91"/>
<text text-anchor="middle" x="273.5" y="-596.8" font-family="Times,serif" font-size="14.00">(local)</text>
</g>
<g id="clust26" class="cluster">
<title>cluster_132987195</title>
<polygon fill="none" stroke="black" points="26,-348 26,-581 357,-581 357,-348 26,-348"/>
<text text-anchor="middle" x="191.5" y="-565.8" font-family="Times,serif" font-size="14.00">depgraph</text>
</g>
<g id="clust27" class="cluster">
<title>cluster_651970772</title>
<polygon fill="none" stroke="black" points="365,-99 365,-423 531,-423 531,-99 365,-99"/>
<text text-anchor="middle" x="448" y="-407.8" font-family="Times,serif" font-size="14.00">ocamlgraph_extra</text>
</g>
<!-- depgraph -->
<g id="node1" class="node">
<title>depgraph</title>
<polygon fill="none" stroke="black" points="287,-550 225.33,-532 287,-514 348.67,-532 287,-550"/>
<text text-anchor="middle" x="287" y="-528.3" font-family="Times,serif" font-size="14.00">depgraph</text>
</g>
<!-- bos -->
<g id="node5" class="node">
<title>bos</title>
<ellipse fill="lightgrey" stroke="black" cx="869" cy="-457" rx="27" ry="18"/>
<text text-anchor="middle" x="869" y="-453.3" font-family="Times,serif" font-size="14.00">bos</text>
</g>
<!-- depgraph&#45;&gt;bos -->
<g id="edge1" class="edge">
<title>depgraph&#45;&gt;bos</title>
<path fill="none" stroke="black" d="M357,-530.32C435.38,-528.67 565.97,-523.29 677,-506 733.17,-497.25 796.93,-479.76 835.01,-468.49"/>
<polygon fill="black" stroke="black" points="836.46,-471.7 845.04,-465.48 834.46,-465 836.46,-471.7"/>
</g>
<!-- cmdliner -->
<g id="node6" class="node">
<title>cmdliner</title>
<ellipse fill="lightgrey" stroke="black" cx="1170" cy="-457" rx="42.49" ry="18"/>
<text text-anchor="middle" x="1170" y="-453.3" font-family="Times,serif" font-size="14.00">cmdliner</text>
</g>
<!-- depgraph&#45;&gt;cmdliner -->
<g id="edge2" class="edge">
<title>depgraph&#45;&gt;cmdliner</title>
<path fill="none" stroke="black" d="M357,-531.54C543.77,-532.62 1044.47,-532.92 1114,-506 1127.38,-500.82 1139.77,-490.98 1149.48,-481.55"/>
<polygon fill="black" stroke="black" points="1152.2,-483.78 1156.66,-474.17 1147.18,-478.9 1152.2,-483.78"/>
</g>
<!-- ocamlgraph_extra -->
<g id="node11" class="node">
<title>ocamlgraph_extra</title>
<ellipse fill="none" stroke="black" cx="448" cy="-374" rx="74.99" ry="18"/>
<text text-anchor="middle" x="448" y="-370.3" font-family="Times,serif" font-size="14.00">ocamlgraph_extra</text>
</g>
<!-- depgraph&#45;&gt;ocamlgraph_extra -->
<g id="edge3" class="edge">
<title>depgraph&#45;&gt;ocamlgraph_extra</title>
<path fill="none" stroke="black" d="M357,-463.18C368.43,-452.1 380.14,-440.75 391.21,-430.03"/>
<polygon fill="black" stroke="black" points="393.72,-432.47 398.46,-423 388.85,-427.44 393.72,-432.47"/>
</g>
<!-- opam&#45;state -->
<g id="node16" class="node">
<title>opam&#45;state</title>
<ellipse fill="lightgrey" stroke="black" cx="615" cy="-457" rx="50.09" ry="18"/>
<text text-anchor="middle" x="615" y="-453.3" font-family="Times,serif" font-size="14.00">opam&#45;state</text>
</g>
<!-- depgraph&#45;&gt;opam&#45;state -->
<g id="edge4" class="edge">
<title>depgraph&#45;&gt;opam&#45;state</title>
<path fill="none" stroke="black" d="M357,-515.42C419,-501.62 508.06,-481.8 563.67,-469.42"/>
<polygon fill="black" stroke="black" points="564.73,-472.77 573.73,-467.18 563.21,-465.94 564.73,-472.77"/>
</g>
<!-- ppx_deriving.runtime -->
<g id="node18" class="node">
<title>ppx_deriving.runtime</title>
<ellipse fill="lightgrey" stroke="black" cx="1391" cy="-457" rx="87.99" ry="18"/>
<text text-anchor="middle" x="1391" y="-453.3" font-family="Times,serif" font-size="14.00">ppx_deriving.runtime</text>
</g>
<!-- depgraph&#45;&gt;ppx_deriving.runtime -->
<g id="edge5" class="edge">
<title>depgraph&#45;&gt;ppx_deriving.runtime</title>
<path fill="none" stroke="black" d="M357,-531.42C544.84,-532.19 1057.09,-531.79 1224,-506 1263.72,-499.86 1307.32,-487.12 1340.01,-476.3"/>
<polygon fill="black" stroke="black" points="1341.43,-479.52 1349.79,-473.01 1339.2,-472.88 1341.43,-479.52"/>
</g>
<!-- ppx_sexp_conv.runtime&#45;lib -->
<g id="node19" class="node">
<title>ppx_sexp_conv.runtime&#45;lib</title>
<ellipse fill="lightgrey" stroke="black" cx="1319" cy="-374" rx="107.78" ry="18"/>
<text text-anchor="middle" x="1319" y="-370.3" font-family="Times,serif" font-size="14.00">ppx_sexp_conv.runtime&#45;lib</text>
</g>
<!-- depgraph&#45;&gt;ppx_sexp_conv.runtime&#45;lib -->
<g id="edge6" class="edge">
<title>depgraph&#45;&gt;ppx_sexp_conv.runtime&#45;lib</title>
<path fill="none" stroke="black" d="M357,-530.84C545.96,-530.12 1054.26,-526.32 1084,-506 1113.92,-485.55 1086.76,-452.4 1116,-431 1130.95,-420.06 1180.99,-427.37 1199,-423 1225.61,-416.53 1254.13,-405.32 1276.68,-395.36"/>
<polygon fill="black" stroke="black" points="1278.28,-398.48 1285.96,-391.18 1275.41,-392.1 1278.28,-398.48"/>
</g>
<!-- sexplib -->
<g id="node24" class="node">
<title>sexplib</title>
<ellipse fill="lightgrey" stroke="black" cx="1036" cy="-457" rx="36.29" ry="18"/>
<text text-anchor="middle" x="1036" y="-453.3" font-family="Times,serif" font-size="14.00">sexplib</text>
</g>
<!-- depgraph&#45;&gt;sexplib -->
<g id="edge7" class="edge">
<title>depgraph&#45;&gt;sexplib</title>
<path fill="none" stroke="black" d="M357,-530.97C496.48,-530.47 804.54,-526.92 908,-506 940.8,-499.37 976.29,-485.48 1001.57,-474.34"/>
<polygon fill="black" stroke="black" points="1003.04,-477.52 1010.73,-470.23 1000.17,-471.13 1003.04,-477.52"/>
</g>
<!-- Depgraph -->
<g id="node28" class="node">
<title>Depgraph</title>
<polygon fill="none" stroke="black" points="271,-475 201,-475 201,-439 271,-439 271,-475"/>
<text text-anchor="middle" x="236" y="-453.3" font-family="Times,serif" font-size="14.00">Depgraph</text>
</g>
<!-- depgraph&#45;&gt;Depgraph -->
<g id="edge8" class="edge">
<title>depgraph&#45;&gt;Depgraph</title>
<path fill="none" stroke="black" d="M276.92,-516.58C270.37,-507.2 261.65,-494.71 253.93,-483.67"/>
<polygon fill="black" stroke="black" points="256.63,-481.41 248.03,-475.22 250.89,-485.42 256.63,-481.41"/>
</g>
<!-- astring -->
<g id="node2" class="node">
<title>astring</title>
<ellipse fill="lightgrey" stroke="black" cx="911" cy="-291" rx="34.39" ry="18"/>
<text text-anchor="middle" x="911" y="-287.3" font-family="Times,serif" font-size="14.00">astring</text>
</g>
<!-- base.caml -->
<g id="node3" class="node">
<title>base.caml</title>
<ellipse fill="lightgrey" stroke="black" cx="1157" cy="-291" rx="46.29" ry="18"/>
<text text-anchor="middle" x="1157" y="-287.3" font-family="Times,serif" font-size="14.00">base.caml</text>
</g>
<!-- bigarray -->
<g id="node4" class="node">
<title>bigarray</title>
<ellipse fill="lightgrey" stroke="black" cx="905" cy="-125" rx="40.09" ry="18"/>
<text text-anchor="middle" x="905" y="-121.3" font-family="Times,serif" font-size="14.00">bigarray</text>
</g>
<!-- unix -->
<g id="node27" class="node">
<title>unix</title>
<ellipse fill="lightgrey" stroke="black" cx="911" cy="-34" rx="27" ry="18"/>
<text text-anchor="middle" x="911" y="-30.3" font-family="Times,serif" font-size="14.00">unix</text>
</g>
<!-- bigarray&#45;&gt;unix -->
<g id="edge9" class="edge">
<title>bigarray&#45;&gt;unix</title>
<path fill="none" stroke="black" d="M906.16,-106.84C907,-94.28 908.17,-76.98 909.15,-62.5"/>
<polygon fill="black" stroke="black" points="912.67,-62.32 909.85,-52.11 905.68,-61.85 912.67,-62.32"/>
</g>
<!-- fmt -->
<g id="node7" class="node">
<title>fmt</title>
<ellipse fill="lightgrey" stroke="black" cx="836" cy="-374" rx="27" ry="18"/>
<text text-anchor="middle" x="836" y="-370.3" font-family="Times,serif" font-size="14.00">fmt</text>
</g>
<!-- bos&#45;&gt;fmt -->
<g id="edge10" class="edge">
<title>bos&#45;&gt;fmt</title>
<path fill="none" stroke="black" d="M862.16,-439.22C857.66,-428.17 851.69,-413.5 846.58,-400.97"/>
<polygon fill="black" stroke="black" points="849.73,-399.42 842.72,-391.48 843.25,-402.07 849.73,-399.42"/>
</g>
<!-- fpath -->
<g id="node8" class="node">
<title>fpath</title>
<ellipse fill="lightgrey" stroke="black" cx="916" cy="-374" rx="28.7" ry="18"/>
<text text-anchor="middle" x="916" y="-370.3" font-family="Times,serif" font-size="14.00">fpath</text>
</g>
<!-- bos&#45;&gt;fpath -->
<g id="edge11" class="edge">
<title>bos&#45;&gt;fpath</title>
<path fill="none" stroke="black" d="M878.29,-440C884.87,-428.64 893.85,-413.18 901.39,-400.18"/>
<polygon fill="black" stroke="black" points="904.58,-401.65 906.57,-391.25 898.53,-398.14 904.58,-401.65"/>
</g>
<!-- logs -->
<g id="node9" class="node">
<title>logs</title>
<ellipse fill="lightgrey" stroke="black" cx="1028" cy="-374" rx="27" ry="18"/>
<text text-anchor="middle" x="1028" y="-370.3" font-family="Times,serif" font-size="14.00">logs</text>
</g>
<!-- bos&#45;&gt;logs -->
<g id="edge12" class="edge">
<title>bos&#45;&gt;logs</title>
<path fill="none" stroke="black" d="M895.66,-453.08C920.85,-449.31 958.85,-440.97 987,-423 996.56,-416.9 1005.09,-407.88 1011.86,-399.31"/>
<polygon fill="black" stroke="black" points="1014.88,-401.12 1018.02,-391.01 1009.25,-396.95 1014.88,-401.12"/>
</g>
<!-- rresult -->
<g id="node22" class="node">
<title>rresult</title>
<ellipse fill="lightgrey" stroke="black" cx="752" cy="-374" rx="33.29" ry="18"/>
<text text-anchor="middle" x="752" y="-370.3" font-family="Times,serif" font-size="14.00">rresult</text>
</g>
<!-- bos&#45;&gt;rresult -->
<g id="edge13" class="edge">
<title>bos&#45;&gt;rresult</title>
<path fill="none" stroke="black" d="M845.39,-447.86C830.7,-442.17 811.84,-433.68 797,-423 787.44,-416.12 778.29,-407.01 770.76,-398.56"/>
<polygon fill="black" stroke="black" points="773.25,-396.09 764.08,-390.77 767.93,-400.64 773.25,-396.09"/>
</g>
<!-- bos&#45;&gt;unix -->
<g id="edge14" class="edge">
<title>bos&#45;&gt;unix</title>
<path fill="none" stroke="black" d="M895.62,-453.33C915.72,-449.82 942.27,-441.72 957,-423 993.28,-376.91 973,-350.65 973,-292 973,-292 973,-292 973,-207 973,-154.76 974.76,-138.94 954,-91 948.67,-78.7 940.05,-66.68 931.92,-56.96"/>
<polygon fill="black" stroke="black" points="934.5,-54.6 925.29,-49.37 929.23,-59.21 934.5,-54.6"/>
</g>
<!-- fpath&#45;&gt;astring -->
<g id="edge15" class="edge">
<title>fpath&#45;&gt;astring</title>
<path fill="none" stroke="black" d="M914.94,-355.82C914.28,-345.19 913.43,-331.31 912.68,-319.2"/>
<polygon fill="black" stroke="black" points="916.17,-318.92 912.06,-309.15 909.18,-319.35 916.17,-318.92"/>
</g>
<!-- ocamlgraph -->
<g id="node10" class="node">
<title>ocamlgraph</title>
<ellipse fill="lightgrey" stroke="black" cx="608" cy="-125" rx="52.79" ry="18"/>
<text text-anchor="middle" x="608" y="-121.3" font-family="Times,serif" font-size="14.00">ocamlgraph</text>
</g>
<!-- stdlib&#45;shims -->
<g id="node26" class="node">
<title>stdlib&#45;shims</title>
<ellipse fill="lightgrey" stroke="black" cx="607" cy="-34" rx="53.89" ry="18"/>
<text text-anchor="middle" x="607" y="-30.3" font-family="Times,serif" font-size="14.00">stdlib&#45;shims</text>
</g>
<!-- ocamlgraph&#45;&gt;stdlib&#45;shims -->
<g id="edge16" class="edge">
<title>ocamlgraph&#45;&gt;stdlib&#45;shims</title>
<path fill="none" stroke="black" d="M607.81,-106.84C607.67,-94.28 607.47,-76.98 607.31,-62.5"/>
<polygon fill="black" stroke="black" points="610.8,-62.07 607.19,-52.11 603.8,-62.15 610.8,-62.07"/>
</g>
<!-- ocamlgraph_extra&#45;&gt;ocamlgraph -->
<g id="edge17" class="edge">
<title>ocamlgraph_extra&#45;&gt;ocamlgraph</title>
<path fill="none" stroke="black" d="M531,-322.47C572.8,-268.24 593.9,-193.08 602.73,-153.27"/>
<polygon fill="black" stroke="black" points="606.21,-153.76 604.86,-143.25 599.36,-152.3 606.21,-153.76"/>
</g>
<!-- Ocamlgraph_extra -->
<g id="node34" class="node">
<title>Ocamlgraph_extra</title>
<polygon fill="none" stroke="black" points="507,-309 389,-309 389,-273 507,-273 507,-309"/>
<text text-anchor="middle" x="448" y="-287.3" font-family="Times,serif" font-size="14.00">Ocamlgraph_extra</text>
</g>
<!-- ocamlgraph_extra&#45;&gt;Ocamlgraph_extra -->
<g id="edge18" class="edge">
<title>ocamlgraph_extra&#45;&gt;Ocamlgraph_extra</title>
<path fill="none" stroke="black" d="M448,-355.82C448,-345.19 448,-331.31 448,-319.2"/>
<polygon fill="black" stroke="black" points="451.5,-319.15 448,-309.15 444.5,-319.15 451.5,-319.15"/>
</g>
<!-- opam&#45;core -->
<g id="node12" class="node">
<title>opam&#45;core</title>
<ellipse fill="lightgrey" stroke="black" cx="668" cy="-208" rx="48.99" ry="18"/>
<text text-anchor="middle" x="668" y="-204.3" font-family="Times,serif" font-size="14.00">opam&#45;core</text>
</g>
<!-- opam&#45;core&#45;&gt;bigarray -->
<g id="edge19" class="edge">
<title>opam&#45;core&#45;&gt;bigarray</title>
<path fill="none" stroke="black" d="M698.53,-193.92C708.21,-189.93 719,-185.63 729,-182 774.18,-165.59 826.8,-149.19 862.65,-138.42"/>
<polygon fill="black" stroke="black" points="863.72,-141.76 872.3,-135.54 861.71,-135.05 863.72,-141.76"/>
</g>
<!-- opam&#45;core&#45;&gt;ocamlgraph -->
<g id="edge20" class="edge">
<title>opam&#45;core&#45;&gt;ocamlgraph</title>
<path fill="none" stroke="black" d="M655.57,-190.22C647.2,-178.92 636.02,-163.83 626.6,-151.11"/>
<polygon fill="black" stroke="black" points="629.18,-148.71 620.42,-142.76 623.56,-152.88 629.18,-148.71"/>
</g>
<!-- re -->
<g id="node20" class="node">
<title>re</title>
<ellipse fill="lightgrey" stroke="black" cx="712" cy="-125" rx="27" ry="18"/>
<text text-anchor="middle" x="712" y="-121.3" font-family="Times,serif" font-size="14.00">re</text>
</g>
<!-- opam&#45;core&#45;&gt;re -->
<g id="edge21" class="edge">
<title>opam&#45;core&#45;&gt;re</title>
<path fill="none" stroke="black" d="M677.12,-190.22C683.21,-178.99 691.35,-164.01 698.23,-151.34"/>
<polygon fill="black" stroke="black" points="701.5,-152.67 703.2,-142.21 695.35,-149.33 701.5,-152.67"/>
</g>
<!-- opam&#45;file&#45;format -->
<g id="node13" class="node">
<title>opam&#45;file&#45;format</title>
<ellipse fill="lightgrey" stroke="black" cx="813" cy="-208" rx="72.29" ry="18"/>
<text text-anchor="middle" x="813" y="-204.3" font-family="Times,serif" font-size="14.00">opam&#45;file&#45;format</text>
</g>
<!-- opam&#45;format -->
<g id="node14" class="node">
<title>opam&#45;format</title>
<ellipse fill="lightgrey" stroke="black" cx="668" cy="-291" rx="57.69" ry="18"/>
<text text-anchor="middle" x="668" y="-287.3" font-family="Times,serif" font-size="14.00">opam&#45;format</text>
</g>
<!-- opam&#45;format&#45;&gt;opam&#45;core -->
<g id="edge22" class="edge">
<title>opam&#45;format&#45;&gt;opam&#45;core</title>
<path fill="none" stroke="black" d="M668,-272.82C668,-262.19 668,-248.31 668,-236.2"/>
<polygon fill="black" stroke="black" points="671.5,-236.15 668,-226.15 664.5,-236.15 671.5,-236.15"/>
</g>
<!-- opam&#45;format&#45;&gt;opam&#45;file&#45;format -->
<g id="edge23" class="edge">
<title>opam&#45;format&#45;&gt;opam&#45;file&#45;format</title>
<path fill="none" stroke="black" d="M695.71,-275.19C706.17,-269.55 718.16,-263.03 729,-257 744.8,-248.21 762.17,-238.33 776.99,-229.82"/>
<polygon fill="black" stroke="black" points="778.93,-232.74 785.85,-224.73 775.44,-226.68 778.93,-232.74"/>
</g>
<!-- opam&#45;repository -->
<g id="node15" class="node">
<title>opam&#45;repository</title>
<ellipse fill="lightgrey" stroke="black" cx="625" cy="-374" rx="69.59" ry="18"/>
<text text-anchor="middle" x="625" y="-370.3" font-family="Times,serif" font-size="14.00">opam&#45;repository</text>
</g>
<!-- opam&#45;repository&#45;&gt;opam&#45;format -->
<g id="edge24" class="edge">
<title>opam&#45;repository&#45;&gt;opam&#45;format</title>
<path fill="none" stroke="black" d="M634.12,-355.82C639.97,-344.79 647.69,-330.27 654.27,-317.86"/>
<polygon fill="black" stroke="black" points="657.44,-319.35 659.04,-308.88 651.26,-316.07 657.44,-319.35"/>
</g>
<!-- opam&#45;state&#45;&gt;opam&#45;repository -->
<g id="edge25" class="edge">
<title>opam&#45;state&#45;&gt;opam&#45;repository</title>
<path fill="none" stroke="black" d="M617.12,-438.82C618.43,-428.19 620.15,-414.31 621.64,-402.2"/>
<polygon fill="black" stroke="black" points="625.13,-402.51 622.88,-392.15 618.18,-401.65 625.13,-402.51"/>
</g>
<!-- parsexp -->
<g id="node17" class="node">
<title>parsexp</title>
<ellipse fill="lightgrey" stroke="black" cx="1149" cy="-374" rx="38.19" ry="18"/>
<text text-anchor="middle" x="1149" y="-370.3" font-family="Times,serif" font-size="14.00">parsexp</text>
</g>
<!-- parsexp&#45;&gt;base.caml -->
<g id="edge26" class="edge">
<title>parsexp&#45;&gt;base.caml</title>
<path fill="none" stroke="black" d="M1150.7,-355.82C1151.75,-345.19 1153.12,-331.31 1154.31,-319.2"/>
<polygon fill="black" stroke="black" points="1157.81,-319.45 1155.31,-309.15 1150.84,-318.76 1157.81,-319.45"/>
</g>
<!-- sexplib0 -->
<g id="node25" class="node">
<title>sexplib0</title>
<ellipse fill="lightgrey" stroke="black" cx="1293" cy="-291" rx="40.09" ry="18"/>
<text text-anchor="middle" x="1293" y="-287.3" font-family="Times,serif" font-size="14.00">sexplib0</text>
</g>
<!-- parsexp&#45;&gt;sexplib0 -->
<g id="edge27" class="edge">
<title>parsexp&#45;&gt;sexplib0</title>
<path fill="none" stroke="black" d="M1174.19,-360.41C1192.72,-351.15 1214.74,-340.14 1215,-340 1230.99,-331.1 1248.38,-320.5 1262.66,-311.53"/>
<polygon fill="black" stroke="black" points="1264.54,-314.48 1271.12,-306.18 1260.8,-308.57 1264.54,-314.48"/>
</g>
<!-- result -->
<g id="node21" class="node">
<title>result</title>
<ellipse fill="lightgrey" stroke="black" cx="1482" cy="-374" rx="30.59" ry="18"/>
<text text-anchor="middle" x="1482" y="-370.3" font-family="Times,serif" font-size="14.00">result</text>
</g>
<!-- ppx_deriving.runtime&#45;&gt;result -->
<g id="edge28" class="edge">
<title>ppx_deriving.runtime&#45;&gt;result</title>
<path fill="none" stroke="black" d="M1417.25,-439.61C1424.56,-434.61 1432.32,-428.88 1439,-423 1447.44,-415.57 1455.88,-406.58 1463.02,-398.4"/>
<polygon fill="black" stroke="black" points="1465.87,-400.45 1469.68,-390.57 1460.54,-395.92 1465.87,-400.45"/>
</g>
<!-- ppx_sexp_conv.runtime&#45;lib&#45;&gt;sexplib0 -->
<g id="edge29" class="edge">
<title>ppx_sexp_conv.runtime&#45;lib&#45;&gt;sexplib0</title>
<path fill="none" stroke="black" d="M1313.49,-355.82C1310.02,-345.01 1305.47,-330.84 1301.54,-318.59"/>
<polygon fill="black" stroke="black" points="1304.81,-317.33 1298.42,-308.88 1298.14,-319.47 1304.81,-317.33"/>
</g>
<!-- seq -->
<g id="node23" class="node">
<title>seq</title>
<ellipse fill="lightgrey" stroke="black" cx="712" cy="-34" rx="27" ry="18"/>
<text text-anchor="middle" x="712" y="-30.3" font-family="Times,serif" font-size="14.00">seq</text>
</g>
<!-- re&#45;&gt;seq -->
<g id="edge30" class="edge">
<title>re&#45;&gt;seq</title>
<path fill="none" stroke="black" d="M712,-106.84C712,-94.28 712,-76.98 712,-62.5"/>
<polygon fill="black" stroke="black" points="715.5,-62.11 712,-52.11 708.5,-62.11 715.5,-62.11"/>
</g>
<!-- sexplib&#45;&gt;bigarray -->
<g id="edge31" class="edge">
<title>sexplib&#45;&gt;bigarray</title>
<path fill="none" stroke="black" d="M1054.26,-441.33C1059.38,-436.14 1064.28,-429.87 1067,-423 1079.27,-392.01 1077.33,-379.69 1067,-348 1039.73,-264.36 967.7,-186.04 929.54,-148.76"/>
<polygon fill="black" stroke="black" points="931.57,-145.86 921.94,-141.44 926.71,-150.9 931.57,-145.86"/>
</g>
<!-- sexplib&#45;&gt;parsexp -->
<g id="edge32" class="edge">
<title>sexplib&#45;&gt;parsexp</title>
<path fill="none" stroke="black" d="M1061.48,-444.02C1072.75,-438.27 1085.93,-430.91 1097,-423 1107.36,-415.59 1117.85,-406.32 1126.67,-397.9"/>
<polygon fill="black" stroke="black" points="1129.24,-400.28 1133.95,-390.79 1124.35,-395.27 1129.24,-400.28"/>
</g>
<!-- Dune_describe -->
<g id="node29" class="node">
<title>Dune_describe</title>
<polygon fill="none" stroke="black" points="349,-392 251,-392 251,-356 349,-356 349,-392"/>
<text text-anchor="middle" x="300" y="-370.3" font-family="Times,serif" font-size="14.00">Dune_describe</text>
</g>
<!-- Depgraph&#45;&gt;Dune_describe -->
<g id="edge33" class="edge">
<title>Depgraph&#45;&gt;Dune_describe</title>
<path fill="none" stroke="black" d="M249.57,-438.82C258.48,-427.55 270.28,-412.61 280.23,-400.02"/>
<polygon fill="black" stroke="black" points="282.99,-402.17 286.45,-392.15 277.5,-397.83 282.99,-402.17"/>
</g>
<!-- Opam_index -->
<g id="node30" class="node">
<title>Opam_index</title>
<polygon fill="none" stroke="black" points="121.5,-392 34.5,-392 34.5,-356 121.5,-356 121.5,-392"/>
<text text-anchor="middle" x="78" y="-370.3" font-family="Times,serif" font-size="14.00">Opam_index</text>
</g>
<!-- Depgraph&#45;&gt;Opam_index -->
<g id="edge34" class="edge">
<title>Depgraph&#45;&gt;Opam_index</title>
<path fill="none" stroke="black" d="M200.99,-449.23C179.53,-444.1 152.03,-435.72 130,-423 119.14,-416.73 108.67,-407.82 100.01,-399.39"/>
<polygon fill="black" stroke="black" points="102.41,-396.84 92.9,-392.17 97.42,-401.75 102.41,-396.84"/>
</g>
<!-- Result_syntax -->
<g id="node31" class="node">
<title>Result_syntax</title>
<polygon fill="none" stroke="black" points="232.5,-392 139.5,-392 139.5,-356 232.5,-356 232.5,-392"/>
<text text-anchor="middle" x="186" y="-370.3" font-family="Times,serif" font-size="14.00">Result_syntax</text>
</g>
<!-- Depgraph&#45;&gt;Result_syntax -->
<g id="edge35" class="edge">
<title>Depgraph&#45;&gt;Result_syntax</title>
<path fill="none" stroke="black" d="M225.4,-438.82C218.57,-427.76 209.57,-413.18 201.89,-400.75"/>
<polygon fill="black" stroke="black" points="204.82,-398.82 196.59,-392.15 198.86,-402.5 204.82,-398.82"/>
</g>
<!-- Graphviz -->
<g id="node32" class="node">
<title>Graphviz</title>
<polygon fill="none" stroke="black" points="481.5,-143 414.5,-143 414.5,-107 481.5,-107 481.5,-143"/>
<text text-anchor="middle" x="448" y="-121.3" font-family="Times,serif" font-size="14.00">Graphviz</text>
</g>
<!-- Mermaid -->
<g id="node33" class="node">
<title>Mermaid</title>
<polygon fill="none" stroke="black" points="482,-226 414,-226 414,-190 482,-190 482,-226"/>
<text text-anchor="middle" x="448" y="-204.3" font-family="Times,serif" font-size="14.00">Mermaid</text>
</g>
<!-- Mermaid&#45;&gt;Graphviz -->
<g id="edge36" class="edge">
<title>Mermaid&#45;&gt;Graphviz</title>
<path fill="none" stroke="black" d="M448,-189.82C448,-179.19 448,-165.31 448,-153.2"/>
<polygon fill="black" stroke="black" points="451.5,-153.15 448,-143.15 444.5,-153.15 451.5,-153.15"/>
</g>
<!-- Ocamlgraph_extra&#45;&gt;Mermaid -->
<g id="edge37" class="edge">
<title>Ocamlgraph_extra&#45;&gt;Mermaid</title>
<path fill="none" stroke="black" d="M448,-272.82C448,-262.19 448,-248.31 448,-236.2"/>
<polygon fill="black" stroke="black" points="451.5,-236.15 448,-226.15 444.5,-236.15 451.5,-236.15"/>
</g>
<!-- local_package__ -->
</g>
</svg>
