<?xml version="1.0" encoding="UTF-8" standalone="no"?>
<!DOCTYPE svg PUBLIC "-//W3C//DTD SVG 1.1//EN"
 "http://www.w3.org/Graphics/SVG/1.1/DTD/svg11.dtd">
<!-- Generated by graphviz version 2.43.0 (0)
 -->
<!-- Title: G Pages: 1 -->
<svg width="1534pt" height="764pt"
 viewBox="0.00 0.00 1534.23 764.00" xmlns="http://www.w3.org/2000/svg" xmlns:xlink="http://www.w3.org/1999/xlink">
<g id="graph0" class="graph" transform="scale(1 1) rotate(0) translate(4 760)">
<title>G</title>
<polygon fill="white" stroke="transparent" points="-4,4 -4,-760 1530.23,-760 1530.23,4 -4,4"/>
<!-- astring -->
<g id="node1" class="node">
<title>astring</title>
<polygon fill="none" stroke="black" points="1223.5,-396 1169.5,-396 1169.5,-360 1223.5,-360 1223.5,-396"/>
<text text-anchor="middle" x="1196.5" y="-374.3" font-family="Times,serif" font-size="14.00">astring</text>
</g>
<!-- topkg -->
<g id="node53" class="node">
<title>topkg</title>
<polygon fill="none" stroke="black" points="1231.5,-324 1177.5,-324 1177.5,-288 1231.5,-288 1231.5,-324"/>
<text text-anchor="middle" x="1204.5" y="-302.3" font-family="Times,serif" font-size="14.00">topkg</text>
</g>
<!-- astring&#45;&gt;topkg -->
<g id="edge1" class="edge">
<title>astring&#45;&gt;topkg</title>
<path fill="none" stroke="black" d="M1198.48,-359.7C1199.36,-351.98 1200.42,-342.71 1201.4,-334.11"/>
<polygon fill="black" stroke="black" points="1204.89,-334.44 1202.55,-324.1 1197.93,-333.64 1204.89,-334.44"/>
</g>
<!-- base&#45;bigarray -->
<g id="node2" class="node">
<title>base&#45;bigarray</title>
<polygon fill="none" stroke="black" points="443.5,-396 353.5,-396 353.5,-360 443.5,-360 443.5,-396"/>
<text text-anchor="middle" x="398.5" y="-374.3" font-family="Times,serif" font-size="14.00">base&#45;bigarray</text>
</g>
<!-- base&#45;bytes -->
<g id="node3" class="node">
<title>base&#45;bytes</title>
<polygon fill="none" stroke="black" points="1324.5,-324 1250.5,-324 1250.5,-288 1324.5,-288 1324.5,-324"/>
<text text-anchor="middle" x="1287.5" y="-302.3" font-family="Times,serif" font-size="14.00">base&#45;bytes</text>
</g>
<!-- ocamlfind -->
<g id="node34" class="node">
<title>ocamlfind</title>
<polygon fill="none" stroke="black" points="1323.5,-252 1251.5,-252 1251.5,-216 1323.5,-216 1323.5,-252"/>
<text text-anchor="middle" x="1287.5" y="-230.3" font-family="Times,serif" font-size="14.00">ocamlfind</text>
</g>
<!-- base&#45;bytes&#45;&gt;ocamlfind -->
<g id="edge2" class="edge">
<title>base&#45;bytes&#45;&gt;ocamlfind</title>
<path fill="none" stroke="black" d="M1287.5,-287.7C1287.5,-279.98 1287.5,-270.71 1287.5,-262.11"/>
<polygon fill="black" stroke="black" points="1291,-262.1 1287.5,-252.1 1284,-262.1 1291,-262.1"/>
</g>
<!-- base&#45;threads -->
<g id="node4" class="node">
<title>base&#45;threads</title>
<polygon fill="none" stroke="black" points="623.5,-180 539.5,-180 539.5,-144 623.5,-144 623.5,-180"/>
<text text-anchor="middle" x="581.5" y="-158.3" font-family="Times,serif" font-size="14.00">base&#45;threads</text>
</g>
<!-- base&#45;unix -->
<g id="node5" class="node">
<title>base&#45;unix</title>
<polygon fill="none" stroke="black" points="1238,-180 1169,-180 1169,-144 1238,-144 1238,-180"/>
<text text-anchor="middle" x="1203.5" y="-158.3" font-family="Times,serif" font-size="14.00">base&#45;unix</text>
</g>
<!-- bos -->
<g id="node6" class="node">
<title>bos</title>
<polygon fill="none" stroke="black" points="1258.5,-684 1204.5,-684 1204.5,-648 1258.5,-648 1258.5,-684"/>
<text text-anchor="middle" x="1231.5" y="-662.3" font-family="Times,serif" font-size="14.00">bos</text>
</g>
<!-- fpath -->
<g id="node18" class="node">
<title>fpath</title>
<polygon fill="none" stroke="black" points="1223.5,-468 1169.5,-468 1169.5,-432 1223.5,-432 1223.5,-468"/>
<text text-anchor="middle" x="1196.5" y="-446.3" font-family="Times,serif" font-size="14.00">fpath</text>
</g>
<!-- bos&#45;&gt;fpath -->
<g id="edge3" class="edge">
<title>bos&#45;&gt;fpath</title>
<path fill="none" stroke="black" d="M1235.15,-647.91C1237.18,-637.57 1239.48,-624.09 1240.5,-612 1241.84,-596.06 1243.19,-591.77 1240.5,-576 1234.51,-540.92 1219.69,-502.59 1208.9,-477.75"/>
<polygon fill="black" stroke="black" points="1211.96,-476.02 1204.71,-468.3 1205.56,-478.86 1211.96,-476.02"/>
</g>
<!-- logs -->
<g id="node22" class="node">
<title>logs</title>
<polygon fill="none" stroke="black" points="1231.5,-612 1177.5,-612 1177.5,-576 1231.5,-576 1231.5,-612"/>
<text text-anchor="middle" x="1204.5" y="-590.3" font-family="Times,serif" font-size="14.00">logs</text>
</g>
<!-- bos&#45;&gt;logs -->
<g id="edge4" class="edge">
<title>bos&#45;&gt;logs</title>
<path fill="none" stroke="black" d="M1224.83,-647.7C1221.79,-639.81 1218.12,-630.3 1214.74,-621.55"/>
<polygon fill="black" stroke="black" points="1217.96,-620.17 1211.1,-612.1 1211.43,-622.69 1217.96,-620.17"/>
</g>
<!-- rresult -->
<g id="node49" class="node">
<title>rresult</title>
<polygon fill="none" stroke="black" points="1477.5,-612 1423.5,-612 1423.5,-576 1477.5,-576 1477.5,-612"/>
<text text-anchor="middle" x="1450.5" y="-590.3" font-family="Times,serif" font-size="14.00">rresult</text>
</g>
<!-- bos&#45;&gt;rresult -->
<g id="edge5" class="edge">
<title>bos&#45;&gt;rresult</title>
<path fill="none" stroke="black" d="M1258.79,-656.28C1297.83,-643.8 1369.73,-620.82 1413.52,-606.82"/>
<polygon fill="black" stroke="black" points="1414.75,-610.1 1423.21,-603.72 1412.62,-603.43 1414.75,-610.1"/>
</g>
<!-- camlp&#45;streams -->
<g id="node7" class="node">
<title>camlp&#45;streams</title>
<polygon fill="none" stroke="black" points="198,-324 101,-324 101,-288 198,-288 198,-324"/>
<text text-anchor="middle" x="149.5" y="-302.3" font-family="Times,serif" font-size="14.00">camlp&#45;streams</text>
</g>
<!-- dune -->
<g id="node14" class="node">
<title>dune</title>
<polygon fill="none" stroke="black" points="671.5,-252 617.5,-252 617.5,-216 671.5,-216 671.5,-252"/>
<text text-anchor="middle" x="644.5" y="-230.3" font-family="Times,serif" font-size="14.00">dune</text>
</g>
<!-- camlp&#45;streams&#45;&gt;dune -->
<g id="edge6" class="edge">
<title>camlp&#45;streams&#45;&gt;dune</title>
<path fill="none" stroke="black" d="M198.18,-289.89C200.98,-289.21 203.77,-288.57 206.5,-288 353.15,-257.49 531.33,-242.67 607.3,-237.37"/>
<polygon fill="black" stroke="black" points="607.59,-240.85 617.33,-236.68 607.11,-233.87 607.59,-240.85"/>
</g>
<!-- cmdliner -->
<g id="node8" class="node">
<title>cmdliner</title>
<polygon fill="none" stroke="black" points="1157,-324 1092,-324 1092,-288 1157,-288 1157,-324"/>
<text text-anchor="middle" x="1124.5" y="-302.3" font-family="Times,serif" font-size="14.00">cmdliner</text>
</g>
<!-- ocaml -->
<g id="node27" class="node">
<title>ocaml</title>
<polygon fill="none" stroke="black" points="1150.5,-180 1096.5,-180 1096.5,-144 1150.5,-144 1150.5,-180"/>
<text text-anchor="middle" x="1123.5" y="-158.3" font-family="Times,serif" font-size="14.00">ocaml</text>
</g>
<!-- cmdliner&#45;&gt;ocaml -->
<g id="edge7" class="edge">
<title>cmdliner&#45;&gt;ocaml</title>
<path fill="none" stroke="black" d="M1124.38,-287.87C1124.21,-263.67 1123.9,-219.21 1123.69,-190.39"/>
<polygon fill="black" stroke="black" points="1127.19,-190.16 1123.62,-180.19 1120.19,-190.21 1127.19,-190.16"/>
</g>
<!-- conf&#45;libev -->
<g id="node9" class="node">
<title>conf&#45;libev</title>
<polygon fill="none" stroke="black" points="1423.5,-396 1351.5,-396 1351.5,-360 1423.5,-360 1423.5,-396"/>
<text text-anchor="middle" x="1387.5" y="-374.3" font-family="Times,serif" font-size="14.00">conf&#45;libev</text>
</g>
<!-- cppo -->
<g id="node10" class="node">
<title>cppo</title>
<polygon fill="none" stroke="black" points="1001.5,-324 947.5,-324 947.5,-288 1001.5,-288 1001.5,-324"/>
<text text-anchor="middle" x="974.5" y="-302.3" font-family="Times,serif" font-size="14.00">cppo</text>
</g>
<!-- cppo&#45;&gt;dune -->
<g id="edge8" class="edge">
<title>cppo&#45;&gt;dune</title>
<path fill="none" stroke="black" d="M947.28,-291.24C944.36,-290.04 941.4,-288.93 938.5,-288 848.94,-259.33 738.76,-244.69 682.1,-238.58"/>
<polygon fill="black" stroke="black" points="682.14,-235.07 671.83,-237.51 681.41,-242.03 682.14,-235.07"/>
</g>
<!-- csexp -->
<g id="node11" class="node">
<title>csexp</title>
<polygon fill="none" stroke="black" points="1073.5,-324 1019.5,-324 1019.5,-288 1073.5,-288 1073.5,-324"/>
<text text-anchor="middle" x="1046.5" y="-302.3" font-family="Times,serif" font-size="14.00">csexp</text>
</g>
<!-- csexp&#45;&gt;dune -->
<g id="edge9" class="edge">
<title>csexp&#45;&gt;dune</title>
<path fill="none" stroke="black" d="M1019.32,-291.14C1016.39,-289.95 1013.41,-288.88 1010.5,-288 893.79,-252.85 748.9,-240.69 681.81,-236.75"/>
<polygon fill="black" stroke="black" points="681.91,-233.25 671.73,-236.18 681.52,-240.24 681.91,-233.25"/>
</g>
<!-- curly -->
<g id="node12" class="node">
<title>curly</title>
<polygon fill="none" stroke="black" points="478.5,-684 424.5,-684 424.5,-648 478.5,-648 478.5,-684"/>
<text text-anchor="middle" x="451.5" y="-662.3" font-family="Times,serif" font-size="14.00">curly</text>
</g>
<!-- result -->
<g id="node48" class="node">
<title>result</title>
<polygon fill="none" stroke="black" points="297.5,-396 243.5,-396 243.5,-360 297.5,-360 297.5,-396"/>
<text text-anchor="middle" x="270.5" y="-374.3" font-family="Times,serif" font-size="14.00">result</text>
</g>
<!-- curly&#45;&gt;result -->
<g id="edge10" class="edge">
<title>curly&#45;&gt;result</title>
<path fill="none" stroke="black" d="M440.72,-647.97C410.23,-599.8 323.26,-462.37 286.85,-404.83"/>
<polygon fill="black" stroke="black" points="289.76,-402.88 281.45,-396.31 283.84,-406.63 289.76,-402.88"/>
</g>
<!-- dkml&#45;base&#45;compiler -->
<g id="node13" class="node">
<title>dkml&#45;base&#45;compiler</title>
<polygon fill="none" stroke="black" points="1124,-108 997,-108 997,-72 1124,-72 1124,-108"/>
<text text-anchor="middle" x="1060.5" y="-86.3" font-family="Times,serif" font-size="14.00">dkml&#45;base&#45;compiler</text>
</g>
<!-- dune&#45;&gt;base&#45;threads -->
<g id="edge11" class="edge">
<title>dune&#45;&gt;base&#45;threads</title>
<path fill="none" stroke="black" d="M628.93,-215.7C621.3,-207.22 611.98,-196.86 603.62,-187.58"/>
<polygon fill="black" stroke="black" points="606.19,-185.2 596.89,-180.1 600.98,-189.88 606.19,-185.2"/>
</g>
<!-- dune&#45;&gt;base&#45;unix -->
<g id="edge12" class="edge">
<title>dune&#45;&gt;base&#45;unix</title>
<path fill="none" stroke="black" d="M671.73,-232.73C747.85,-231.45 969.1,-224.11 1158.84,-179.75"/>
<polygon fill="black" stroke="black" points="1159.79,-183.13 1168.7,-177.41 1158.16,-176.32 1159.79,-183.13"/>
</g>
<!-- dune&#45;&gt;ocaml -->
<g id="edge13" class="edge">
<title>dune&#45;&gt;ocaml</title>
<path fill="none" stroke="black" d="M671.63,-229.04C752.71,-217.19 993.38,-182.02 1086.31,-168.44"/>
<polygon fill="black" stroke="black" points="1086.99,-171.87 1096.38,-166.96 1085.97,-164.95 1086.99,-171.87"/>
</g>
<!-- ocamlfind&#45;secondary -->
<g id="node35" class="node">
<title>ocamlfind&#45;secondary</title>
<polygon fill="none" stroke="black" points="773,-180 642,-180 642,-144 773,-144 773,-180"/>
<text text-anchor="middle" x="707.5" y="-158.3" font-family="Times,serif" font-size="14.00">ocamlfind&#45;secondary</text>
</g>
<!-- dune&#45;&gt;ocamlfind&#45;secondary -->
<g id="edge14" class="edge">
<title>dune&#45;&gt;ocamlfind&#45;secondary</title>
<path fill="none" stroke="black" d="M660.07,-215.7C667.7,-207.22 677.02,-196.86 685.38,-187.58"/>
<polygon fill="black" stroke="black" points="688.02,-189.88 692.11,-180.1 682.81,-185.2 688.02,-189.88"/>
</g>
<!-- dune&#45;configurator -->
<g id="node15" class="node">
<title>dune&#45;configurator</title>
<polygon fill="none" stroke="black" points="1079.5,-396 965.5,-396 965.5,-360 1079.5,-360 1079.5,-396"/>
<text text-anchor="middle" x="1022.5" y="-374.3" font-family="Times,serif" font-size="14.00">dune&#45;configurator</text>
</g>
<!-- dune&#45;configurator&#45;&gt;csexp -->
<g id="edge15" class="edge">
<title>dune&#45;configurator&#45;&gt;csexp</title>
<path fill="none" stroke="black" d="M1028.43,-359.7C1031.11,-351.9 1034.33,-342.51 1037.3,-333.83"/>
<polygon fill="black" stroke="black" points="1040.7,-334.7 1040.64,-324.1 1034.08,-332.43 1040.7,-334.7"/>
</g>
<!-- dune&#45;release -->
<g id="node16" class="node">
<title>dune&#45;release</title>
<polygon fill="none" stroke="black" points="763,-756 678,-756 678,-720 763,-720 763,-756"/>
<text text-anchor="middle" x="720.5" y="-734.3" font-family="Times,serif" font-size="14.00">dune&#45;release</text>
</g>
<!-- dune&#45;release&#45;&gt;bos -->
<g id="edge16" class="edge">
<title>dune&#45;release&#45;&gt;bos</title>
<path fill="none" stroke="black" d="M763.19,-731.15C861.35,-717.71 1101.77,-684.77 1194.33,-672.09"/>
<polygon fill="black" stroke="black" points="1194.93,-675.54 1204.36,-670.72 1193.98,-668.61 1194.93,-675.54"/>
</g>
<!-- dune&#45;release&#45;&gt;curly -->
<g id="edge17" class="edge">
<title>dune&#45;release&#45;&gt;curly</title>
<path fill="none" stroke="black" d="M677.88,-725.91C625.73,-712.34 538.3,-689.59 488.74,-676.69"/>
<polygon fill="black" stroke="black" points="489.33,-673.23 478.77,-674.1 487.56,-680 489.33,-673.23"/>
</g>
<!-- odoc -->
<g id="node38" class="node">
<title>odoc</title>
<polygon fill="none" stroke="black" points="898.5,-540 844.5,-540 844.5,-504 898.5,-504 898.5,-540"/>
<text text-anchor="middle" x="871.5" y="-518.3" font-family="Times,serif" font-size="14.00">odoc</text>
</g>
<!-- dune&#45;release&#45;&gt;odoc -->
<g id="edge18" class="edge">
<title>dune&#45;release&#45;&gt;odoc</title>
<path fill="none" stroke="black" d="M732.6,-719.85C759.11,-682.28 822.41,-592.58 853.56,-548.43"/>
<polygon fill="black" stroke="black" points="856.44,-550.42 859.34,-540.23 850.72,-546.39 856.44,-550.42"/>
</g>
<!-- opam&#45;state -->
<g id="node44" class="node">
<title>opam&#45;state</title>
<polygon fill="none" stroke="black" points="726,-684 649,-684 649,-648 726,-648 726,-684"/>
<text text-anchor="middle" x="687.5" y="-662.3" font-family="Times,serif" font-size="14.00">opam&#45;state</text>
</g>
<!-- dune&#45;release&#45;&gt;opam&#45;state -->
<g id="edge19" class="edge">
<title>dune&#45;release&#45;&gt;opam&#45;state</title>
<path fill="none" stroke="black" d="M712.34,-719.7C708.59,-711.73 704.05,-702.1 699.88,-693.26"/>
<polygon fill="black" stroke="black" points="702.99,-691.66 695.56,-684.1 696.66,-694.64 702.99,-691.66"/>
</g>
<!-- fmt -->
<g id="node17" class="node">
<title>fmt</title>
<polygon fill="none" stroke="black" points="1495.5,-396 1441.5,-396 1441.5,-360 1495.5,-360 1495.5,-396"/>
<text text-anchor="middle" x="1468.5" y="-374.3" font-family="Times,serif" font-size="14.00">fmt</text>
</g>
<!-- fmt&#45;&gt;base&#45;unix -->
<g id="edge20" class="edge">
<title>fmt&#45;&gt;base&#45;unix</title>
<path fill="none" stroke="black" d="M1457.9,-359.6C1437.39,-327.25 1389.28,-257.37 1332.5,-216 1328.76,-213.28 1283.5,-194.91 1247.64,-180.56"/>
<polygon fill="black" stroke="black" points="1248.87,-177.28 1238.28,-176.82 1246.27,-183.78 1248.87,-177.28"/>
</g>
<!-- fmt&#45;&gt;cmdliner -->
<g id="edge21" class="edge">
<title>fmt&#45;&gt;cmdliner</title>
<path fill="none" stroke="black" d="M1441.32,-363.11C1438.39,-361.93 1435.42,-360.86 1432.5,-360 1318.97,-326.32 1283.18,-353.54 1168.5,-324 1168.04,-323.88 1167.59,-323.76 1167.13,-323.64"/>
<polygon fill="black" stroke="black" points="1167.97,-320.24 1157.38,-320.65 1165.92,-326.93 1167.97,-320.24"/>
</g>
<!-- fmt&#45;&gt;topkg -->
<g id="edge22" class="edge">
<title>fmt&#45;&gt;topkg</title>
<path fill="none" stroke="black" d="M1441.28,-363.26C1438.35,-362.06 1435.39,-360.94 1432.5,-360 1350.33,-333.34 1323.81,-350.23 1241.5,-324 1241.4,-323.97 1241.3,-323.94 1241.2,-323.9"/>
<polygon fill="black" stroke="black" points="1242.28,-320.57 1231.68,-320.39 1239.85,-327.14 1242.28,-320.57"/>
</g>
<!-- fpath&#45;&gt;astring -->
<g id="edge23" class="edge">
<title>fpath&#45;&gt;astring</title>
<path fill="none" stroke="black" d="M1196.5,-431.7C1196.5,-423.98 1196.5,-414.71 1196.5,-406.11"/>
<polygon fill="black" stroke="black" points="1200,-406.1 1196.5,-396.1 1193,-406.1 1200,-406.1"/>
</g>
<!-- graphics -->
<g id="node19" class="node">
<title>graphics</title>
<polygon fill="none" stroke="black" points="1318.5,-180 1256.5,-180 1256.5,-144 1318.5,-144 1318.5,-180"/>
<text text-anchor="middle" x="1287.5" y="-158.3" font-family="Times,serif" font-size="14.00">graphics</text>
</g>
<!-- js_of_ocaml -->
<g id="node20" class="node">
<title>js_of_ocaml</title>
<polygon fill="none" stroke="black" points="799.5,-540 715.5,-540 715.5,-504 799.5,-504 799.5,-540"/>
<text text-anchor="middle" x="757.5" y="-518.3" font-family="Times,serif" font-size="14.00">js_of_ocaml</text>
</g>
<!-- js_of_ocaml&#45;compiler -->
<g id="node21" class="node">
<title>js_of_ocaml&#45;compiler</title>
<polygon fill="none" stroke="black" points="799,-468 662,-468 662,-432 799,-432 799,-468"/>
<text text-anchor="middle" x="730.5" y="-446.3" font-family="Times,serif" font-size="14.00">js_of_ocaml&#45;compiler</text>
</g>
<!-- js_of_ocaml&#45;&gt;js_of_ocaml&#45;compiler -->
<g id="edge24" class="edge">
<title>js_of_ocaml&#45;&gt;js_of_ocaml&#45;compiler</title>
<path fill="none" stroke="black" d="M750.83,-503.7C747.79,-495.81 744.12,-486.3 740.74,-477.55"/>
<polygon fill="black" stroke="black" points="743.96,-476.17 737.1,-468.1 737.43,-478.69 743.96,-476.17"/>
</g>
<!-- js_of_ocaml&#45;compiler&#45;&gt;cmdliner -->
<g id="edge25" class="edge">
<title>js_of_ocaml&#45;compiler&#45;&gt;cmdliner</title>
<path fill="none" stroke="black" d="M783.06,-431.9C812.07,-422.1 848.58,-409.16 880.5,-396 915.05,-381.76 921.52,-373.18 956.5,-360 1008.13,-340.55 1025.59,-342.65 1081.84,-324.01"/>
<polygon fill="black" stroke="black" points="1083.26,-327.22 1091.61,-320.7 1081.02,-320.6 1083.26,-327.22"/>
</g>
<!-- menhir -->
<g id="node24" class="node">
<title>menhir</title>
<polygon fill="none" stroke="black" points="689.5,-396 633.5,-396 633.5,-360 689.5,-360 689.5,-396"/>
<text text-anchor="middle" x="661.5" y="-374.3" font-family="Times,serif" font-size="14.00">menhir</text>
</g>
<!-- js_of_ocaml&#45;compiler&#45;&gt;menhir -->
<g id="edge26" class="edge">
<title>js_of_ocaml&#45;compiler&#45;&gt;menhir</title>
<path fill="none" stroke="black" d="M713.44,-431.7C705,-423.14 694.68,-412.66 685.46,-403.3"/>
<polygon fill="black" stroke="black" points="687.87,-400.77 678.36,-396.1 682.89,-405.68 687.87,-400.77"/>
</g>
<!-- js_of_ocaml&#45;compiler&#45;&gt;ocamlfind -->
<g id="edge27" class="edge">
<title>js_of_ocaml&#45;compiler&#45;&gt;ocamlfind</title>
<path fill="none" stroke="black" d="M799.3,-433.37C802.4,-432.87 805.48,-432.4 808.5,-432 885.25,-421.72 1451.18,-452.15 1504.5,-396 1566.38,-330.84 1414.15,-273.05 1333.59,-248.08"/>
<polygon fill="black" stroke="black" points="1334.26,-244.63 1323.67,-245.06 1332.22,-251.32 1334.26,-244.63"/>
</g>
<!-- ppxlib -->
<g id="node46" class="node">
<title>ppxlib</title>
<polygon fill="none" stroke="black" points="615.5,-396 561.5,-396 561.5,-360 615.5,-360 615.5,-396"/>
<text text-anchor="middle" x="588.5" y="-374.3" font-family="Times,serif" font-size="14.00">ppxlib</text>
</g>
<!-- js_of_ocaml&#45;compiler&#45;&gt;ppxlib -->
<g id="edge28" class="edge">
<title>js_of_ocaml&#45;compiler&#45;&gt;ppxlib</title>
<path fill="none" stroke="black" d="M695.76,-431.88C674.31,-421.3 646.81,-407.74 625.03,-397.01"/>
<polygon fill="black" stroke="black" points="626.29,-393.73 615.77,-392.44 623.19,-400 626.29,-393.73"/>
</g>
<!-- yojson -->
<g id="node56" class="node">
<title>yojson</title>
<polygon fill="none" stroke="black" points="871.5,-396 817.5,-396 817.5,-360 871.5,-360 871.5,-396"/>
<text text-anchor="middle" x="844.5" y="-374.3" font-family="Times,serif" font-size="14.00">yojson</text>
</g>
<!-- js_of_ocaml&#45;compiler&#45;&gt;yojson -->
<g id="edge29" class="edge">
<title>js_of_ocaml&#45;compiler&#45;&gt;yojson</title>
<path fill="none" stroke="black" d="M758.39,-431.88C773.52,-422.59 792.38,-411 808.6,-401.04"/>
<polygon fill="black" stroke="black" points="810.6,-403.92 817.29,-395.71 806.94,-397.96 810.6,-403.92"/>
</g>
<!-- logs&#45;&gt;fmt -->
<g id="edge30" class="edge">
<title>logs&#45;&gt;fmt</title>
<path fill="none" stroke="black" d="M1227.01,-575.92C1258.2,-552.13 1316.2,-507.5 1364.5,-468 1390.81,-446.48 1420.18,-421.23 1440.98,-403.13"/>
<polygon fill="black" stroke="black" points="1443.55,-405.54 1448.79,-396.33 1438.95,-400.26 1443.55,-405.54"/>
</g>
<!-- logs&#45;&gt;js_of_ocaml -->
<g id="edge31" class="edge">
<title>logs&#45;&gt;js_of_ocaml</title>
<path fill="none" stroke="black" d="M1177.08,-589.75C1115.68,-582.31 962.56,-562.94 835.5,-540 827.17,-538.5 818.37,-536.74 809.8,-534.94"/>
<polygon fill="black" stroke="black" points="810.41,-531.49 799.9,-532.82 808.94,-538.34 810.41,-531.49"/>
</g>
<!-- lwt -->
<g id="node23" class="node">
<title>lwt</title>
<polygon fill="none" stroke="black" points="1304.5,-468 1250.5,-468 1250.5,-432 1304.5,-432 1304.5,-468"/>
<text text-anchor="middle" x="1277.5" y="-446.3" font-family="Times,serif" font-size="14.00">lwt</text>
</g>
<!-- logs&#45;&gt;lwt -->
<g id="edge32" class="edge">
<title>logs&#45;&gt;lwt</title>
<path fill="none" stroke="black" d="M1213.31,-575.87C1225.91,-551.35 1249.21,-506.03 1264,-477.26"/>
<polygon fill="black" stroke="black" points="1267.2,-478.68 1268.66,-468.19 1260.98,-475.48 1267.2,-478.68"/>
</g>
<!-- lwt&#45;&gt;conf&#45;libev -->
<g id="edge33" class="edge">
<title>lwt&#45;&gt;conf&#45;libev</title>
<path fill="none" stroke="black" d="M1304.41,-431.88C1318.66,-422.81 1336.35,-411.55 1351.74,-401.76"/>
<polygon fill="black" stroke="black" points="1353.93,-404.51 1360.49,-396.19 1350.17,-398.61 1353.93,-404.51"/>
</g>
<!-- lwt&#45;&gt;dune&#45;configurator -->
<g id="edge34" class="edge">
<title>lwt&#45;&gt;dune&#45;configurator</title>
<path fill="none" stroke="black" d="M1250.07,-438.06C1244.31,-435.92 1238.24,-433.79 1232.5,-432 1172.49,-413.23 1154.15,-412.28 1089.6,-396.25"/>
<polygon fill="black" stroke="black" points="1090.28,-392.81 1079.73,-393.77 1088.58,-399.6 1090.28,-392.81"/>
</g>
<!-- ocplib&#45;endian -->
<g id="node37" class="node">
<title>ocplib&#45;endian</title>
<polygon fill="none" stroke="black" points="1333,-396 1242,-396 1242,-360 1333,-360 1333,-396"/>
<text text-anchor="middle" x="1287.5" y="-374.3" font-family="Times,serif" font-size="14.00">ocplib&#45;endian</text>
</g>
<!-- lwt&#45;&gt;ocplib&#45;endian -->
<g id="edge35" class="edge">
<title>lwt&#45;&gt;ocplib&#45;endian</title>
<path fill="none" stroke="black" d="M1279.97,-431.7C1281.07,-423.98 1282.4,-414.71 1283.63,-406.11"/>
<polygon fill="black" stroke="black" points="1287.11,-406.5 1285.06,-396.1 1280.18,-405.51 1287.11,-406.5"/>
</g>
<!-- menhirLib -->
<g id="node25" class="node">
<title>menhirLib</title>
<polygon fill="none" stroke="black" points="819.5,-324 745.5,-324 745.5,-288 819.5,-288 819.5,-324"/>
<text text-anchor="middle" x="782.5" y="-302.3" font-family="Times,serif" font-size="14.00">menhirLib</text>
</g>
<!-- menhir&#45;&gt;menhirLib -->
<g id="edge36" class="edge">
<title>menhir&#45;&gt;menhirLib</title>
<path fill="none" stroke="black" d="M689.56,-360.76C705.73,-351.41 726.29,-339.52 743.96,-329.29"/>
<polygon fill="black" stroke="black" points="746,-332.16 752.9,-324.12 742.49,-326.1 746,-332.16"/>
</g>
<!-- menhirSdk -->
<g id="node26" class="node">
<title>menhirSdk</title>
<polygon fill="none" stroke="black" points="727,-324 650,-324 650,-288 727,-288 727,-324"/>
<text text-anchor="middle" x="688.5" y="-302.3" font-family="Times,serif" font-size="14.00">menhirSdk</text>
</g>
<!-- menhir&#45;&gt;menhirSdk -->
<g id="edge37" class="edge">
<title>menhir&#45;&gt;menhirSdk</title>
<path fill="none" stroke="black" d="M668.17,-359.7C671.21,-351.81 674.88,-342.3 678.26,-333.55"/>
<polygon fill="black" stroke="black" points="681.57,-334.69 681.9,-324.1 675.04,-332.17 681.57,-334.69"/>
</g>
<!-- menhirLib&#45;&gt;dune -->
<g id="edge38" class="edge">
<title>menhirLib&#45;&gt;dune</title>
<path fill="none" stroke="black" d="M748.74,-287.88C728.17,-277.44 701.88,-264.1 680.85,-253.44"/>
<polygon fill="black" stroke="black" points="682.39,-250.3 671.89,-248.9 679.23,-256.54 682.39,-250.3"/>
</g>
<!-- menhirSdk&#45;&gt;dune -->
<g id="edge39" class="edge">
<title>menhirSdk&#45;&gt;dune</title>
<path fill="none" stroke="black" d="M677.62,-287.7C672.51,-279.56 666.3,-269.69 660.66,-260.7"/>
<polygon fill="black" stroke="black" points="663.54,-258.71 655.25,-252.1 657.61,-262.43 663.54,-258.71"/>
</g>
<!-- ocaml&#45;&gt;dkml&#45;base&#45;compiler -->
<g id="edge40" class="edge">
<title>ocaml&#45;&gt;dkml&#45;base&#45;compiler</title>
<path fill="none" stroke="black" d="M1107.93,-143.7C1100.3,-135.22 1090.98,-124.86 1082.62,-115.58"/>
<polygon fill="black" stroke="black" points="1085.19,-113.2 1075.89,-108.1 1079.98,-117.88 1085.19,-113.2"/>
</g>
<!-- ocaml&#45;config -->
<g id="node30" class="node">
<title>ocaml&#45;config</title>
<polygon fill="none" stroke="black" points="1231,-108 1142,-108 1142,-72 1231,-72 1231,-108"/>
<text text-anchor="middle" x="1186.5" y="-86.3" font-family="Times,serif" font-size="14.00">ocaml&#45;config</text>
</g>
<!-- ocaml&#45;&gt;ocaml&#45;config -->
<g id="edge41" class="edge">
<title>ocaml&#45;&gt;ocaml&#45;config</title>
<path fill="none" stroke="black" d="M1139.07,-143.7C1146.7,-135.22 1156.02,-124.86 1164.38,-115.58"/>
<polygon fill="black" stroke="black" points="1167.02,-117.88 1171.11,-108.1 1161.81,-113.2 1167.02,-117.88"/>
</g>
<!-- ocaml&#45;base&#45;compiler -->
<g id="node28" class="node">
<title>ocaml&#45;base&#45;compiler</title>
<polygon fill="none" stroke="black" points="1121.5,-36 989.5,-36 989.5,0 1121.5,0 1121.5,-36"/>
<text text-anchor="middle" x="1055.5" y="-14.3" font-family="Times,serif" font-size="14.00">ocaml&#45;base&#45;compiler</text>
</g>
<!-- ocaml&#45;compiler&#45;libs -->
<g id="node29" class="node">
<title>ocaml&#45;compiler&#45;libs</title>
<polygon fill="none" stroke="black" points="445.5,-324 317.5,-324 317.5,-288 445.5,-288 445.5,-324"/>
<text text-anchor="middle" x="381.5" y="-302.3" font-family="Times,serif" font-size="14.00">ocaml&#45;compiler&#45;libs</text>
</g>
<!-- ocaml&#45;compiler&#45;libs&#45;&gt;dune -->
<g id="edge42" class="edge">
<title>ocaml&#45;compiler&#45;libs&#45;&gt;dune</title>
<path fill="none" stroke="black" d="M445.5,-287.97C496.35,-274.43 565.67,-255.98 607.64,-244.81"/>
<polygon fill="black" stroke="black" points="608.68,-248.16 617.44,-242.2 606.88,-241.39 608.68,-248.16"/>
</g>
<!-- ocaml&#45;config&#45;&gt;ocaml&#45;base&#45;compiler -->
<g id="edge43" class="edge">
<title>ocaml&#45;config&#45;&gt;ocaml&#45;base&#45;compiler</title>
<path fill="none" stroke="black" d="M1154.45,-71.88C1137.01,-62.55 1115.23,-50.92 1096.56,-40.94"/>
<polygon fill="black" stroke="black" points="1098.14,-37.82 1087.67,-36.19 1094.84,-43.99 1098.14,-37.82"/>
</g>
<!-- ocaml&#45;system -->
<g id="node31" class="node">
<title>ocaml&#45;system</title>
<polygon fill="none" stroke="black" points="1233,-36 1140,-36 1140,0 1233,0 1233,-36"/>
<text text-anchor="middle" x="1186.5" y="-14.3" font-family="Times,serif" font-size="14.00">ocaml&#45;system</text>
</g>
<!-- ocaml&#45;config&#45;&gt;ocaml&#45;system -->
<g id="edge44" class="edge">
<title>ocaml&#45;config&#45;&gt;ocaml&#45;system</title>
<path fill="none" stroke="black" d="M1186.5,-71.7C1186.5,-63.98 1186.5,-54.71 1186.5,-46.11"/>
<polygon fill="black" stroke="black" points="1190,-46.1 1186.5,-36.1 1183,-46.1 1190,-46.1"/>
</g>
<!-- ocaml&#45;variants -->
<g id="node32" class="node">
<title>ocaml&#45;variants</title>
<polygon fill="none" stroke="black" points="1349.5,-36 1251.5,-36 1251.5,0 1349.5,0 1349.5,-36"/>
<text text-anchor="middle" x="1300.5" y="-14.3" font-family="Times,serif" font-size="14.00">ocaml&#45;variants</text>
</g>
<!-- ocaml&#45;config&#45;&gt;ocaml&#45;variants -->
<g id="edge45" class="edge">
<title>ocaml&#45;config&#45;&gt;ocaml&#45;variants</title>
<path fill="none" stroke="black" d="M1214.39,-71.88C1229.29,-62.72 1247.83,-51.34 1263.88,-41.48"/>
<polygon fill="black" stroke="black" points="1265.81,-44.41 1272.51,-36.19 1262.15,-38.44 1265.81,-44.41"/>
</g>
<!-- ocamlbuild -->
<g id="node33" class="node">
<title>ocamlbuild</title>
<polygon fill="none" stroke="black" points="1232.5,-252 1154.5,-252 1154.5,-216 1232.5,-216 1232.5,-252"/>
<text text-anchor="middle" x="1193.5" y="-230.3" font-family="Times,serif" font-size="14.00">ocamlbuild</text>
</g>
<!-- ocamlbuild&#45;&gt;ocaml -->
<g id="edge46" class="edge">
<title>ocamlbuild&#45;&gt;ocaml</title>
<path fill="none" stroke="black" d="M1176.2,-215.7C1167.64,-207.14 1157.16,-196.66 1147.8,-187.3"/>
<polygon fill="black" stroke="black" points="1150.15,-184.7 1140.6,-180.1 1145.2,-189.65 1150.15,-184.7"/>
</g>
<!-- ocamlfind&#45;&gt;graphics -->
<g id="edge47" class="edge">
<title>ocamlfind&#45;&gt;graphics</title>
<path fill="none" stroke="black" d="M1287.5,-215.7C1287.5,-207.98 1287.5,-198.71 1287.5,-190.11"/>
<polygon fill="black" stroke="black" points="1291,-190.1 1287.5,-180.1 1284,-190.1 1291,-190.1"/>
</g>
<!-- ocamlfind&#45;&gt;ocaml -->
<g id="edge48" class="edge">
<title>ocamlfind&#45;&gt;ocaml</title>
<path fill="none" stroke="black" d="M1251.23,-218.26C1225.74,-207.81 1190.92,-193.33 1160.5,-180 1160.3,-179.91 1160.09,-179.82 1159.89,-179.73"/>
<polygon fill="black" stroke="black" points="1161.09,-176.43 1150.53,-175.55 1158.23,-182.83 1161.09,-176.43"/>
</g>
<!-- ocamlgraph -->
<g id="node36" class="node">
<title>ocamlgraph</title>
<polygon fill="none" stroke="black" points="543,-396 462,-396 462,-360 543,-360 543,-396"/>
<text text-anchor="middle" x="502.5" y="-374.3" font-family="Times,serif" font-size="14.00">ocamlgraph</text>
</g>
<!-- stdlib&#45;shims -->
<g id="node52" class="node">
<title>stdlib&#45;shims</title>
<polygon fill="none" stroke="black" points="299,-324 216,-324 216,-288 299,-288 299,-324"/>
<text text-anchor="middle" x="257.5" y="-302.3" font-family="Times,serif" font-size="14.00">stdlib&#45;shims</text>
</g>
<!-- ocamlgraph&#45;&gt;stdlib&#45;shims -->
<g id="edge49" class="edge">
<title>ocamlgraph&#45;&gt;stdlib&#45;shims</title>
<path fill="none" stroke="black" d="M461.93,-362.89C458.75,-361.88 455.58,-360.91 452.5,-360 392.18,-342.24 373.57,-342.39 309.03,-324.03"/>
<polygon fill="black" stroke="black" points="309.75,-320.59 299.17,-321.18 307.8,-327.31 309.75,-320.59"/>
</g>
<!-- ocplib&#45;endian&#45;&gt;base&#45;bytes -->
<g id="edge50" class="edge">
<title>ocplib&#45;endian&#45;&gt;base&#45;bytes</title>
<path fill="none" stroke="black" d="M1287.5,-359.7C1287.5,-351.98 1287.5,-342.71 1287.5,-334.11"/>
<polygon fill="black" stroke="black" points="1291,-334.1 1287.5,-324.1 1284,-334.1 1291,-334.1"/>
</g>
<!-- ocplib&#45;endian&#45;&gt;cppo -->
<g id="edge51" class="edge">
<title>ocplib&#45;endian&#45;&gt;cppo</title>
<path fill="none" stroke="black" d="M1241.71,-362.33C1238.61,-361.49 1235.52,-360.71 1232.5,-360 1138.32,-337.92 1107.92,-352.61 1011.55,-323.83"/>
<polygon fill="black" stroke="black" points="1012.29,-320.4 1001.7,-320.81 1010.23,-327.09 1012.29,-320.4"/>
</g>
<!-- odoc&#45;&gt;cppo -->
<g id="edge52" class="edge">
<title>odoc&#45;&gt;cppo</title>
<path fill="none" stroke="black" d="M879.75,-503.85C897.72,-466.52 940.47,-377.69 961.86,-333.26"/>
<polygon fill="black" stroke="black" points="965.02,-334.76 966.21,-324.23 958.72,-331.73 965.02,-334.76"/>
</g>
<!-- odoc&#45;&gt;fmt -->
<g id="edge53" class="edge">
<title>odoc&#45;&gt;fmt</title>
<path fill="none" stroke="black" d="M898.72,-521.46C969.21,-521.88 1162.75,-518 1313.5,-468 1359.61,-452.71 1407.29,-422.84 1437.37,-401.94"/>
<polygon fill="black" stroke="black" points="1439.59,-404.65 1445.75,-396.03 1435.56,-398.93 1439.59,-404.65"/>
</g>
<!-- odoc&#45;&gt;fpath -->
<g id="edge54" class="edge">
<title>odoc&#45;&gt;fpath</title>
<path fill="none" stroke="black" d="M898.65,-515.15C956.72,-502.64 1093.07,-473.28 1159.21,-459.03"/>
<polygon fill="black" stroke="black" points="1160.16,-462.41 1169.2,-456.88 1158.69,-455.56 1160.16,-462.41"/>
</g>
<!-- odoc&#45;parser -->
<g id="node39" class="node">
<title>odoc&#45;parser</title>
<polygon fill="none" stroke="black" points="490.5,-468 410.5,-468 410.5,-432 490.5,-432 490.5,-468"/>
<text text-anchor="middle" x="450.5" y="-446.3" font-family="Times,serif" font-size="14.00">odoc&#45;parser</text>
</g>
<!-- odoc&#45;&gt;odoc&#45;parser -->
<g id="edge55" class="edge">
<title>odoc&#45;&gt;odoc&#45;parser</title>
<path fill="none" stroke="black" d="M844.4,-512.85C833.34,-509.75 820.38,-506.39 808.5,-504 690.24,-480.24 658.56,-487.32 539.5,-468 526.88,-465.95 513.3,-463.49 500.65,-461.09"/>
<polygon fill="black" stroke="black" points="501.21,-457.63 490.73,-459.18 499.89,-464.5 501.21,-457.63"/>
</g>
<!-- tyxml -->
<g id="node54" class="node">
<title>tyxml</title>
<polygon fill="none" stroke="black" points="871.5,-468 817.5,-468 817.5,-432 871.5,-432 871.5,-468"/>
<text text-anchor="middle" x="844.5" y="-446.3" font-family="Times,serif" font-size="14.00">tyxml</text>
</g>
<!-- odoc&#45;&gt;tyxml -->
<g id="edge56" class="edge">
<title>odoc&#45;&gt;tyxml</title>
<path fill="none" stroke="black" d="M864.83,-503.7C861.79,-495.81 858.12,-486.3 854.74,-477.55"/>
<polygon fill="black" stroke="black" points="857.96,-476.17 851.1,-468.1 851.43,-478.69 857.96,-476.17"/>
</g>
<!-- odoc&#45;parser&#45;&gt;astring -->
<g id="edge57" class="edge">
<title>odoc&#45;parser&#45;&gt;astring</title>
<path fill="none" stroke="black" d="M490.64,-440.18C505.87,-437.13 523.42,-433.99 539.5,-432 810.51,-398.41 890.65,-462.67 1159.34,-395.67"/>
<polygon fill="black" stroke="black" points="1160.55,-398.97 1169.39,-393.12 1158.83,-392.18 1160.55,-398.97"/>
</g>
<!-- odoc&#45;parser&#45;&gt;camlp&#45;streams -->
<g id="edge58" class="edge">
<title>odoc&#45;parser&#45;&gt;camlp&#45;streams</title>
<path fill="none" stroke="black" d="M410.42,-432.36C389.89,-423.01 364.98,-410.34 344.5,-396 325.44,-382.65 326.43,-372 306.5,-360 297.6,-354.64 248.78,-338.46 207.9,-325.37"/>
<polygon fill="black" stroke="black" points="208.84,-322 198.25,-322.29 206.72,-328.67 208.84,-322"/>
</g>
<!-- odoc&#45;parser&#45;&gt;result -->
<g id="edge59" class="edge">
<title>odoc&#45;parser&#45;&gt;result</title>
<path fill="none" stroke="black" d="M410.24,-434C382.42,-423.55 344.62,-409.18 311.5,-396 310.11,-395.45 308.7,-394.88 307.28,-394.31"/>
<polygon fill="black" stroke="black" points="308.38,-390.98 297.8,-390.45 305.74,-397.46 308.38,-390.98"/>
</g>
<!-- opam&#45;core -->
<g id="node40" class="node">
<title>opam&#45;core</title>
<polygon fill="none" stroke="black" points="624,-468 549,-468 549,-432 624,-432 624,-468"/>
<text text-anchor="middle" x="586.5" y="-446.3" font-family="Times,serif" font-size="14.00">opam&#45;core</text>
</g>
<!-- opam&#45;core&#45;&gt;base&#45;bigarray -->
<g id="edge60" class="edge">
<title>opam&#45;core&#45;&gt;base&#45;bigarray</title>
<path fill="none" stroke="black" d="M548.91,-435C521.54,-424.81 484.06,-410.86 453.36,-399.43"/>
<polygon fill="black" stroke="black" points="454.24,-396.02 443.65,-395.81 451.8,-402.58 454.24,-396.02"/>
</g>
<!-- opam&#45;core&#45;&gt;cppo -->
<g id="edge61" class="edge">
<title>opam&#45;core&#45;&gt;cppo</title>
<path fill="none" stroke="black" d="M624.18,-439.17C674.19,-425.97 757.69,-403.32 770.5,-396 790.7,-384.45 788.24,-371.44 808.5,-360 858.05,-332.01 880.03,-343.53 937.63,-323.91"/>
<polygon fill="black" stroke="black" points="938.96,-327.16 947.19,-320.49 936.6,-320.57 938.96,-327.16"/>
</g>
<!-- opam&#45;core&#45;&gt;ocamlgraph -->
<g id="edge62" class="edge">
<title>opam&#45;core&#45;&gt;ocamlgraph</title>
<path fill="none" stroke="black" d="M565.74,-431.7C555.26,-422.97 542.39,-412.24 531,-402.75"/>
<polygon fill="black" stroke="black" points="532.95,-399.82 523.03,-396.1 528.47,-405.19 532.95,-399.82"/>
</g>
<!-- re -->
<g id="node47" class="node">
<title>re</title>
<polygon fill="none" stroke="black" points="761.5,-396 707.5,-396 707.5,-360 761.5,-360 761.5,-396"/>
<text text-anchor="middle" x="734.5" y="-374.3" font-family="Times,serif" font-size="14.00">re</text>
</g>
<!-- opam&#45;core&#45;&gt;re -->
<g id="edge63" class="edge">
<title>opam&#45;core&#45;&gt;re</title>
<path fill="none" stroke="black" d="M622.7,-431.88C645.72,-420.99 675.4,-406.95 698.4,-396.07"/>
<polygon fill="black" stroke="black" points="699.94,-399.22 707.49,-391.78 696.95,-392.89 699.94,-399.22"/>
</g>
<!-- opam&#45;file&#45;format -->
<g id="node41" class="node">
<title>opam&#45;file&#45;format</title>
<polygon fill="none" stroke="black" points="111,-468 0,-468 0,-432 111,-432 111,-468"/>
<text text-anchor="middle" x="55.5" y="-446.3" font-family="Times,serif" font-size="14.00">opam&#45;file&#45;format</text>
</g>
<!-- opam&#45;file&#45;format&#45;&gt;dune -->
<g id="edge64" class="edge">
<title>opam&#45;file&#45;format&#45;&gt;dune</title>
<path fill="none" stroke="black" d="M51.91,-431.89C46.08,-398.76 38.84,-325.78 78.5,-288 116.74,-251.57 486.7,-239.01 606.95,-235.87"/>
<polygon fill="black" stroke="black" points="607.23,-239.36 617.14,-235.61 607.05,-232.37 607.23,-239.36"/>
</g>
<!-- opam&#45;format -->
<g id="node42" class="node">
<title>opam&#45;format</title>
<polygon fill="none" stroke="black" points="631,-540 542,-540 542,-504 631,-504 631,-540"/>
<text text-anchor="middle" x="586.5" y="-518.3" font-family="Times,serif" font-size="14.00">opam&#45;format</text>
</g>
<!-- opam&#45;format&#45;&gt;opam&#45;core -->
<g id="edge65" class="edge">
<title>opam&#45;format&#45;&gt;opam&#45;core</title>
<path fill="none" stroke="black" d="M586.5,-503.7C586.5,-495.98 586.5,-486.71 586.5,-478.11"/>
<polygon fill="black" stroke="black" points="590,-478.1 586.5,-468.1 583,-478.1 590,-478.1"/>
</g>
<!-- opam&#45;format&#45;&gt;opam&#45;file&#45;format -->
<g id="edge66" class="edge">
<title>opam&#45;format&#45;&gt;opam&#45;file&#45;format</title>
<path fill="none" stroke="black" d="M541.68,-515.09C447.97,-502.74 230.93,-474.13 121.34,-459.68"/>
<polygon fill="black" stroke="black" points="121.77,-456.21 111.39,-458.37 120.85,-463.15 121.77,-456.21"/>
</g>
<!-- opam&#45;repository -->
<g id="node43" class="node">
<title>opam&#45;repository</title>
<polygon fill="none" stroke="black" points="711,-612 604,-612 604,-576 711,-576 711,-612"/>
<text text-anchor="middle" x="657.5" y="-590.3" font-family="Times,serif" font-size="14.00">opam&#45;repository</text>
</g>
<!-- opam&#45;repository&#45;&gt;opam&#45;format -->
<g id="edge67" class="edge">
<title>opam&#45;repository&#45;&gt;opam&#45;format</title>
<path fill="none" stroke="black" d="M639.95,-575.7C631.27,-567.14 620.64,-556.66 611.15,-547.3"/>
<polygon fill="black" stroke="black" points="613.43,-544.63 603.85,-540.1 608.51,-549.62 613.43,-544.63"/>
</g>
<!-- opam&#45;state&#45;&gt;opam&#45;repository -->
<g id="edge68" class="edge">
<title>opam&#45;state&#45;&gt;opam&#45;repository</title>
<path fill="none" stroke="black" d="M680.08,-647.7C676.71,-639.81 672.63,-630.3 668.88,-621.55"/>
<polygon fill="black" stroke="black" points="671.99,-619.92 664.83,-612.1 665.55,-622.67 671.99,-619.92"/>
</g>
<!-- ppx_derivers -->
<g id="node45" class="node">
<title>ppx_derivers</title>
<polygon fill="none" stroke="black" points="551,-324 464,-324 464,-288 551,-288 551,-324"/>
<text text-anchor="middle" x="507.5" y="-302.3" font-family="Times,serif" font-size="14.00">ppx_derivers</text>
</g>
<!-- ppx_derivers&#45;&gt;dune -->
<g id="edge69" class="edge">
<title>ppx_derivers&#45;&gt;dune</title>
<path fill="none" stroke="black" d="M541.01,-287.88C561.35,-277.49 587.3,-264.22 608.13,-253.58"/>
<polygon fill="black" stroke="black" points="609.99,-256.56 617.31,-248.9 606.81,-250.33 609.99,-256.56"/>
</g>
<!-- ppxlib&#45;&gt;ocaml&#45;compiler&#45;libs -->
<g id="edge70" class="edge">
<title>ppxlib&#45;&gt;ocaml&#45;compiler&#45;libs</title>
<path fill="none" stroke="black" d="M561.19,-363.98C557.95,-362.57 554.67,-361.22 551.5,-360 519.47,-347.71 483.25,-336.11 452.51,-326.92"/>
<polygon fill="black" stroke="black" points="453.31,-323.51 442.73,-324.02 451.32,-330.22 453.31,-323.51"/>
</g>
<!-- ppxlib&#45;&gt;ppx_derivers -->
<g id="edge71" class="edge">
<title>ppxlib&#45;&gt;ppx_derivers</title>
<path fill="none" stroke="black" d="M568.48,-359.7C558.37,-350.97 545.96,-340.24 534.98,-330.75"/>
<polygon fill="black" stroke="black" points="537.15,-327.99 527.29,-324.1 532.57,-333.29 537.15,-327.99"/>
</g>
<!-- sexplib0 -->
<g id="node51" class="node">
<title>sexplib0</title>
<polygon fill="none" stroke="black" points="631.5,-324 569.5,-324 569.5,-288 631.5,-288 631.5,-324"/>
<text text-anchor="middle" x="600.5" y="-302.3" font-family="Times,serif" font-size="14.00">sexplib0</text>
</g>
<!-- ppxlib&#45;&gt;sexplib0 -->
<g id="edge72" class="edge">
<title>ppxlib&#45;&gt;sexplib0</title>
<path fill="none" stroke="black" d="M591.47,-359.7C592.79,-351.98 594.38,-342.71 595.85,-334.11"/>
<polygon fill="black" stroke="black" points="599.33,-334.55 597.57,-324.1 592.43,-333.37 599.33,-334.55"/>
</g>
<!-- ppxlib&#45;&gt;stdlib&#45;shims -->
<g id="edge73" class="edge">
<title>ppxlib&#45;&gt;stdlib&#45;shims</title>
<path fill="none" stroke="black" d="M561.36,-363.48C558.09,-362.17 554.75,-360.97 551.5,-360 449.91,-329.81 416.64,-348.2 309.03,-323.84"/>
<polygon fill="black" stroke="black" points="309.61,-320.38 299.08,-321.52 308.02,-327.2 309.61,-320.38"/>
</g>
<!-- re&#45;&gt;dune -->
<g id="edge74" class="edge">
<title>re&#45;&gt;dune</title>
<path fill="none" stroke="black" d="M761.52,-365.48C786.55,-354.19 820.99,-336.86 828.5,-324 836.57,-310.18 838.12,-300.78 828.5,-288 810.9,-264.62 730.46,-248.33 681.96,-240.43"/>
<polygon fill="black" stroke="black" points="682.26,-236.94 671.83,-238.83 681.16,-243.85 682.26,-236.94"/>
</g>
<!-- seq -->
<g id="node50" class="node">
<title>seq</title>
<polygon fill="none" stroke="black" points="929.5,-324 875.5,-324 875.5,-288 929.5,-288 929.5,-324"/>
<text text-anchor="middle" x="902.5" y="-302.3" font-family="Times,serif" font-size="14.00">seq</text>
</g>
<!-- re&#45;&gt;seq -->
<g id="edge75" class="edge">
<title>re&#45;&gt;seq</title>
<path fill="none" stroke="black" d="M761.87,-365.6C790.26,-353.77 834.82,-335.2 866.16,-322.14"/>
<polygon fill="black" stroke="black" points="867.54,-325.36 875.42,-318.28 864.85,-318.9 867.54,-325.36"/>
</g>
<!-- result&#45;&gt;dune -->
<g id="edge76" class="edge">
<title>result&#45;&gt;dune</title>
<path fill="none" stroke="black" d="M243.22,-373.65C182.37,-365.18 44.47,-339.75 91.5,-288 126.17,-249.85 488.63,-238.46 607.2,-235.74"/>
<polygon fill="black" stroke="black" points="607.33,-239.23 617.25,-235.51 607.17,-232.24 607.33,-239.23"/>
</g>
<!-- rresult&#45;&gt;topkg -->
<g id="edge77" class="edge">
<title>rresult&#45;&gt;topkg</title>
<path fill="none" stroke="black" d="M1463.17,-575.97C1492.83,-533.89 1560.19,-423.83 1504.5,-360 1465.72,-315.55 1298.14,-340.49 1241.5,-324 1241.4,-323.97 1241.3,-323.94 1241.19,-323.91"/>
<polygon fill="black" stroke="black" points="1242.23,-320.56 1231.63,-320.55 1239.91,-327.17 1242.23,-320.56"/>
</g>
<!-- seq&#45;&gt;ocaml -->
<g id="edge78" class="edge">
<title>seq&#45;&gt;ocaml</title>
<path fill="none" stroke="black" d="M929.16,-287.87C968.98,-262.28 1044.05,-214.05 1088.32,-185.6"/>
<polygon fill="black" stroke="black" points="1090.23,-188.54 1096.75,-180.19 1086.44,-182.65 1090.23,-188.54"/>
</g>
<!-- sexplib0&#45;&gt;dune -->
<g id="edge79" class="edge">
<title>sexplib0&#45;&gt;dune</title>
<path fill="none" stroke="black" d="M611.38,-287.7C616.49,-279.56 622.7,-269.69 628.34,-260.7"/>
<polygon fill="black" stroke="black" points="631.39,-262.43 633.75,-252.1 625.46,-258.71 631.39,-262.43"/>
</g>
<!-- stdlib&#45;shims&#45;&gt;dune -->
<g id="edge80" class="edge">
<title>stdlib&#45;shims&#45;&gt;dune</title>
<path fill="none" stroke="black" d="M299.08,-290.52C302.25,-289.6 305.42,-288.75 308.5,-288 415.35,-261.95 544.55,-245.76 607.04,-238.86"/>
<polygon fill="black" stroke="black" points="607.63,-242.32 617.2,-237.76 606.88,-235.36 607.63,-242.32"/>
</g>
<!-- topkg&#45;&gt;ocamlbuild -->
<g id="edge81" class="edge">
<title>topkg&#45;&gt;ocamlbuild</title>
<path fill="none" stroke="black" d="M1201.78,-287.7C1200.57,-279.98 1199.11,-270.71 1197.76,-262.11"/>
<polygon fill="black" stroke="black" points="1201.2,-261.44 1196.19,-252.1 1194.28,-262.53 1201.2,-261.44"/>
</g>
<!-- topkg&#45;&gt;ocamlfind -->
<g id="edge82" class="edge">
<title>topkg&#45;&gt;ocamlfind</title>
<path fill="none" stroke="black" d="M1225.02,-287.7C1235.37,-278.97 1248.09,-268.24 1259.34,-258.75"/>
<polygon fill="black" stroke="black" points="1261.83,-261.23 1267.22,-252.1 1257.32,-255.88 1261.83,-261.23"/>
</g>
<!-- tyxml&#45;&gt;re -->
<g id="edge83" class="edge">
<title>tyxml&#45;&gt;re</title>
<path fill="none" stroke="black" d="M817.59,-431.88C803.34,-422.81 785.65,-411.55 770.26,-401.76"/>
<polygon fill="black" stroke="black" points="771.83,-398.61 761.51,-396.19 768.07,-404.51 771.83,-398.61"/>
</g>
<!-- uutf -->
<g id="node55" class="node">
<title>uutf</title>
<polygon fill="none" stroke="black" points="1151.5,-396 1097.5,-396 1097.5,-360 1151.5,-360 1151.5,-396"/>
<text text-anchor="middle" x="1124.5" y="-374.3" font-family="Times,serif" font-size="14.00">uutf</text>
</g>
<!-- tyxml&#45;&gt;uutf -->
<g id="edge84" class="edge">
<title>tyxml&#45;&gt;uutf</title>
<path fill="none" stroke="black" d="M871.76,-445.15C915.74,-438.51 1005,-423.2 1087.72,-395.87"/>
<polygon fill="black" stroke="black" points="1088.89,-399.17 1097.25,-392.65 1086.65,-392.53 1088.89,-399.17"/>
</g>
<!-- uutf&#45;&gt;cmdliner -->
<g id="edge85" class="edge">
<title>uutf&#45;&gt;cmdliner</title>
<path fill="none" stroke="black" d="M1124.5,-359.7C1124.5,-351.98 1124.5,-342.71 1124.5,-334.11"/>
<polygon fill="black" stroke="black" points="1128,-334.1 1124.5,-324.1 1121,-334.1 1128,-334.1"/>
</g>
<!-- uutf&#45;&gt;topkg -->
<g id="edge86" class="edge">
<title>uutf&#45;&gt;topkg</title>
<path fill="none" stroke="black" d="M1144.28,-359.7C1154.25,-350.97 1166.51,-340.24 1177.36,-330.75"/>
<polygon fill="black" stroke="black" points="1179.73,-333.32 1184.95,-324.1 1175.12,-328.06 1179.73,-333.32"/>
</g>
<!-- yojson&#45;&gt;cppo -->
<g id="edge87" class="edge">
<title>yojson&#45;&gt;cppo</title>
<path fill="none" stroke="black" d="M871.75,-362.33C891.08,-351.92 917.22,-337.84 938.3,-326.49"/>
<polygon fill="black" stroke="black" points="940.14,-329.48 947.28,-321.65 936.82,-323.31 940.14,-329.48"/>
</g>
<!-- yojson&#45;&gt;seq -->
<g id="edge88" class="edge">
<title>yojson&#45;&gt;seq</title>
<path fill="none" stroke="black" d="M858.84,-359.7C865.79,-351.3 874.27,-341.07 881.9,-331.86"/>
<polygon fill="black" stroke="black" points="884.64,-334.04 888.33,-324.1 879.25,-329.57 884.64,-334.04"/>
</g>
</g>
</svg>
