<?xml version="1.0" encoding="UTF-8" standalone="no"?>
<!DOCTYPE svg PUBLIC "-//W3C//DTD SVG 1.1//EN"
 "http://www.w3.org/Graphics/SVG/1.1/DTD/svg11.dtd">
<!-- Generated by graphviz version 2.43.0 (0)
 -->
<!-- Title: G Pages: 1 -->
<svg width="334pt" height="260pt"
 viewBox="0.00 0.00 333.50 260.00" xmlns="http://www.w3.org/2000/svg" xmlns:xlink="http://www.w3.org/1999/xlink">
<g id="graph0" class="graph" transform="scale(1 1) rotate(0) translate(4 256)">
<title>G</title>
<polygon fill="white" stroke="transparent" points="-4,4 -4,-256 329.5,-256 329.5,4 -4,4"/>
<!-- alcotest -->
<g id="node1" class="node">
<title>alcotest</title>
<polygon fill="none" stroke="black" points="93,-108 35,-108 35,-72 93,-72 93,-108"/>
<text text-anchor="middle" x="64" y="-86.3" font-family="Times,serif" font-size="14.00">alcotest</text>
</g>
<!-- fmt -->
<g id="node4" class="node">
<title>fmt</title>
<polygon fill="none" stroke="black" points="165,-36 111,-36 111,0 165,0 165,-36"/>
<text text-anchor="middle" x="138" y="-14.3" font-family="Times,serif" font-size="14.00">fmt</text>
</g>
<!-- alcotest&#45;&gt;fmt -->
<g id="edge1" class="edge">
<title>alcotest&#45;&gt;fmt</title>
<path fill="none" stroke="black" d="M82.29,-71.7C91.43,-63.05 102.64,-52.45 112.6,-43.03"/>
<polygon fill="black" stroke="black" points="115.06,-45.52 119.92,-36.1 110.25,-40.43 115.06,-45.52"/>
</g>
<!-- bos -->
<g id="node2" class="node">
<title>bos</title>
<polygon fill="none" stroke="black" points="232,-180 178,-180 178,-144 232,-144 232,-180"/>
<text text-anchor="middle" x="205" y="-158.3" font-family="Times,serif" font-size="14.00">bos</text>
</g>
<!-- logs -->
<g id="node6" class="node">
<title>logs</title>
<polygon fill="none" stroke="black" points="165,-108 111,-108 111,-72 165,-72 165,-108"/>
<text text-anchor="middle" x="138" y="-86.3" font-family="Times,serif" font-size="14.00">logs</text>
</g>
<!-- bos&#45;&gt;logs -->
<g id="edge2" class="edge">
<title>bos&#45;&gt;logs</title>
<path fill="none" stroke="black" d="M188.44,-143.7C180.32,-135.22 170.41,-124.86 161.53,-115.58"/>
<polygon fill="black" stroke="black" points="163.81,-112.91 154.37,-108.1 158.76,-117.75 163.81,-112.91"/>
</g>
<!-- dune&#45;release -->
<g id="node3" class="node">
<title>dune&#45;release</title>
<polygon fill="none" stroke="black" points="325.5,-252 240.5,-252 240.5,-216 325.5,-216 325.5,-252"/>
<text text-anchor="middle" x="283" y="-230.3" font-family="Times,serif" font-size="14.00">dune&#45;release</text>
</g>
<!-- dune&#45;release&#45;&gt;bos -->
<g id="edge3" class="edge">
<title>dune&#45;release&#45;&gt;bos</title>
<path fill="none" stroke="black" d="M263.72,-215.7C254.08,-207.05 242.27,-196.45 231.77,-187.03"/>
<polygon fill="black" stroke="black" points="233.84,-184.18 224.06,-180.1 229.16,-189.39 233.84,-184.18"/>
</g>
<!-- odoc -->
<g id="node8" class="node">
<title>odoc</title>
<polygon fill="none" stroke="black" points="280,-108 226,-108 226,-72 280,-72 280,-108"/>
<text text-anchor="middle" x="253" y="-86.3" font-family="Times,serif" font-size="14.00">odoc</text>
</g>
<!-- dune&#45;release&#45;&gt;odoc -->
<g id="edge4" class="edge">
<title>dune&#45;release&#45;&gt;odoc</title>
<path fill="none" stroke="black" d="M279.38,-215.87C274.25,-191.56 264.79,-146.82 258.71,-118.01"/>
<polygon fill="black" stroke="black" points="262.12,-117.25 256.63,-108.19 255.27,-118.7 262.12,-117.25"/>
</g>
<!-- lambda&#45;term -->
<g id="node5" class="node">
<title>lambda&#45;term</title>
<polygon fill="none" stroke="black" points="159.5,-180 72.5,-180 72.5,-144 159.5,-144 159.5,-180"/>
<text text-anchor="middle" x="116" y="-158.3" font-family="Times,serif" font-size="14.00">lambda&#45;term</text>
</g>
<!-- lambda&#45;term&#45;&gt;logs -->
<g id="edge5" class="edge">
<title>lambda&#45;term&#45;&gt;logs</title>
<path fill="none" stroke="black" d="M121.44,-143.7C123.89,-135.9 126.84,-126.51 129.57,-117.83"/>
<polygon fill="black" stroke="black" points="132.96,-118.69 132.62,-108.1 126.29,-116.59 132.96,-118.69"/>
</g>
<!-- logs&#45;&gt;fmt -->
<g id="edge6" class="edge">
<title>logs&#45;&gt;fmt</title>
<path fill="none" stroke="black" d="M138,-71.7C138,-63.98 138,-54.71 138,-46.11"/>
<polygon fill="black" stroke="black" points="141.5,-46.1 138,-36.1 134.5,-46.1 141.5,-46.1"/>
</g>
<!-- mdx -->
<g id="node7" class="node">
<title>mdx</title>
<polygon fill="none" stroke="black" points="54,-180 0,-180 0,-144 54,-144 54,-180"/>
<text text-anchor="middle" x="27" y="-158.3" font-family="Times,serif" font-size="14.00">mdx</text>
</g>
<!-- mdx&#45;&gt;logs -->
<g id="edge7" class="edge">
<title>mdx&#45;&gt;logs</title>
<path fill="none" stroke="black" d="M54.15,-143.88C68.53,-134.81 86.38,-123.55 101.91,-113.76"/>
<polygon fill="black" stroke="black" points="104.15,-116.48 110.74,-108.19 100.42,-110.56 104.15,-116.48"/>
</g>
<!-- odoc&#45;&gt;fmt -->
<g id="edge8" class="edge">
<title>odoc&#45;&gt;fmt</title>
<path fill="none" stroke="black" d="M225.75,-72.41C210.28,-63 190.73,-51.1 174.01,-40.92"/>
<polygon fill="black" stroke="black" points="175.42,-37.68 165.06,-35.47 171.78,-43.66 175.42,-37.68"/>
</g>
<!-- opam&#45;dot -->
<g id="node9" class="node">
<title>opam&#45;dot</title>
<polygon fill="none" stroke="black" points="222.5,-252 153.5,-252 153.5,-216 222.5,-216 222.5,-252"/>
<text text-anchor="middle" x="188" y="-230.3" font-family="Times,serif" font-size="14.00">opam&#45;dot</text>
</g>
<!-- opam&#45;dot&#45;&gt;bos -->
<g id="edge9" class="edge">
<title>opam&#45;dot&#45;&gt;bos</title>
<path fill="none" stroke="black" d="M192.2,-215.7C194.1,-207.9 196.38,-198.51 198.48,-189.83"/>
<polygon fill="black" stroke="black" points="201.89,-190.65 200.85,-180.1 195.08,-189 201.89,-190.65"/>
</g>
<!-- utop -->
<g id="node10" class="node">
<title>utop</title>
<polygon fill="none" stroke="black" points="135,-252 81,-252 81,-216 135,-216 135,-252"/>
<text text-anchor="middle" x="108" y="-230.3" font-family="Times,serif" font-size="14.00">utop</text>
</g>
<!-- utop&#45;&gt;lambda&#45;term -->
<g id="edge10" class="edge">
<title>utop&#45;&gt;lambda&#45;term</title>
<path fill="none" stroke="black" d="M109.98,-215.7C110.86,-207.98 111.92,-198.71 112.9,-190.11"/>
<polygon fill="black" stroke="black" points="116.39,-190.44 114.05,-180.1 109.43,-189.64 116.39,-190.44"/>
</g>
</g>
</svg>
