<?xml version="1.0" encoding="UTF-8" standalone="no"?>
<!DOCTYPE svg PUBLIC "-//W3C//DTD SVG 1.1//EN"
 "http://www.w3.org/Graphics/SVG/1.1/DTD/svg11.dtd">
<!-- Generated by graphviz version 2.43.0 (0)
 -->
<!-- Title: G Pages: 1 -->
<svg width="134pt" height="260pt"
 viewBox="0.00 0.00 134.00 260.00" xmlns="http://www.w3.org/2000/svg" xmlns:xlink="http://www.w3.org/1999/xlink">
<g id="graph0" class="graph" transform="scale(1 1) rotate(0) translate(4 256)">
<title>G</title>
<polygon fill="white" stroke="transparent" points="-4,4 -4,-256 130,-256 130,4 -4,4"/>
<!-- bos -->
<g id="node1" class="node">
<title>bos</title>
<polygon fill="none" stroke="black" points="62,-180 8,-180 8,-144 62,-144 62,-180"/>
<text text-anchor="middle" x="35" y="-158.3" font-family="Times,serif" font-size="14.00">bos</text>
</g>
<!-- logs -->
<g id="node4" class="node">
<title>logs</title>
<polygon fill="none" stroke="black" points="54,-108 0,-108 0,-72 54,-72 54,-108"/>
<text text-anchor="middle" x="27" y="-86.3" font-family="Times,serif" font-size="14.00">logs</text>
</g>
<!-- bos&#45;&gt;logs -->
<g id="edge1" class="edge">
<title>bos&#45;&gt;logs</title>
<path fill="none" stroke="black" d="M33.02,-143.7C32.14,-135.98 31.08,-126.71 30.1,-118.11"/>
<polygon fill="black" stroke="black" points="33.57,-117.64 28.95,-108.1 26.61,-118.44 33.57,-117.64"/>
</g>
<!-- dune&#45;release -->
<g id="node2" class="node">
<title>dune&#45;release</title>
<polygon fill="none" stroke="black" points="104.5,-252 19.5,-252 19.5,-216 104.5,-216 104.5,-252"/>
<text text-anchor="middle" x="62" y="-230.3" font-family="Times,serif" font-size="14.00">dune&#45;release</text>
</g>
<!-- dune&#45;release&#45;&gt;bos -->
<g id="edge2" class="edge">
<title>dune&#45;release&#45;&gt;bos</title>
<path fill="none" stroke="black" d="M55.33,-215.7C52.29,-207.81 48.62,-198.3 45.24,-189.55"/>
<polygon fill="black" stroke="black" points="48.46,-188.17 41.6,-180.1 41.93,-190.69 48.46,-188.17"/>
</g>
<!-- odoc -->
<g id="node5" class="node">
<title>odoc</title>
<polygon fill="none" stroke="black" points="126,-108 72,-108 72,-72 126,-72 126,-108"/>
<text text-anchor="middle" x="99" y="-86.3" font-family="Times,serif" font-size="14.00">odoc</text>
</g>
<!-- dune&#45;release&#45;&gt;odoc -->
<g id="edge3" class="edge">
<title>dune&#45;release&#45;&gt;odoc</title>
<path fill="none" stroke="black" d="M66.46,-215.87C72.8,-191.56 84.46,-146.82 91.96,-118.01"/>
<polygon fill="black" stroke="black" points="95.39,-118.75 94.52,-108.19 88.61,-116.98 95.39,-118.75"/>
</g>
<!-- fmt -->
<g id="node3" class="node">
<title>fmt</title>
<polygon fill="none" stroke="black" points="90,-36 36,-36 36,0 90,0 90,-36"/>
<text text-anchor="middle" x="63" y="-14.3" font-family="Times,serif" font-size="14.00">fmt</text>
</g>
<!-- logs&#45;&gt;fmt -->
<g id="edge4" class="edge">
<title>logs&#45;&gt;fmt</title>
<path fill="none" stroke="black" d="M35.9,-71.7C40,-63.73 44.95,-54.1 49.49,-45.26"/>
<polygon fill="black" stroke="black" points="52.74,-46.6 54.2,-36.1 46.52,-43.4 52.74,-46.6"/>
</g>
<!-- odoc&#45;&gt;fmt -->
<g id="edge5" class="edge">
<title>odoc&#45;&gt;fmt</title>
<path fill="none" stroke="black" d="M90.1,-71.7C86,-63.73 81.05,-54.1 76.51,-45.26"/>
<polygon fill="black" stroke="black" points="79.48,-43.4 71.8,-36.1 73.26,-46.6 79.48,-43.4"/>
</g>
</g>
</svg>
