<?xml version="1.0" encoding="UTF-8" standalone="no"?>
<!DOCTYPE svg PUBLIC "-//W3C//DTD SVG 1.1//EN"
 "http://www.w3.org/Graphics/SVG/1.1/DTD/svg11.dtd">
<!-- Generated by graphviz version 2.43.0 (0)
 -->
<!-- Title: G Pages: 1 -->
<svg width="134pt" height="268pt"
 viewBox="0.00 0.00 134.00 268.00" xmlns="http://www.w3.org/2000/svg" xmlns:xlink="http://www.w3.org/1999/xlink">
<g id="graph0" class="graph" transform="scale(1 1) rotate(0) translate(4 264)">
<title>G</title>
<polygon fill="white" stroke="transparent" points="-4,4 -4,-264 130,-264 130,4 -4,4"/>
<!-- bos
0.2.1 -->
<g id="node1" class="node">
<title>bos
0.2.1</title>
<polygon fill="none" stroke="black" points="62,-186 8,-186 8,-148 62,-148 62,-186"/>
<text text-anchor="middle" x="35" y="-170.8" font-family="Times,serif" font-size="14.00">bos</text>
<text text-anchor="middle" x="35" y="-155.8" font-family="Times,serif" font-size="14.00">0.2.1</text>
</g>
<!-- logs
0.7.0 -->
<g id="node4" class="node">
<title>logs
0.7.0</title>
<polygon fill="none" stroke="black" points="54,-112 0,-112 0,-74 54,-74 54,-112"/>
<text text-anchor="middle" x="27" y="-96.8" font-family="Times,serif" font-size="14.00">logs</text>
<text text-anchor="middle" x="27" y="-81.8" font-family="Times,serif" font-size="14.00">0.7.0</text>
</g>
<!-- bos
0.2.1&#45;&gt;logs
0.7.0 -->
<g id="edge1" class="edge">
<title>bos
0.2.1&#45;&gt;logs
0.7.0</title>
<path fill="none" stroke="black" d="M32.98,-147.83C32.13,-140.13 31.11,-130.97 30.16,-122.42"/>
<polygon fill="black" stroke="black" points="33.63,-121.97 29.05,-112.41 26.67,-122.74 33.63,-121.97"/>
</g>
<!-- dune&#45;release
1.6.2 -->
<g id="node2" class="node">
<title>dune&#45;release
1.6.2</title>
<polygon fill="none" stroke="black" points="104.5,-260 19.5,-260 19.5,-222 104.5,-222 104.5,-260"/>
<text text-anchor="middle" x="62" y="-244.8" font-family="Times,serif" font-size="14.00">dune&#45;release</text>
<text text-anchor="middle" x="62" y="-229.8" font-family="Times,serif" font-size="14.00">1.6.2</text>
</g>
<!-- dune&#45;release
1.6.2&#45;&gt;bos
0.2.1 -->
<g id="edge2" class="edge">
<title>dune&#45;release
1.6.2&#45;&gt;bos
0.2.1</title>
<path fill="none" stroke="black" d="M55.19,-221.83C52.24,-213.96 48.71,-204.57 45.44,-195.85"/>
<polygon fill="black" stroke="black" points="48.69,-194.55 41.9,-186.41 42.14,-197.01 48.69,-194.55"/>
</g>
<!-- odoc
2.2.0 -->
<g id="node5" class="node">
<title>odoc
2.2.0</title>
<polygon fill="none" stroke="black" points="126,-112 72,-112 72,-74 126,-74 126,-112"/>
<text text-anchor="middle" x="99" y="-96.8" font-family="Times,serif" font-size="14.00">odoc</text>
<text text-anchor="middle" x="99" y="-81.8" font-family="Times,serif" font-size="14.00">2.2.0</text>
</g>
<!-- dune&#45;release
1.6.2&#45;&gt;odoc
2.2.0 -->
<g id="edge3" class="edge">
<title>dune&#45;release
1.6.2&#45;&gt;odoc
2.2.0</title>
<path fill="none" stroke="black" d="M66.61,-221.8C72.93,-196.89 84.33,-151.89 91.78,-122.49"/>
<polygon fill="black" stroke="black" points="95.27,-122.98 94.33,-112.43 88.48,-121.26 95.27,-122.98"/>
</g>
<!-- fmt
0.9.0 -->
<g id="node3" class="node">
<title>fmt
0.9.0</title>
<polygon fill="none" stroke="black" points="90,-38 36,-38 36,0 90,0 90,-38"/>
<text text-anchor="middle" x="63" y="-22.8" font-family="Times,serif" font-size="14.00">fmt</text>
<text text-anchor="middle" x="63" y="-7.8" font-family="Times,serif" font-size="14.00">0.9.0</text>
</g>
<!-- logs
0.7.0&#45;&gt;fmt
0.9.0 -->
<g id="edge4" class="edge">
<title>logs
0.7.0&#45;&gt;fmt
0.9.0</title>
<path fill="none" stroke="black" stroke-dasharray="1,5" d="M36.08,-73.83C40.06,-65.88 44.82,-56.37 49.21,-47.57"/>
<polygon fill="black" stroke="black" points="52.45,-48.92 53.79,-38.41 46.19,-45.79 52.45,-48.92"/>
</g>
<!-- odoc
2.2.0&#45;&gt;fmt
0.9.0 -->
<g id="edge5" class="edge">
<title>odoc
2.2.0&#45;&gt;fmt
0.9.0</title>
<path fill="none" stroke="black" d="M89.92,-73.83C85.94,-65.88 81.18,-56.37 76.79,-47.57"/>
<polygon fill="black" stroke="black" points="79.81,-45.79 72.21,-38.41 73.55,-48.92 79.81,-45.79"/>
</g>
</g>
</svg>
