<?xml version="1.0" encoding="UTF-8" standalone="no"?>
<!DOCTYPE svg PUBLIC "-//W3C//DTD SVG 1.1//EN"
 "http://www.w3.org/Graphics/SVG/1.1/DTD/svg11.dtd">
<!-- Generated by graphviz version 2.43.0 (0)
 -->
<!-- Title: G Pages: 1 -->
<svg width="117pt" height="322pt"
 viewBox="0.00 0.00 117.00 322.00" xmlns="http://www.w3.org/2000/svg" xmlns:xlink="http://www.w3.org/1999/xlink">
<g id="graph0" class="graph" transform="scale(1 1) rotate(0) translate(4 318)">
<title>G</title>
<polygon fill="white" stroke="transparent" points="-4,4 -4,-318 113,-318 113,4 -4,4"/>
<!-- bos
0.2.1 -->
<g id="node1" class="node">
<title>bos
0.2.1</title>
<polygon fill="none" stroke="black" points="54,-225 0,-225 0,-187 54,-187 54,-225"/>
<text text-anchor="middle" x="27" y="-209.8" font-family="Times,serif" font-size="14.00">bos</text>
<text text-anchor="middle" x="27" y="-194.8" font-family="Times,serif" font-size="14.00">0.2.1</text>
</g>
<!-- logs
0.7.0 -->
<g id="node4" class="node">
<title>logs
0.7.0</title>
<polygon fill="none" stroke="black" points="54,-113 0,-113 0,-75 54,-75 54,-113"/>
<text text-anchor="middle" x="27" y="-97.8" font-family="Times,serif" font-size="14.00">logs</text>
<text text-anchor="middle" x="27" y="-82.8" font-family="Times,serif" font-size="14.00">0.7.0</text>
</g>
<!-- bos
0.2.1&#45;&gt;logs
0.7.0 -->
<g id="edge1" class="edge">
<title>bos
0.2.1&#45;&gt;logs
0.7.0</title>
<path fill="none" stroke="black" d="M27,-186.84C27,-169.56 27,-143.31 27,-123.29"/>
<polygon fill="black" stroke="black" points="30.5,-123.19 27,-113.19 23.5,-123.19 30.5,-123.19"/>
</g>
<!-- dune&#45;release
2.0.0 -->
<g id="node2" class="node">
<title>dune&#45;release
2.0.0</title>
<polygon fill="none" stroke="black" points="96.5,-314 11.5,-314 11.5,-276 96.5,-276 96.5,-314"/>
<text text-anchor="middle" x="54" y="-298.8" font-family="Times,serif" font-size="14.00">dune&#45;release</text>
<text text-anchor="middle" x="54" y="-283.8" font-family="Times,serif" font-size="14.00">2.0.0</text>
</g>
<!-- dune&#45;release
2.0.0&#45;&gt;bos
0.2.1 -->
<g id="edge2" class="edge">
<title>dune&#45;release
2.0.0&#45;&gt;bos
0.2.1</title>
<path fill="none" stroke="black" d="M34.09,-275.88C29.58,-270.6 25.41,-264.5 23,-258 20.39,-250.98 19.94,-243.06 20.5,-235.58"/>
<polygon fill="black" stroke="black" points="24,-235.84 21.85,-225.46 17.06,-234.91 24,-235.84"/>
<text text-anchor="middle" x="47.5" y="-246.8" font-family="Times,serif" font-size="14.00">&gt;= 0.1.3</text>
</g>
<!-- odoc
2.2.0 -->
<g id="node5" class="node">
<title>odoc
2.2.0</title>
<polygon fill="none" stroke="black" points="109,-169 55,-169 55,-131 109,-131 109,-169"/>
<text text-anchor="middle" x="82" y="-153.8" font-family="Times,serif" font-size="14.00">odoc</text>
<text text-anchor="middle" x="82" y="-138.8" font-family="Times,serif" font-size="14.00">2.2.0</text>
</g>
<!-- dune&#45;release
2.0.0&#45;&gt;odoc
2.2.0 -->
<g id="edge3" class="edge">
<title>dune&#45;release
2.0.0&#45;&gt;odoc
2.2.0</title>
<path fill="none" stroke="black" d="M64.71,-275.85C67.53,-270.29 70.27,-264.05 72,-258 79.41,-232.07 81.64,-201.3 82.18,-179.43"/>
<polygon fill="black" stroke="black" points="85.68,-179.22 82.32,-169.17 78.68,-179.12 85.68,-179.22"/>
</g>
<!-- fmt
0.9.0 -->
<g id="node3" class="node">
<title>fmt
0.9.0</title>
<polygon fill="none" stroke="black" points="81,-38 27,-38 27,0 81,0 81,-38"/>
<text text-anchor="middle" x="54" y="-22.8" font-family="Times,serif" font-size="14.00">fmt</text>
<text text-anchor="middle" x="54" y="-7.8" font-family="Times,serif" font-size="14.00">0.9.0</text>
</g>
<!-- logs
0.7.0&#45;&gt;fmt
0.9.0 -->
<g id="edge4" class="edge">
<title>logs
0.7.0&#45;&gt;fmt
0.9.0</title>
<path fill="none" stroke="black" stroke-dasharray="1,5" d="M33.67,-74.96C36.72,-66.71 40.41,-56.75 43.79,-47.6"/>
<polygon fill="black" stroke="black" points="47.12,-48.68 47.31,-38.09 40.56,-46.26 47.12,-48.68"/>
</g>
<!-- odoc
2.2.0&#45;&gt;fmt
0.9.0 -->
<g id="edge5" class="edge">
<title>odoc
2.2.0&#45;&gt;fmt
0.9.0</title>
<path fill="none" stroke="black" d="M78.05,-130.79C73.38,-109.28 65.56,-73.25 60.11,-48.14"/>
<polygon fill="black" stroke="black" points="63.47,-47.15 57.93,-38.12 56.63,-48.63 63.47,-47.15"/>
</g>
</g>
</svg>
