<?xml version="1.0" encoding="UTF-8" standalone="no"?>
<!DOCTYPE svg PUBLIC "-//W3C//DTD SVG 1.1//EN"
 "http://www.w3.org/Graphics/SVG/1.1/DTD/svg11.dtd">
<!-- Generated by graphviz version 2.43.0 (0)
 -->
<!-- Title: G Pages: 1 -->
<svg width="380pt" height="336pt"
 viewBox="0.00 0.00 380.00 336.00" xmlns="http://www.w3.org/2000/svg" xmlns:xlink="http://www.w3.org/1999/xlink">
<g id="graph0" class="graph" transform="scale(1 1) rotate(0) translate(4 332)">
<title>G</title>
<polygon fill="white" stroke="transparent" points="-4,4 -4,-332 376,-332 376,4 -4,4"/>
<!-- alcotest
1.6.0 -->
<g id="node1" class="node">
<title>alcotest
1.6.0</title>
<polygon fill="none" stroke="black" points="58,-127 0,-127 0,-89 58,-89 58,-127"/>
<text text-anchor="middle" x="29" y="-111.8" font-family="Times,serif" font-size="14.00">alcotest</text>
<text text-anchor="middle" x="29" y="-96.8" font-family="Times,serif" font-size="14.00">1.6.0</text>
</g>
<!-- fmt
0.9.0 -->
<g id="node4" class="node">
<title>fmt
0.9.0</title>
<polygon fill="none" stroke="black" points="120,-38 66,-38 66,0 120,0 120,-38"/>
<text text-anchor="middle" x="93" y="-22.8" font-family="Times,serif" font-size="14.00">fmt</text>
<text text-anchor="middle" x="93" y="-7.8" font-family="Times,serif" font-size="14.00">0.9.0</text>
</g>
<!-- alcotest
1.6.0&#45;&gt;fmt
0.9.0 -->
<g id="edge1" class="edge">
<title>alcotest
1.6.0&#45;&gt;fmt
0.9.0</title>
<path fill="none" stroke="black" d="M25.16,-88.81C23.96,-78.5 24.21,-65.75 30,-56 36.07,-45.78 46.22,-38.2 56.62,-32.71"/>
<polygon fill="black" stroke="black" points="58.19,-35.84 65.73,-28.4 55.2,-29.51 58.19,-35.84"/>
<text text-anchor="middle" x="54.5" y="-59.8" font-family="Times,serif" font-size="14.00">&gt;= 0.8.7</text>
</g>
<!-- bos
0.2.1 -->
<g id="node2" class="node">
<title>bos
0.2.1</title>
<polygon fill="none" stroke="black" points="141,-239 87,-239 87,-201 141,-201 141,-239"/>
<text text-anchor="middle" x="114" y="-223.8" font-family="Times,serif" font-size="14.00">bos</text>
<text text-anchor="middle" x="114" y="-208.8" font-family="Times,serif" font-size="14.00">0.2.1</text>
</g>
<!-- logs
0.7.0 -->
<g id="node6" class="node">
<title>logs
0.7.0</title>
<polygon fill="none" stroke="black" points="204,-127 150,-127 150,-89 204,-89 204,-127"/>
<text text-anchor="middle" x="177" y="-111.8" font-family="Times,serif" font-size="14.00">logs</text>
<text text-anchor="middle" x="177" y="-96.8" font-family="Times,serif" font-size="14.00">0.7.0</text>
</g>
<!-- bos
0.2.1&#45;&gt;logs
0.7.0 -->
<g id="edge2" class="edge">
<title>bos
0.2.1&#45;&gt;logs
0.7.0</title>
<path fill="none" stroke="black" d="M124.4,-200.84C134.53,-183.16 150.03,-156.09 161.58,-135.92"/>
<polygon fill="black" stroke="black" points="164.65,-137.61 166.58,-127.19 158.57,-134.13 164.65,-137.61"/>
</g>
<!-- dune&#45;release
1.6.2 -->
<g id="node3" class="node">
<title>dune&#45;release
1.6.2</title>
<polygon fill="none" stroke="black" points="101.5,-328 16.5,-328 16.5,-290 101.5,-290 101.5,-328"/>
<text text-anchor="middle" x="59" y="-312.8" font-family="Times,serif" font-size="14.00">dune&#45;release</text>
<text text-anchor="middle" x="59" y="-297.8" font-family="Times,serif" font-size="14.00">1.6.2</text>
</g>
<!-- dune&#45;release
1.6.2&#45;&gt;bos
0.2.1 -->
<g id="edge3" class="edge">
<title>dune&#45;release
1.6.2&#45;&gt;bos
0.2.1</title>
<path fill="none" stroke="black" d="M70.4,-289.97C78.14,-277.73 88.51,-261.32 97.2,-247.58"/>
<polygon fill="black" stroke="black" points="100.23,-249.33 102.62,-239 94.32,-245.59 100.23,-249.33"/>
</g>
<!-- odoc
2.2.0 -->
<g id="node8" class="node">
<title>odoc
2.2.0</title>
<polygon fill="none" stroke="black" points="111,-183 57,-183 57,-145 111,-145 111,-183"/>
<text text-anchor="middle" x="84" y="-167.8" font-family="Times,serif" font-size="14.00">odoc</text>
<text text-anchor="middle" x="84" y="-152.8" font-family="Times,serif" font-size="14.00">2.2.0</text>
</g>
<!-- dune&#45;release
1.6.2&#45;&gt;odoc
2.2.0 -->
<g id="edge4" class="edge">
<title>dune&#45;release
1.6.2&#45;&gt;odoc
2.2.0</title>
<path fill="none" stroke="black" d="M62.17,-289.89C66.41,-265.63 73.98,-222.33 78.99,-193.63"/>
<polygon fill="black" stroke="black" points="82.51,-193.87 80.78,-183.42 75.61,-192.66 82.51,-193.87"/>
</g>
<!-- lambda&#45;term
3.3.1 -->
<g id="node5" class="node">
<title>lambda&#45;term
3.3.1</title>
<polygon fill="none" stroke="black" points="318.5,-239 231.5,-239 231.5,-201 318.5,-201 318.5,-239"/>
<text text-anchor="middle" x="275" y="-223.8" font-family="Times,serif" font-size="14.00">lambda&#45;term</text>
<text text-anchor="middle" x="275" y="-208.8" font-family="Times,serif" font-size="14.00">3.3.1</text>
</g>
<!-- lambda&#45;term
3.3.1&#45;&gt;logs
0.7.0 -->
<g id="edge5" class="edge">
<title>lambda&#45;term
3.3.1&#45;&gt;logs
0.7.0</title>
<path fill="none" stroke="black" d="M268.35,-200.92C261.76,-184.83 250.42,-161.37 235,-145 228.68,-138.29 220.85,-132.34 213.01,-127.3"/>
<polygon fill="black" stroke="black" points="214.61,-124.17 204.24,-122.01 210.99,-130.17 214.61,-124.17"/>
</g>
<!-- logs
0.7.0&#45;&gt;fmt
0.9.0 -->
<g id="edge6" class="edge">
<title>logs
0.7.0&#45;&gt;fmt
0.9.0</title>
<path fill="none" stroke="black" stroke-dasharray="1,5" d="M159.6,-88.97C147.43,-76.38 131.02,-59.38 117.53,-45.41"/>
<polygon fill="black" stroke="black" points="119.85,-42.77 110.38,-38 114.81,-47.63 119.85,-42.77"/>
</g>
<!-- mdx
2.1.0 -->
<g id="node7" class="node">
<title>mdx
2.1.0</title>
<polygon fill="none" stroke="black" points="213,-239 159,-239 159,-201 213,-201 213,-239"/>
<text text-anchor="middle" x="186" y="-223.8" font-family="Times,serif" font-size="14.00">mdx</text>
<text text-anchor="middle" x="186" y="-208.8" font-family="Times,serif" font-size="14.00">2.1.0</text>
</g>
<!-- mdx
2.1.0&#45;&gt;logs
0.7.0 -->
<g id="edge7" class="edge">
<title>mdx
2.1.0&#45;&gt;logs
0.7.0</title>
<path fill="none" stroke="black" d="M184.51,-200.84C183.1,-183.56 180.95,-157.31 179.31,-137.29"/>
<polygon fill="black" stroke="black" points="182.79,-136.87 178.49,-127.19 175.82,-137.44 182.79,-136.87"/>
<text text-anchor="middle" x="206.5" y="-160.3" font-family="Times,serif" font-size="14.00">&gt;= 0.7.0</text>
</g>
<!-- odoc
2.2.0&#45;&gt;fmt
0.9.0 -->
<g id="edge8" class="edge">
<title>odoc
2.2.0&#45;&gt;fmt
0.9.0</title>
<path fill="none" stroke="black" d="M85.14,-144.89C86.67,-120.63 89.39,-77.33 91.2,-48.63"/>
<polygon fill="black" stroke="black" points="94.71,-48.62 91.84,-38.42 87.72,-48.18 94.71,-48.62"/>
</g>
<!-- opam&#45;dot
dev -->
<g id="node9" class="node">
<title>opam&#45;dot
dev</title>
<polygon fill="none" stroke="black" points="188.5,-328 119.5,-328 119.5,-290 188.5,-290 188.5,-328"/>
<text text-anchor="middle" x="154" y="-312.8" font-family="Times,serif" font-size="14.00">opam&#45;dot</text>
<text text-anchor="middle" x="154" y="-297.8" font-family="Times,serif" font-size="14.00">dev</text>
</g>
<!-- opam&#45;dot
dev&#45;&gt;bos
0.2.1 -->
<g id="edge9" class="edge">
<title>opam&#45;dot
dev&#45;&gt;bos
0.2.1</title>
<path fill="none" stroke="black" d="M145.71,-289.97C140.19,-277.96 132.82,-261.94 126.58,-248.36"/>
<polygon fill="black" stroke="black" points="129.63,-246.63 122.28,-239 123.27,-249.55 129.63,-246.63"/>
</g>
<!-- utop
2.10.0 -->
<g id="node10" class="node">
<title>utop
2.10.0</title>
<polygon fill="none" stroke="black" points="302,-328 248,-328 248,-290 302,-290 302,-328"/>
<text text-anchor="middle" x="275" y="-312.8" font-family="Times,serif" font-size="14.00">utop</text>
<text text-anchor="middle" x="275" y="-297.8" font-family="Times,serif" font-size="14.00">2.10.0</text>
</g>
<!-- utop
2.10.0&#45;&gt;lambda&#45;term
3.3.1 -->
<g id="edge10" class="edge">
<title>utop
2.10.0&#45;&gt;lambda&#45;term
3.3.1</title>
<path fill="none" stroke="black" d="M275,-289.97C275,-278.19 275,-262.56 275,-249.16"/>
<polygon fill="black" stroke="black" points="278.5,-249 275,-239 271.5,-249 278.5,-249"/>
<text text-anchor="middle" x="323.5" y="-260.8" font-family="Times,serif" font-size="14.00">&gt;= 3.1.0 &amp; &lt; 4.0</text>
</g>
</g>
</svg>
