<?xml version="1.0" encoding="UTF-8" standalone="no"?>
<!DOCTYPE svg PUBLIC "-//W3C//DTD SVG 1.1//EN"
 "http://www.w3.org/Graphics/SVG/1.1/DTD/svg11.dtd">
<!-- Generated by graphviz version 2.43.0 (0)
 -->
<!-- Title: G Pages: 1 -->
<svg width="338pt" height="336pt"
 viewBox="0.00 0.00 338.00 336.00" xmlns="http://www.w3.org/2000/svg" xmlns:xlink="http://www.w3.org/1999/xlink">
<g id="graph0" class="graph" transform="scale(1 1) rotate(0) translate(4 332)">
<title>G</title>
<polygon fill="white" stroke="transparent" points="-4,4 -4,-332 334,-332 334,4 -4,4"/>
<!-- alcotest
1.7.0 -->
<g id="node1" class="node">
<title>alcotest
1.7.0</title>
<polygon fill="none" stroke="black" points="58,-127 0,-127 0,-89 58,-89 58,-127"/>
<text text-anchor="middle" x="29" y="-111.8" font-family="Times,serif" font-size="14.00">alcotest</text>
<text text-anchor="middle" x="29" y="-96.8" font-family="Times,serif" font-size="14.00">1.7.0</text>
</g>
<!-- fmt
0.9.0 -->
<g id="node4" class="node">
<title>fmt
0.9.0</title>
<polygon fill="none" stroke="black" points="120,-38 66,-38 66,0 120,0 120,-38"/>
<text text-anchor="middle" x="93" y="-22.8" font-family="Times,serif" font-size="14.00">fmt</text>
<text text-anchor="middle" x="93" y="-7.8" font-family="Times,serif" font-size="14.00">0.9.0</text>
</g>
<!-- alcotest
1.7.0&#45;&gt;fmt
0.9.0 -->
<g id="edge1" class="edge">
<title>alcotest
1.7.0&#45;&gt;fmt
0.9.0</title>
<path fill="none" stroke="black" d="M25.16,-88.81C23.96,-78.5 24.21,-65.75 30,-56 36.07,-45.78 46.22,-38.2 56.62,-32.71"/>
<polygon fill="black" stroke="black" points="58.19,-35.84 65.73,-28.4 55.2,-29.51 58.19,-35.84"/>
<text text-anchor="middle" x="54.5" y="-59.8" font-family="Times,serif" font-size="14.00">&gt;= 0.8.7</text>
</g>
<!-- bos
0.2.1 -->
<g id="node2" class="node">
<title>bos
0.2.1</title>
<polygon fill="none" stroke="black" points="152,-239 98,-239 98,-201 152,-201 152,-239"/>
<text text-anchor="middle" x="125" y="-223.8" font-family="Times,serif" font-size="14.00">bos</text>
<text text-anchor="middle" x="125" y="-208.8" font-family="Times,serif" font-size="14.00">0.2.1</text>
</g>
<!-- logs
0.7.0 -->
<g id="node6" class="node">
<title>logs
0.7.0</title>
<polygon fill="none" stroke="black" points="213,-127 159,-127 159,-89 213,-89 213,-127"/>
<text text-anchor="middle" x="186" y="-111.8" font-family="Times,serif" font-size="14.00">logs</text>
<text text-anchor="middle" x="186" y="-96.8" font-family="Times,serif" font-size="14.00">0.7.0</text>
</g>
<!-- bos
0.2.1&#45;&gt;logs
0.7.0 -->
<g id="edge2" class="edge">
<title>bos
0.2.1&#45;&gt;logs
0.7.0</title>
<path fill="none" stroke="black" d="M135.07,-200.84C144.83,-183.24 159.75,-156.34 170.92,-136.19"/>
<polygon fill="black" stroke="black" points="174.12,-137.63 175.91,-127.19 168,-134.24 174.12,-137.63"/>
</g>
<!-- dune&#45;release
2.0.0 -->
<g id="node3" class="node">
<title>dune&#45;release
2.0.0</title>
<polygon fill="none" stroke="black" points="134.5,-328 49.5,-328 49.5,-290 134.5,-290 134.5,-328"/>
<text text-anchor="middle" x="92" y="-312.8" font-family="Times,serif" font-size="14.00">dune&#45;release</text>
<text text-anchor="middle" x="92" y="-297.8" font-family="Times,serif" font-size="14.00">2.0.0</text>
</g>
<!-- dune&#45;release
2.0.0&#45;&gt;bos
0.2.1 -->
<g id="edge3" class="edge">
<title>dune&#45;release
2.0.0&#45;&gt;bos
0.2.1</title>
<path fill="none" stroke="black" d="M98.84,-289.97C103.4,-277.96 109.47,-261.94 114.62,-248.36"/>
<polygon fill="black" stroke="black" points="117.9,-249.59 118.17,-239 111.35,-247.11 117.9,-249.59"/>
<text text-anchor="middle" x="135.5" y="-260.8" font-family="Times,serif" font-size="14.00">&gt;= 0.1.3</text>
</g>
<!-- odoc
2.2.0 -->
<g id="node8" class="node">
<title>odoc
2.2.0</title>
<polygon fill="none" stroke="black" points="115,-183 61,-183 61,-145 115,-145 115,-183"/>
<text text-anchor="middle" x="88" y="-167.8" font-family="Times,serif" font-size="14.00">odoc</text>
<text text-anchor="middle" x="88" y="-152.8" font-family="Times,serif" font-size="14.00">2.2.0</text>
</g>
<!-- dune&#45;release
2.0.0&#45;&gt;odoc
2.2.0 -->
<g id="edge4" class="edge">
<title>dune&#45;release
2.0.0&#45;&gt;odoc
2.2.0</title>
<path fill="none" stroke="black" d="M91.06,-289.85C90.38,-275.93 89.49,-256.26 89,-239 88.57,-224 88.33,-207.29 88.19,-193.54"/>
<polygon fill="black" stroke="black" points="91.68,-193.22 88.09,-183.25 84.68,-193.28 91.68,-193.22"/>
</g>
<!-- lambda&#45;term
3.3.1 -->
<g id="node5" class="node">
<title>lambda&#45;term
3.3.1</title>
<polygon fill="none" stroke="black" points="257.5,-239 170.5,-239 170.5,-201 257.5,-201 257.5,-239"/>
<text text-anchor="middle" x="214" y="-223.8" font-family="Times,serif" font-size="14.00">lambda&#45;term</text>
<text text-anchor="middle" x="214" y="-208.8" font-family="Times,serif" font-size="14.00">3.3.1</text>
</g>
<!-- lambda&#45;term
3.3.1&#45;&gt;logs
0.7.0 -->
<g id="edge5" class="edge">
<title>lambda&#45;term
3.3.1&#45;&gt;logs
0.7.0</title>
<path fill="none" stroke="black" d="M209.38,-200.84C204.96,-183.48 198.24,-157.07 193.13,-137.02"/>
<polygon fill="black" stroke="black" points="196.49,-136.02 190.63,-127.19 189.71,-137.75 196.49,-136.02"/>
</g>
<!-- logs
0.7.0&#45;&gt;fmt
0.9.0 -->
<g id="edge6" class="edge">
<title>logs
0.7.0&#45;&gt;fmt
0.9.0</title>
<path fill="none" stroke="black" stroke-dasharray="1,5" d="M166.73,-88.97C153.14,-76.26 134.75,-59.06 119.74,-45.02"/>
<polygon fill="black" stroke="black" points="121.94,-42.28 112.24,-38 117.16,-47.39 121.94,-42.28"/>
</g>
<!-- mdx
2.3.0 -->
<g id="node7" class="node">
<title>mdx
2.3.0</title>
<polygon fill="none" stroke="black" points="330,-239 276,-239 276,-201 330,-201 330,-239"/>
<text text-anchor="middle" x="303" y="-223.8" font-family="Times,serif" font-size="14.00">mdx</text>
<text text-anchor="middle" x="303" y="-208.8" font-family="Times,serif" font-size="14.00">2.3.0</text>
</g>
<!-- mdx
2.3.0&#45;&gt;logs
0.7.0 -->
<g id="edge7" class="edge">
<title>mdx
2.3.0&#45;&gt;logs
0.7.0</title>
<path fill="none" stroke="black" d="M283.68,-200.84C264.37,-182.68 234.53,-154.62 212.91,-134.3"/>
<polygon fill="black" stroke="black" points="215.03,-131.49 205.35,-127.19 210.24,-136.59 215.03,-131.49"/>
<text text-anchor="middle" x="285.5" y="-160.3" font-family="Times,serif" font-size="14.00">&gt;= 0.7.0</text>
</g>
<!-- odoc
2.2.0&#45;&gt;fmt
0.9.0 -->
<g id="edge8" class="edge">
<title>odoc
2.2.0&#45;&gt;fmt
0.9.0</title>
<path fill="none" stroke="black" d="M88.63,-144.89C89.48,-120.63 91,-77.33 92,-48.63"/>
<polygon fill="black" stroke="black" points="95.5,-48.53 92.36,-38.42 88.51,-48.29 95.5,-48.53"/>
</g>
<!-- utop
2.13.1 -->
<g id="node9" class="node">
<title>utop
2.13.1</title>
<polygon fill="none" stroke="black" points="241,-328 187,-328 187,-290 241,-290 241,-328"/>
<text text-anchor="middle" x="214" y="-312.8" font-family="Times,serif" font-size="14.00">utop</text>
<text text-anchor="middle" x="214" y="-297.8" font-family="Times,serif" font-size="14.00">2.13.1</text>
</g>
<!-- utop
2.13.1&#45;&gt;lambda&#45;term
3.3.1 -->
<g id="edge9" class="edge">
<title>utop
2.13.1&#45;&gt;lambda&#45;term
3.3.1</title>
<path fill="none" stroke="black" d="M214,-289.97C214,-278.19 214,-262.56 214,-249.16"/>
<polygon fill="black" stroke="black" points="217.5,-249 214,-239 210.5,-249 217.5,-249"/>
<text text-anchor="middle" x="262.5" y="-260.8" font-family="Times,serif" font-size="14.00">&gt;= 3.1.0 &amp; &lt; 4.0</text>
</g>
</g>
</svg>
