<?xml version="1.0" encoding="UTF-8" standalone="no"?>
<!DOCTYPE svg PUBLIC "-//W3C//DTD SVG 1.1//EN"
 "http://www.w3.org/Graphics/SVG/1.1/DTD/svg11.dtd">
<!-- Generated by graphviz version 2.43.0 (0)
 -->
<!-- Title: G Pages: 1 -->
<svg width="369pt" height="336pt"
 viewBox="0.00 0.00 369.00 336.00" xmlns="http://www.w3.org/2000/svg" xmlns:xlink="http://www.w3.org/1999/xlink">
<g id="graph0" class="graph" transform="scale(1 1) rotate(0) translate(4 332)">
<title>G</title>
<polygon fill="white" stroke="transparent" points="-4,4 -4,-332 365,-332 365,4 -4,4"/>
<!-- alcotest
1.7.0 -->
<g id="node1" class="node">
<title>alcotest
1.7.0</title>
<polygon fill="none" stroke="black" points="58,-127 0,-127 0,-89 58,-89 58,-127"/>
<text text-anchor="middle" x="29" y="-111.8" font-family="Times,serif" font-size="14.00">alcotest</text>
<text text-anchor="middle" x="29" y="-96.8" font-family="Times,serif" font-size="14.00">1.7.0</text>
</g>
<!-- fmt
0.9.0 -->
<g id="node4" class="node">
<title>fmt
0.9.0</title>
<polygon fill="none" stroke="black" points="120,-38 66,-38 66,0 120,0 120,-38"/>
<text text-anchor="middle" x="93" y="-22.8" font-family="Times,serif" font-size="14.00">fmt</text>
<text text-anchor="middle" x="93" y="-7.8" font-family="Times,serif" font-size="14.00">0.9.0</text>
</g>
<!-- alcotest
1.7.0&#45;&gt;fmt
0.9.0 -->
<g id="edge1" class="edge">
<title>alcotest
1.7.0&#45;&gt;fmt
0.9.0</title>
<path fill="none" stroke="black" d="M25.16,-88.81C23.96,-78.5 24.21,-65.75 30,-56 36.07,-45.78 46.22,-38.2 56.62,-32.71"/>
<polygon fill="black" stroke="black" points="58.19,-35.84 65.73,-28.4 55.2,-29.51 58.19,-35.84"/>
<text text-anchor="middle" x="54.5" y="-59.8" font-family="Times,serif" font-size="14.00">&gt;= 0.8.7</text>
</g>
<!-- bos
0.2.1 -->
<g id="node2" class="node">
<title>bos
0.2.1</title>
<polygon fill="none" stroke="black" points="163,-239 109,-239 109,-201 163,-201 163,-239"/>
<text text-anchor="middle" x="136" y="-223.8" font-family="Times,serif" font-size="14.00">bos</text>
<text text-anchor="middle" x="136" y="-208.8" font-family="Times,serif" font-size="14.00">0.2.1</text>
</g>
<!-- logs
0.7.0 -->
<g id="node6" class="node">
<title>logs
0.7.0</title>
<polygon fill="none" stroke="black" points="213,-127 159,-127 159,-89 213,-89 213,-127"/>
<text text-anchor="middle" x="186" y="-111.8" font-family="Times,serif" font-size="14.00">logs</text>
<text text-anchor="middle" x="186" y="-96.8" font-family="Times,serif" font-size="14.00">0.7.0</text>
</g>
<!-- bos
0.2.1&#45;&gt;logs
0.7.0 -->
<g id="edge2" class="edge">
<title>bos
0.2.1&#45;&gt;logs
0.7.0</title>
<path fill="none" stroke="black" d="M144.26,-200.84C152.22,-183.32 164.37,-156.58 173.52,-136.47"/>
<polygon fill="black" stroke="black" points="176.78,-137.74 177.73,-127.19 170.41,-134.85 176.78,-137.74"/>
</g>
<!-- dune&#45;release
2.0.0 -->
<g id="node3" class="node">
<title>dune&#45;release
2.0.0</title>
<polygon fill="none" stroke="black" points="85.5,-328 0.5,-328 0.5,-290 85.5,-290 85.5,-328"/>
<text text-anchor="middle" x="43" y="-312.8" font-family="Times,serif" font-size="14.00">dune&#45;release</text>
<text text-anchor="middle" x="43" y="-297.8" font-family="Times,serif" font-size="14.00">2.0.0</text>
</g>
<!-- dune&#45;release
2.0.0&#45;&gt;bos
0.2.1 -->
<g id="edge3" class="edge">
<title>dune&#45;release
2.0.0&#45;&gt;bos
0.2.1</title>
<path fill="none" stroke="black" d="M54.69,-289.82C61.84,-279.51 71.59,-266.76 82,-257 87.54,-251.81 93.9,-246.86 100.27,-242.38"/>
<polygon fill="black" stroke="black" points="102.54,-245.07 108.89,-236.58 98.64,-239.26 102.54,-245.07"/>
<text text-anchor="middle" x="106.5" y="-260.8" font-family="Times,serif" font-size="14.00">&gt;= 0.1.3</text>
</g>
<!-- odoc
2.2.0 -->
<g id="node9" class="node">
<title>odoc
2.2.0</title>
<polygon fill="none" stroke="black" points="112,-183 58,-183 58,-145 112,-145 112,-183"/>
<text text-anchor="middle" x="85" y="-167.8" font-family="Times,serif" font-size="14.00">odoc</text>
<text text-anchor="middle" x="85" y="-152.8" font-family="Times,serif" font-size="14.00">2.2.0</text>
</g>
<!-- dune&#45;release
2.0.0&#45;&gt;odoc
2.2.0 -->
<g id="edge4" class="edge">
<title>dune&#45;release
2.0.0&#45;&gt;odoc
2.2.0</title>
<path fill="none" stroke="black" d="M48.32,-289.89C55.48,-265.52 68.28,-221.94 76.7,-193.25"/>
<polygon fill="black" stroke="black" points="80.13,-194 79.59,-183.42 73.41,-192.02 80.13,-194"/>
</g>
<!-- lambda&#45;term
3.3.1 -->
<g id="node5" class="node">
<title>lambda&#45;term
3.3.1</title>
<polygon fill="none" stroke="black" points="268.5,-239 181.5,-239 181.5,-201 268.5,-201 268.5,-239"/>
<text text-anchor="middle" x="225" y="-223.8" font-family="Times,serif" font-size="14.00">lambda&#45;term</text>
<text text-anchor="middle" x="225" y="-208.8" font-family="Times,serif" font-size="14.00">3.3.1</text>
</g>
<!-- lambda&#45;term
3.3.1&#45;&gt;logs
0.7.0 -->
<g id="edge5" class="edge">
<title>lambda&#45;term
3.3.1&#45;&gt;logs
0.7.0</title>
<path fill="none" stroke="black" d="M218.56,-200.84C212.38,-183.4 202.96,-156.82 195.84,-136.74"/>
<polygon fill="black" stroke="black" points="199.09,-135.45 192.45,-127.19 192.49,-137.79 199.09,-135.45"/>
</g>
<!-- logs
0.7.0&#45;&gt;fmt
0.9.0 -->
<g id="edge6" class="edge">
<title>logs
0.7.0&#45;&gt;fmt
0.9.0</title>
<path fill="none" stroke="black" stroke-dasharray="1,5" d="M166.73,-88.97C153.14,-76.26 134.75,-59.06 119.74,-45.02"/>
<polygon fill="black" stroke="black" points="121.94,-42.28 112.24,-38 117.16,-47.39 121.94,-42.28"/>
</g>
<!-- mdx
2.3.0 -->
<g id="node7" class="node">
<title>mdx
2.3.0</title>
<polygon fill="none" stroke="black" points="341,-239 287,-239 287,-201 341,-201 341,-239"/>
<text text-anchor="middle" x="314" y="-223.8" font-family="Times,serif" font-size="14.00">mdx</text>
<text text-anchor="middle" x="314" y="-208.8" font-family="Times,serif" font-size="14.00">2.3.0</text>
</g>
<!-- mdx
2.3.0&#45;&gt;logs
0.7.0 -->
<g id="edge7" class="edge">
<title>mdx
2.3.0&#45;&gt;logs
0.7.0</title>
<path fill="none" stroke="black" d="M292.86,-200.84C271.56,-182.52 238.52,-154.13 214.82,-133.76"/>
<polygon fill="black" stroke="black" points="217.03,-131.05 207.17,-127.19 212.47,-136.36 217.03,-131.05"/>
<text text-anchor="middle" x="292.5" y="-160.3" font-family="Times,serif" font-size="14.00">&gt;= 0.7.0</text>
</g>
<!-- odep
0.1.0 -->
<g id="node8" class="node">
<title>odep
0.1.0</title>
<polygon fill="none" stroke="black" points="160,-328 106,-328 106,-290 160,-290 160,-328"/>
<text text-anchor="middle" x="133" y="-312.8" font-family="Times,serif" font-size="14.00">odep</text>
<text text-anchor="middle" x="133" y="-297.8" font-family="Times,serif" font-size="14.00">0.1.0</text>
</g>
<!-- odep
0.1.0&#45;&gt;bos
0.2.1 -->
<g id="edge8" class="edge">
<title>odep
0.1.0&#45;&gt;bos
0.2.1</title>
<path fill="none" stroke="black" d="M133.62,-289.97C134.03,-278.19 134.57,-262.56 135.03,-249.16"/>
<polygon fill="black" stroke="black" points="138.53,-249.12 135.38,-239 131.54,-248.88 138.53,-249.12"/>
</g>
<!-- odoc
2.2.0&#45;&gt;fmt
0.9.0 -->
<g id="edge9" class="edge">
<title>odoc
2.2.0&#45;&gt;fmt
0.9.0</title>
<path fill="none" stroke="black" d="M86.01,-144.89C87.37,-120.63 89.79,-77.33 91.4,-48.63"/>
<polygon fill="black" stroke="black" points="94.91,-48.6 91.97,-38.42 87.92,-48.2 94.91,-48.6"/>
</g>
<!-- opam&#45;dot
dev -->
<g id="node10" class="node">
<title>opam&#45;dot
dev</title>
<polygon fill="none" stroke="black" points="247.5,-328 178.5,-328 178.5,-290 247.5,-290 247.5,-328"/>
<text text-anchor="middle" x="213" y="-312.8" font-family="Times,serif" font-size="14.00">opam&#45;dot</text>
<text text-anchor="middle" x="213" y="-297.8" font-family="Times,serif" font-size="14.00">dev</text>
</g>
<!-- opam&#45;dot
dev&#45;&gt;bos
0.2.1 -->
<g id="edge10" class="edge">
<title>opam&#45;dot
dev&#45;&gt;bos
0.2.1</title>
<path fill="none" stroke="black" d="M197.05,-289.97C186,-277.49 171.13,-260.69 158.83,-246.79"/>
<polygon fill="black" stroke="black" points="161.18,-244.17 151.93,-239 155.94,-248.81 161.18,-244.17"/>
</g>
<!-- utop
2.13.1 -->
<g id="node11" class="node">
<title>utop
2.13.1</title>
<polygon fill="none" stroke="black" points="320,-328 266,-328 266,-290 320,-290 320,-328"/>
<text text-anchor="middle" x="293" y="-312.8" font-family="Times,serif" font-size="14.00">utop</text>
<text text-anchor="middle" x="293" y="-297.8" font-family="Times,serif" font-size="14.00">2.13.1</text>
</g>
<!-- utop
2.13.1&#45;&gt;lambda&#45;term
3.3.1 -->
<g id="edge11" class="edge">
<title>utop
2.13.1&#45;&gt;lambda&#45;term
3.3.1</title>
<path fill="none" stroke="black" d="M278.91,-289.97C269.25,-277.61 256.27,-261 245.47,-247.18"/>
<polygon fill="black" stroke="black" points="247.99,-244.73 239.07,-239 242.47,-249.04 247.99,-244.73"/>
<text text-anchor="middle" x="312.5" y="-260.8" font-family="Times,serif" font-size="14.00">&gt;= 3.1.0 &amp; &lt; 4.0</text>
</g>
</g>
</svg>
